# Blender 3.6.7
# www.blender.org
mtllib lightningLanternTall_1x1x4.mtl
o model_0
v -0.134615 0.153846 0.057692
v -0.134615 1.846154 0.057692
v -0.134615 1.846154 -0.057692
v -0.134615 0.153846 -0.057692
v -0.096154 0.153846 0.057692
v -0.096154 0.153846 -0.057692
v -0.096154 1.846154 -0.057692
v -0.096154 1.846154 0.057692
v -0.096154 0.153846 0.096154
v -0.096154 1.846154 0.096154
v -0.057692 0.153846 0.096154
v -0.057692 0.153846 0.057692
v -0.057692 1.846154 0.057692
v -0.057692 1.846154 0.096154
v -0.096154 0.076923 0.057692
v -0.096154 0.076923 -0.057692
v -0.057692 0.076923 0.057692
v -0.057692 0.076923 -0.057692
v -0.057692 0.153846 -0.057692
v -0.096154 1.923077 0.057692
v -0.096154 1.923077 -0.057692
v -0.057692 1.846154 -0.057692
v -0.057692 1.923077 -0.057692
v -0.057692 1.923077 0.057692
v -0.096154 1.846154 -0.096154
v -0.096154 0.153846 -0.096154
v -0.057692 0.153846 -0.096154
v -0.057692 1.846154 -0.096154
v -0.057692 0.153846 0.134615
v -0.057692 1.846154 0.134615
v -0.057692 0.076923 0.096154
v -0.057692 1.923077 0.096154
v -0.057692 0.038461 0.057692
v -0.057692 0.038461 -0.057692
v -0.057692 1.961538 0.057692
v -0.057692 1.961538 -0.057692
v -0.019231 0.038461 0.019231
v -0.019231 0.038461 -0.019231
v -0.019231 0.076923 -0.019231
v -0.019231 0.076923 0.019231
v -0.019231 1.923077 0.019231
v -0.019231 1.923077 -0.019231
v -0.019231 1.961538 -0.019231
v -0.019231 1.961538 0.019231
v -0.057692 0.076923 -0.096154
v -0.057692 1.923077 -0.096154
v -0.057692 1.846154 -0.134615
v -0.057692 0.153846 -0.134615
v 0.057692 0.153846 0.134615
v 0.057692 0.153846 0.096154
v 0.057692 1.846154 0.096154
v 0.057692 1.846154 0.134615
v 0.057692 0.076923 0.096154
v 0.057692 0.076923 0.057692
v 0.057692 0.153846 0.057692
v 0.057692 1.846154 0.057692
v 0.057692 1.923077 0.057692
v 0.057692 1.923077 0.096154
v 0.057692 0.038461 0.057692
v 0.057692 0.038461 -0.057692
v 0.057692 0.076923 -0.057692
v 0.057692 1.923077 -0.057692
v 0.057692 1.961538 -0.057692
v 0.057692 1.961538 0.057692
v 0.019231 0.038461 0.019231
v 0.019231 0.076923 0.019231
v 0.019231 0.076923 -0.019231
v 0.019231 0.038461 -0.019231
v 0.019231 1.923077 0.019231
v 0.019231 1.961538 0.019231
v 0.019231 1.961538 -0.019231
v 0.019231 1.923077 -0.019231
v 0.057692 0.076923 -0.096154
v 0.057692 0.153846 -0.096154
v 0.057692 0.153846 -0.057692
v 0.057692 1.846154 -0.057692
v 0.057692 1.846154 -0.096154
v 0.057692 1.923077 -0.096154
v 0.057692 0.153846 -0.134615
v 0.057692 1.846154 -0.134615
v 0.096154 0.153846 0.096154
v 0.096154 0.153846 0.057692
v 0.096154 1.846154 0.057692
v 0.096154 1.846154 0.096154
v 0.096154 0.076923 0.057692
v 0.096154 0.076923 -0.057692
v 0.096154 0.153846 -0.057692
v 0.096154 1.846154 -0.057692
v 0.096154 1.923077 -0.057692
v 0.096154 1.923077 0.057692
v 0.096154 0.153846 -0.096154
v 0.096154 1.846154 -0.096154
v 0.134615 0.153846 0.057692
v 0.134615 0.153846 -0.057692
v 0.134615 1.846154 -0.057692
v 0.134615 1.846154 0.057692
v -0.057692 0.038461 0.019231
v 0.057692 0.038461 0.019231
v 0.057692 0.076923 0.019231
v -0.057692 0.076923 0.019231
v -0.019231 0.038461 -0.057692
v -0.019231 0.076923 -0.057692
v 0.057692 0.038461 -0.019231
v 0.057692 0.076923 -0.019231
v -0.057692 1.923077 0.019231
v 0.057692 1.923077 0.019231
v 0.057692 1.961538 0.019231
v -0.057692 1.961538 0.019231
v -0.019231 1.923077 -0.057692
v -0.019231 1.961538 -0.057692
v 0.057692 1.923077 -0.019231
v 0.057692 1.961538 -0.019231
v -0.173077 0.423077 0.173077
v -0.173077 1.576923 0.173077
v -0.173077 1.576923 0.134615
v -0.173077 0.423077 0.134615
v -0.134615 0.423077 0.173077
v -0.134615 0.423077 0.134615
v -0.134615 1.576923 0.134615
v -0.134615 1.576923 0.173077
v -0.173077 0.423077 -0.134615
v -0.173077 1.576923 -0.134615
v -0.173077 1.576923 -0.173077
v -0.173077 0.423077 -0.173077
v -0.134615 0.423077 -0.134615
v -0.134615 0.423077 -0.173077
v -0.134615 1.576923 -0.173077
v -0.134615 1.576923 -0.134615
v -0.134615 0.038461 0.134615
v -0.134615 0.423077 0.096154
v -0.134615 0.038461 0.096154
v -0.096154 0.038461 0.134615
v -0.096154 0.038461 0.096154
v -0.096154 0.423077 0.096154
v -0.096154 0.423077 0.134615
v -0.134615 1.961538 0.134615
v -0.134615 1.961538 0.096154
v -0.134615 1.576923 0.096154
v -0.096154 1.576923 0.134615
v -0.096154 1.576923 0.096154
v -0.096154 1.961538 0.096154
v -0.096154 1.961538 0.134615
v -0.134615 -0.000000 0.057692
v -0.134615 0.038461 0.057692
v -0.134615 0.038461 -0.057692
v -0.134615 -0.000000 -0.057692
v -0.134615 1.961538 0.057692
v -0.134615 2.000000 0.057692
v -0.134615 2.000000 -0.057692
v -0.134615 1.961538 -0.057692
v -0.134615 0.038461 -0.096154
v -0.134615 0.423077 -0.096154
v -0.134615 0.038461 -0.134615
v -0.096154 0.038461 -0.096154
v -0.096154 0.038461 -0.134615
v -0.096154 0.423077 -0.134615
v -0.096154 0.423077 -0.096154
v -0.134615 1.576923 -0.096154
v -0.134615 1.961538 -0.096154
v -0.134615 1.961538 -0.134615
v -0.096154 1.576923 -0.096154
v -0.096154 1.576923 -0.134615
v -0.096154 1.961538 -0.134615
v -0.096154 1.961538 -0.096154
v -0.096154 -0.000000 0.096154
v -0.096154 0.038461 0.057692
v -0.096154 -0.000000 0.057692
v -0.096154 2.000000 0.096154
v -0.096154 2.000000 0.057692
v -0.096154 1.961538 0.057692
v -0.096154 -0.000000 -0.057692
v -0.096154 0.038461 -0.057692
v -0.096154 -0.000000 -0.096154
v -0.096154 1.961538 -0.057692
v -0.096154 2.000000 -0.057692
v -0.096154 2.000000 -0.096154
v -0.057692 -0.000000 0.134615
v -0.057692 0.038461 0.134615
v -0.057692 0.038461 0.096154
v -0.057692 -0.000000 0.096154
v -0.057692 1.961538 0.134615
v -0.057692 2.000000 0.134615
v -0.057692 2.000000 0.096154
v -0.057692 1.961538 0.096154
v -0.057692 -0.000000 -0.096154
v -0.057692 0.038461 -0.096154
v -0.057692 0.038461 -0.134615
v -0.057692 -0.000000 -0.134615
v -0.057692 1.961538 -0.096154
v -0.057692 2.000000 -0.096154
v -0.057692 2.000000 -0.134615
v -0.057692 1.961538 -0.134615
v 0.057692 -0.000000 0.134615
v 0.057692 -0.000000 0.096154
v 0.057692 0.038461 0.096154
v 0.057692 0.038461 0.134615
v 0.057692 1.961538 0.134615
v 0.057692 1.961538 0.096154
v 0.057692 2.000000 0.096154
v 0.057692 2.000000 0.134615
v 0.057692 -0.000000 -0.096154
v 0.057692 -0.000000 -0.134615
v 0.057692 0.038461 -0.134615
v 0.057692 0.038461 -0.096154
v 0.057692 1.961538 -0.096154
v 0.057692 1.961538 -0.134615
v 0.057692 2.000000 -0.134615
v 0.057692 2.000000 -0.096154
v 0.096154 -0.000000 0.096154
v 0.096154 -0.000000 0.057692
v 0.096154 0.038461 0.057692
v 0.096154 0.038461 0.096154
v 0.096154 1.961538 0.096154
v 0.096154 1.961538 0.057692
v 0.096154 2.000000 0.057692
v 0.096154 2.000000 0.096154
v 0.096154 -0.000000 -0.057692
v 0.096154 -0.000000 -0.096154
v 0.096154 0.038461 -0.096154
v 0.096154 0.038461 -0.057692
v 0.096154 1.961538 -0.057692
v 0.096154 1.961538 -0.096154
v 0.096154 2.000000 -0.096154
v 0.096154 2.000000 -0.057692
v 0.096154 0.038461 0.134615
v 0.096154 0.423077 0.134615
v 0.096154 0.423077 0.096154
v 0.134615 0.038461 0.134615
v 0.134615 0.038461 0.096154
v 0.134615 0.423077 0.096154
v 0.134615 0.423077 0.134615
v 0.096154 1.576923 0.134615
v 0.096154 1.961538 0.134615
v 0.096154 1.576923 0.096154
v 0.134615 1.576923 0.134615
v 0.134615 1.576923 0.096154
v 0.134615 1.961538 0.096154
v 0.134615 1.961538 0.134615
v 0.134615 -0.000000 0.057692
v 0.134615 -0.000000 -0.057692
v 0.134615 0.038461 -0.057692
v 0.134615 0.038461 0.057692
v 0.134615 1.961538 0.057692
v 0.134615 1.961538 -0.057692
v 0.134615 2.000000 -0.057692
v 0.134615 2.000000 0.057692
v 0.096154 0.423077 -0.096154
v 0.096154 0.423077 -0.134615
v 0.096154 0.038461 -0.134615
v 0.134615 0.038461 -0.096154
v 0.134615 0.038461 -0.134615
v 0.134615 0.423077 -0.134615
v 0.134615 0.423077 -0.096154
v 0.096154 1.576923 -0.096154
v 0.096154 1.961538 -0.134615
v 0.096154 1.576923 -0.134615
v 0.134615 1.576923 -0.096154
v 0.134615 1.576923 -0.134615
v 0.134615 1.961538 -0.134615
v 0.134615 1.961538 -0.096154
v 0.134615 0.423077 0.173077
v 0.134615 1.576923 0.173077
v 0.173077 0.423077 0.173077
v 0.173077 0.423077 0.134615
v 0.173077 1.576923 0.134615
v 0.173077 1.576923 0.173077
v 0.134615 1.576923 -0.173077
v 0.134615 0.423077 -0.173077
v 0.173077 0.423077 -0.134615
v 0.173077 0.423077 -0.173077
v 0.173077 1.576923 -0.173077
v 0.173077 1.576923 -0.134615
v -0.057692 -0.000000 0.057692
v -0.057692 0.038461 0.057692
v -0.096154 -0.000000 0.019231
v -0.019231 -0.000000 0.019231
v -0.019231 -0.000000 0.057692
v -0.019231 0.038461 0.057692
v -0.019231 0.038461 0.019231
v -0.096154 0.038461 0.019231
v -0.057692 -0.000000 -0.057692
v -0.057692 -0.000000 0.019231
v -0.057692 0.038461 0.019231
v -0.057692 0.038461 -0.057692
v 0.057692 -0.000000 0.057692
v 0.057692 0.038461 0.057692
v -0.057692 -0.000000 -0.019231
v 0.057692 -0.000000 -0.019231
v 0.057692 -0.000000 0.019231
v 0.057692 0.038461 0.019231
v 0.057692 0.038461 -0.019231
v -0.057692 0.038461 -0.019231
v -0.019231 -0.000000 -0.096154
v -0.019231 -0.000000 -0.019231
v -0.019231 0.038461 -0.019231
v -0.019231 0.038461 -0.096154
v 0.019231 -0.000000 0.019231
v 0.019231 -0.000000 0.057692
v 0.019231 0.038461 0.057692
v 0.019231 0.038461 0.019231
v -0.019231 -0.000000 -0.057692
v 0.019231 -0.000000 -0.057692
v 0.019231 -0.000000 -0.019231
v 0.019231 0.038461 -0.019231
v 0.019231 0.038461 -0.057692
v -0.019231 0.038461 -0.057692
v 0.057692 -0.000000 -0.057692
v 0.057692 0.038461 -0.057692
v 0.096154 -0.000000 0.019231
v 0.096154 0.038461 0.019231
v 0.096154 -0.000000 -0.019231
v 0.096154 0.038461 -0.019231
v -0.057692 1.961538 0.057692
v -0.057692 2.000000 0.057692
v -0.096154 1.961538 0.019231
v -0.019231 1.961538 0.019231
v -0.019231 1.961538 0.057692
v -0.019231 2.000000 0.057692
v -0.019231 2.000000 0.019231
v -0.096154 2.000000 0.019231
v -0.057692 1.961538 -0.057692
v -0.057692 1.961538 0.019231
v -0.057692 2.000000 0.019231
v -0.057692 2.000000 -0.057692
v 0.057692 1.961538 0.057692
v 0.057692 2.000000 0.057692
v -0.057692 1.961538 -0.019231
v 0.057692 1.961538 -0.019231
v 0.057692 1.961538 0.019231
v 0.057692 2.000000 0.019231
v 0.057692 2.000000 -0.019231
v -0.057692 2.000000 -0.019231
v -0.019231 1.961538 -0.096154
v -0.019231 1.961538 -0.019231
v -0.019231 2.000000 -0.019231
v -0.019231 2.000000 -0.096154
v 0.019231 1.961538 0.019231
v 0.019231 1.961538 0.057692
v 0.019231 2.000000 0.057692
v 0.019231 2.000000 0.019231
v -0.019231 1.961538 -0.057692
v 0.019231 1.961538 -0.057692
v 0.019231 1.961538 -0.019231
v 0.019231 2.000000 -0.019231
v 0.019231 2.000000 -0.057692
v -0.019231 2.000000 -0.057692
v 0.057692 1.961538 -0.057692
v 0.057692 2.000000 -0.057692
v 0.096154 1.961538 0.019231
v 0.096154 2.000000 0.019231
v 0.096154 1.961538 -0.019231
v 0.096154 2.000000 -0.019231
vn -1.0000 -0.0000 -0.0000
vn 1.0000 -0.0000 -0.0000
vn -0.0000 -0.0000 1.0000
vn -0.0000 -0.0000 -1.0000
vn -0.0000 -1.0000 -0.0000
vn -0.0000 1.0000 -0.0000
s 0
usemtl lightningLantern1x1x4.vox_Material_248
f 1//1 2//1 3//1 4//1
f 5//2 6//2 7//2 8//2
f 9//1 10//1 8//1 5//1
f 11//2 12//2 13//2 14//2
f 15//1 5//1 6//1 16//1
f 17//2 18//2 19//2 12//2
f 8//1 20//1 21//1 7//1
f 13//2 22//2 23//2 24//2
f 6//1 7//1 25//1 26//1
f 19//2 27//2 28//2 22//2
f 29//1 30//1 14//1 11//1
f 31//1 11//1 12//1 17//1
f 14//1 32//1 24//1 13//1
f 33//1 17//1 18//1 34//1
f 24//1 35//1 36//1 23//1
f 37//2 38//2 39//2 40//2
f 41//2 42//2 43//2 44//2
f 18//1 19//1 27//1 45//1
f 22//1 23//1 46//1 28//1
f 27//1 28//1 47//1 48//1
f 49//2 50//2 51//2 52//2
f 53//2 54//2 55//2 50//2
f 51//2 56//2 57//2 58//2
f 59//2 60//2 61//2 54//2
f 57//2 62//2 63//2 64//2
f 65//1 66//1 67//1 68//1
f 69//1 70//1 71//1 72//1
f 61//2 73//2 74//2 75//2
f 76//2 77//2 78//2 62//2
f 74//2 79//2 80//2 77//2
f 50//1 51//1 56//1 55//1
f 81//2 82//2 83//2 84//2
f 54//1 55//1 75//1 61//1
f 85//2 86//2 87//2 82//2
f 56//1 57//1 62//1 76//1
f 83//2 88//2 89//2 90//2
f 75//1 76//1 77//1 74//1
f 87//2 91//2 92//2 88//2
f 82//1 83//1 88//1 87//1
f 93//2 94//2 95//2 96//2
f 29//3 49//3 52//3 30//3
f 11//4 14//4 51//4 50//4
f 31//3 53//3 50//3 11//3
f 17//4 12//4 55//4 54//4
f 9//3 11//3 14//3 10//3
f 5//4 8//4 13//4 12//4
f 50//3 81//3 84//3 51//3
f 55//4 56//4 83//4 82//4
f 14//3 51//3 58//3 32//3
f 13//4 24//4 57//4 56//4
f 33//3 59//3 54//3 17//3
f 37//4 40//4 66//4 65//4
f 15//3 17//3 12//3 5//3
f 54//3 85//3 82//3 55//3
f 1//3 5//3 8//3 2//3
f 82//3 93//3 96//3 83//3
f 8//3 13//3 24//3 20//3
f 56//3 83//3 90//3 57//3
f 24//3 57//3 64//3 35//3
f 41//4 44//4 70//4 69//4
f 34//4 18//4 61//4 60//4
f 38//3 68//3 67//3 39//3
f 16//4 6//4 19//4 18//4
f 61//4 75//4 87//4 86//4
f 4//4 3//4 7//4 6//4
f 87//4 88//4 95//4 94//4
f 7//4 21//4 23//4 22//4
f 76//4 62//4 89//4 88//4
f 23//4 36//4 63//4 62//4
f 42//3 72//3 71//3 43//3
f 18//3 61//3 75//3 19//3
f 45//4 27//4 74//4 73//4
f 6//3 19//3 22//3 7//3
f 26//4 25//4 28//4 27//4
f 75//3 87//3 88//3 76//3
f 74//4 77//4 92//4 91//4
f 22//3 76//3 62//3 23//3
f 28//4 46//4 78//4 77//4
f 27//3 74//3 77//3 28//3
f 48//4 47//4 80//4 79//4
f 33//5 97//5 98//5 59//5
f 17//6 54//6 99//6 100//6
f 97//5 34//5 101//5 37//5
f 100//6 40//6 102//6 18//6
f 38//5 101//5 60//5 103//5
f 39//6 104//6 61//6 102//6
f 65//5 68//5 103//5 98//5
f 66//6 99//6 104//6 67//6
f 15//5 16//5 18//5 17//5
f 31//5 17//5 54//5 53//5
f 18//5 45//5 73//5 61//5
f 54//5 61//5 86//5 85//5
f 5//6 12//6 19//6 6//6
f 11//6 50//6 55//6 12//6
f 19//6 75//6 74//6 27//6
f 55//6 82//6 87//6 75//6
f 1//5 4//5 6//5 5//5
f 9//5 5//5 12//5 11//5
f 6//5 26//5 27//5 19//5
f 29//5 11//5 50//5 49//5
f 27//5 48//5 79//5 74//5
f 50//5 55//5 82//5 81//5
f 75//5 74//5 91//5 87//5
f 82//5 87//5 94//5 93//5
f 2//6 8//6 7//6 3//6
f 10//6 14//6 13//6 8//6
f 7//6 22//6 28//6 25//6
f 30//6 52//6 51//6 14//6
f 28//6 77//6 80//6 47//6
f 51//6 84//6 83//6 56//6
f 76//6 88//6 92//6 77//6
f 83//6 96//6 95//6 88//6
f 8//5 7//5 22//5 13//5
f 14//5 13//5 56//5 51//5
f 22//5 28//5 77//5 76//5
f 56//5 76//5 88//5 83//5
f 20//6 24//6 23//6 21//6
f 32//6 58//6 57//6 24//6
f 23//6 62//6 78//6 46//6
f 57//6 90//6 89//6 62//6
f 24//5 105//5 106//5 57//5
f 35//6 64//6 107//6 108//6
f 105//5 23//5 109//5 41//5
f 108//6 44//6 110//6 36//6
f 42//5 109//5 62//5 111//5
f 43//6 112//6 63//6 110//6
f 69//5 72//5 111//5 106//5
f 70//6 107//6 112//6 71//6
usemtl lightningLantern1x1x4.vox_Material_254
f 143//1 144//1 145//1 146//1
f 147//1 148//1 149//1 150//1
f 165//1 133//1 166//1 167//1
f 141//1 168//1 169//1 170//1
f 171//1 172//1 154//1 173//1
f 174//1 175//1 176//1 164//1
f 177//1 178//1 179//1 180//1
f 181//1 182//1 183//1 184//1
f 185//1 186//1 187//1 188//1
f 189//1 190//1 191//1 192//1
f 193//2 194//2 195//2 196//2
f 197//2 198//2 199//2 200//2
f 201//2 202//2 203//2 204//2
f 205//2 206//2 207//2 208//2
f 209//2 210//2 211//2 212//2
f 213//2 214//2 215//2 216//2
f 217//2 218//2 219//2 220//2
f 221//2 222//2 223//2 224//2
f 239//2 240//2 241//2 242//2
f 243//2 244//2 245//2 246//2
f 177//3 193//3 196//3 178//3
f 181//3 197//3 200//3 182//3
f 165//3 180//3 179//3 133//3
f 194//3 209//3 212//3 195//3
f 141//3 184//3 183//3 168//3
f 198//3 213//3 216//3 199//3
f 143//3 167//3 166//3 144//3
f 210//3 239//3 242//3 211//3
f 147//3 170//3 169//3 148//3
f 214//3 243//3 246//3 215//3
f 146//4 145//4 172//4 171//4
f 217//4 220//4 241//4 240//4
f 150//4 149//4 175//4 174//4
f 221//4 224//4 245//4 244//4
f 173//4 154//4 186//4 185//4
f 201//4 204//4 219//4 218//4
f 164//4 176//4 190//4 189//4
f 205//4 208//4 223//4 222//4
f 188//4 187//4 203//4 202//4
f 192//4 191//4 207//4 206//4
f 143//5 146//5 171//5 167//5
f 144//6 166//6 172//6 145//6
f 165//5 167//5 273//5 180//5
f 133//6 179//6 274//6 166//6
f 171//5 173//5 185//5 281//5
f 172//6 284//6 186//6 154//6
f 177//5 180//5 194//5 193//5
f 178//6 196//6 195//6 179//6
f 282//5 287//5 288//5 289//5
f 283//6 290//6 291//6 292//6
f 185//5 188//5 202//5 201//5
f 186//6 204//6 203//6 187//6
f 277//5 276//5 297//5 298//5
f 278//6 299//6 300//6 279//6
f 294//5 301//5 302//5 303//5
f 295//6 304//6 305//6 306//6
f 194//5 285//5 210//5 209//5
f 195//6 212//6 211//6 286//6
f 307//5 201//5 218//5 217//5
f 308//6 220//6 219//6 204//6
f 210//5 217//5 240//5 239//5
f 211//6 242//6 241//6 220//6
f 147//5 150//5 174//5 170//5
f 148//6 169//6 175//6 149//6
f 141//5 170//5 313//5 184//5
f 168//6 183//6 314//6 169//6
f 174//5 164//5 189//5 321//5
f 175//6 324//6 190//6 176//6
f 181//5 184//5 198//5 197//5
f 182//6 200//6 199//6 183//6
f 322//5 327//5 328//5 329//5
f 323//6 330//6 331//6 332//6
f 189//5 192//5 206//5 205//5
f 190//6 208//6 207//6 191//6
f 317//5 316//5 337//5 338//5
f 318//6 339//6 340//6 319//6
f 334//5 341//5 342//5 343//5
f 335//6 344//6 345//6 346//6
f 198//5 325//5 214//5 213//5
f 199//6 216//6 215//6 326//6
f 347//5 205//5 222//5 221//5
f 348//6 224//6 223//6 208//6
f 214//5 221//5 244//5 243//5
f 215//6 246//6 245//6 224//6
usemtl lightningLantern1x1x4.vox_Material_255
f 113//1 114//1 115//1 116//1
f 117//2 118//2 119//2 120//2
f 121//1 122//1 123//1 124//1
f 125//2 126//2 127//2 128//2
f 129//1 118//1 130//1 131//1
f 132//2 133//2 134//2 135//2
f 119//1 136//1 137//1 138//1
f 139//2 140//2 141//2 142//2
f 151//1 152//1 125//1 153//1
f 154//2 155//2 156//2 157//2
f 158//1 159//1 160//1 128//1
f 161//2 162//2 163//2 164//2
f 225//1 226//1 227//1 212//1
f 228//2 229//2 230//2 231//2
f 232//1 233//1 213//1 234//1
f 235//2 236//2 237//2 238//2
f 219//1 247//1 248//1 249//1
f 250//2 251//2 252//2 253//2
f 254//1 222//1 255//1 256//1
f 257//2 258//2 259//2 260//2
f 261//1 262//1 235//1 231//1
f 263//2 264//2 265//2 266//2
f 252//1 258//1 267//1 268//1
f 269//2 270//2 271//2 272//2
f 113//3 117//3 120//3 114//3
f 116//4 115//4 119//4 118//4
f 261//3 263//3 266//3 262//3
f 231//4 235//4 265//4 264//4
f 129//3 132//3 135//3 118//3
f 131//4 130//4 134//4 133//4
f 225//3 228//3 231//3 226//3
f 212//4 227//4 230//4 229//4
f 119//3 139//3 142//3 136//3
f 138//4 137//4 141//4 140//4
f 232//3 235//3 238//3 233//3
f 234//4 213//4 237//4 236//4
f 151//3 154//3 157//3 152//3
f 153//4 125//4 156//4 155//4
f 219//3 250//3 253//3 247//3
f 249//4 248//4 252//4 251//4
f 158//3 161//3 164//3 159//3
f 128//4 160//4 163//4 162//4
f 254//3 257//3 260//3 222//3
f 256//4 255//4 259//4 258//4
f 121//3 125//3 128//3 122//3
f 124//4 123//4 127//4 126//4
f 252//3 269//3 272//3 258//3
f 268//4 267//4 271//4 270//4
f 167//5 275//5 276//5 277//5
f 166//6 278//6 279//6 280//6
f 275//5 171//5 281//5 282//5
f 280//6 283//6 284//6 172//6
f 180//5 273//5 285//5 194//5
f 179//6 195//6 286//6 274//6
f 287//5 185//5 293//5 294//5
f 292//6 295//6 296//6 186//6
f 301//5 293//5 201//5 307//5
f 306//6 308//6 204//6 296//6
f 298//5 297//5 309//5 210//5
f 299//6 211//6 310//6 300//6
f 303//5 302//5 217//5 311//5
f 304//6 312//6 220//6 305//6
f 289//5 288//5 311//5 309//5
f 290//6 310//6 312//6 291//6
f 129//5 131//5 133//5 132//5
f 151//5 153//5 155//5 154//5
f 225//5 212//5 229//5 228//5
f 219//5 249//5 251//5 250//5
f 118//6 135//6 134//6 130//6
f 152//6 157//6 156//6 125//6
f 226//6 231//6 230//6 227//6
f 247//6 253//6 252//6 248//6
f 113//5 116//5 118//5 117//5
f 121//5 124//5 126//5 125//5
f 261//5 231//5 264//5 263//5
f 252//5 268//5 270//5 269//5
f 114//6 120//6 119//6 115//6
f 122//6 128//6 127//6 123//6
f 262//6 266//6 265//6 235//6
f 258//6 272//6 271//6 267//6
f 119//5 138//5 140//5 139//5
f 158//5 128//5 162//5 161//5
f 232//5 234//5 236//5 235//5
f 254//5 256//5 258//5 257//5
f 136//6 142//6 141//6 137//6
f 159//6 164//6 163//6 160//6
f 233//6 238//6 237//6 213//6
f 222//6 260//6 259//6 255//6
f 170//5 315//5 316//5 317//5
f 169//6 318//6 319//6 320//6
f 315//5 174//5 321//5 322//5
f 320//6 323//6 324//6 175//6
f 184//5 313//5 325//5 198//5
f 183//6 199//6 326//6 314//6
f 327//5 189//5 333//5 334//5
f 332//6 335//6 336//6 190//6
f 341//5 333//5 205//5 347//5
f 346//6 348//6 208//6 336//6
f 338//5 337//5 349//5 214//5
f 339//6 215//6 350//6 340//6
f 343//5 342//5 221//5 351//5
f 344//6 352//6 224//6 345//6
f 329//5 328//5 351//5 349//5
f 330//6 350//6 352//6 331//6
