# Blender 3.6.7
# www.blender.org
mtllib torchTallMount1x1x3.mtl
o model_0
v 0.000000 0.063830 0.083333
v 0.000000 0.223404 0.083333
v 0.000000 0.223404 -0.083333
v 0.000000 0.063830 -0.083333
v 0.033333 0.063830 0.083333
v 0.033333 0.063830 -0.083333
v 0.033333 0.095745 -0.083333
v 0.033333 0.095745 0.083333
v 0.033333 0.095745 0.016667
v 0.033333 1.021277 0.016667
v 0.033333 1.021277 0.083333
v 0.000000 1.021277 0.083333
v 0.000000 1.021277 0.016667
v 0.000000 0.223404 0.016667
v 0.000000 0.031915 0.050000
v 0.000000 0.063830 0.050000
v 0.000000 0.063830 -0.050000
v 0.000000 0.031915 -0.050000
v 0.033333 0.031915 0.050000
v 0.033333 0.031915 -0.050000
v 0.033333 0.063830 -0.050000
v 0.033333 0.063830 0.050000
v 0.000000 1.021277 0.050000
v 0.000000 1.053192 0.050000
v 0.000000 1.053192 -0.050000
v 0.000000 1.021277 -0.050000
v 0.033333 1.021277 0.050000
v 0.033333 1.021277 -0.050000
v 0.033333 1.053192 -0.050000
v 0.033333 1.053192 0.050000
v 0.000000 0.000000 0.016667
v 0.000000 0.031915 0.016667
v 0.000000 0.031915 -0.016667
v 0.000000 0.000000 -0.016667
v 0.033333 0.000000 0.016667
v 0.033333 0.000000 -0.016667
v 0.033333 0.031915 -0.016667
v 0.033333 0.031915 0.016667
v 0.033333 0.127660 0.016667
v 0.033333 0.127660 -0.083333
v 0.033333 0.223404 -0.083333
v 0.033333 0.223404 0.016667
v 0.000000 0.255319 0.016667
v 0.000000 0.255319 -0.016667
v 0.000000 0.223404 -0.016667
v 0.033333 0.223404 -0.016667
v 0.033333 0.255319 -0.016667
v 0.033333 0.255319 0.016667
v 0.000000 0.542553 0.016667
v 0.000000 0.542553 -0.083333
v 0.000000 0.255319 -0.083333
v 0.033333 0.255319 -0.083333
v 0.033333 0.542553 -0.083333
v 0.033333 0.542553 0.016667
v 0.000000 0.574468 0.016667
v 0.000000 0.574468 -0.016667
v 0.000000 0.542553 -0.016667
v 0.033333 0.542553 -0.016667
v 0.033333 0.574468 -0.016667
v 0.033333 0.574468 0.016667
v 0.000000 0.861702 0.016667
v 0.000000 0.861702 -0.083333
v 0.000000 0.574468 -0.083333
v 0.033333 0.574468 -0.083333
v 0.033333 0.861702 -0.083333
v 0.033333 0.861702 0.016667
v 0.000000 0.893617 0.016667
v 0.000000 0.893617 -0.016667
v 0.000000 0.861702 -0.016667
v 0.033333 0.861702 -0.016667
v 0.033333 0.893617 -0.016667
v 0.033333 0.893617 0.016667
v 0.000000 1.021277 -0.083333
v 0.000000 0.893617 -0.083333
v 0.033333 0.893617 -0.083333
v 0.033333 0.957447 -0.083333
v 0.033333 0.957447 0.016667
v 0.033333 0.989362 0.016667
v 0.033333 0.989362 -0.083333
v 0.033333 1.021277 -0.083333
v 0.000000 1.053192 0.016667
v 0.000000 1.085107 0.016667
v 0.000000 1.085107 -0.016667
v 0.000000 1.053192 -0.016667
v 0.033333 1.053192 0.016667
v 0.033333 1.053192 -0.016667
v 0.033333 1.085107 -0.016667
v 0.033333 1.085107 0.016667
v 0.033333 0.095745 -0.016667
v 0.033333 0.127660 -0.016667
v 0.033333 0.957447 -0.016667
v 0.033333 0.989362 -0.016667
v 0.066667 0.095745 0.050000
v 0.066667 0.127660 0.050000
v 0.066667 0.127660 0.016667
v 0.066667 0.095745 0.016667
v 0.066667 0.095745 -0.016667
v 0.066667 0.127660 -0.016667
v 0.066667 0.127660 -0.050000
v 0.066667 0.095745 -0.050000
v 0.100000 0.957447 0.050000
v 0.100000 0.989362 0.050000
v 0.100000 0.989362 0.016667
v 0.100000 0.957447 0.016667
v 0.133333 0.957447 0.050000
v 0.133333 0.957447 -0.050000
v 0.133333 0.989362 -0.050000
v 0.133333 0.989362 0.050000
v 0.100000 0.957447 -0.016667
v 0.100000 0.989362 -0.016667
v 0.100000 0.989362 -0.050000
v 0.100000 0.957447 -0.050000
v 0.133333 0.957447 0.083333
v 0.133333 0.989362 0.083333
v 0.166667 0.095745 0.050000
v 0.166667 0.095745 -0.050000
v 0.166667 0.127660 -0.050000
v 0.166667 0.127660 0.050000
v 0.133333 0.989362 -0.083333
v 0.133333 0.957447 -0.083333
v 0.233333 0.957447 0.083333
v 0.233333 0.957447 0.050000
v 0.233333 0.989362 0.050000
v 0.233333 0.989362 0.083333
v 0.233333 0.957447 -0.050000
v 0.233333 0.957447 -0.083333
v 0.233333 0.989362 -0.083333
v 0.233333 0.989362 -0.050000
v 0.266667 0.957447 0.050000
v 0.266667 0.957447 -0.050000
v 0.266667 0.989362 -0.050000
v 0.266667 0.989362 0.050000
v 0.166667 0.095745 -0.016667
v 0.166667 0.095745 0.016667
v 0.166667 0.127660 0.016667
v 0.166667 0.127660 -0.016667
v 0.133333 0.957447 -0.016667
v 0.133333 0.957447 0.016667
v 0.133333 0.989362 0.016667
v 0.133333 0.989362 -0.016667
vn -1.0000 -0.0000 -0.0000
vn 1.0000 -0.0000 -0.0000
vn -0.0000 -0.0000 1.0000
vn -0.0000 -0.0000 -1.0000
vn -0.0000 -1.0000 -0.0000
vn -0.0000 1.0000 -0.0000
s 0
usemtl torchTallHandle1x1x3.vox_Material_230
f 14//1 43//1 44//1 45//1
f 42//2 46//2 47//2 48//2
f 49//1 55//1 56//1 57//1
f 54//2 58//2 59//2 60//2
f 61//1 67//1 68//1 69//1
f 66//2 70//2 71//2 72//2
usemtl torchTallHandle1x1x3.vox_Material_255
f 1//1 2//1 3//1 4//1
f 5//2 6//2 7//2 8//2
f 8//2 9//2 10//2 11//2
f 2//1 12//1 13//1 14//1
f 15//1 16//1 17//1 18//1
f 19//2 20//2 21//2 22//2
f 23//1 24//1 25//1 26//1
f 27//2 28//2 29//2 30//2
f 31//1 32//1 33//1 34//1
f 35//2 36//2 37//2 38//2
f 39//2 40//2 41//2 42//2
f 43//1 49//1 50//1 51//1
f 48//2 52//2 53//2 54//2
f 55//1 61//1 62//1 63//1
f 60//2 64//2 65//2 66//2
f 67//1 13//1 73//1 74//1
f 72//2 75//2 76//2 77//2
f 78//2 79//2 80//2 10//2
f 81//1 82//1 83//1 84//1
f 85//2 86//2 87//2 88//2
f 89//2 7//2 40//2 90//2
f 45//1 44//1 51//1 3//1
f 46//2 41//2 52//2 47//2
f 57//1 56//1 63//1 50//1
f 58//2 53//2 64//2 59//2
f 69//1 68//1 74//1 62//1
f 70//2 65//2 75//2 71//2
f 91//2 76//2 79//2 92//2
f 93//1 94//1 95//1 96//1
f 97//1 98//1 99//1 100//1
f 101//1 102//1 103//1 104//1
f 105//2 106//2 107//2 108//2
f 109//1 110//1 111//1 112//1
f 113//1 114//1 108//1 105//1
f 115//2 116//2 117//2 118//2
f 106//1 107//1 119//1 120//1
f 121//2 122//2 123//2 124//2
f 125//2 126//2 127//2 128//2
f 122//1 123//1 128//1 125//1
f 129//2 130//2 131//2 132//2
f 1//3 5//3 11//3 12//3
f 113//3 121//3 124//3 114//3
f 105//4 108//4 123//4 122//4
f 15//3 19//3 22//3 16//3
f 93//3 115//3 118//3 94//3
f 101//3 105//3 108//3 102//3
f 122//3 129//3 132//3 123//3
f 23//3 27//3 30//3 24//3
f 31//3 35//3 38//3 32//3
f 34//4 33//4 37//4 36//4
f 9//3 96//3 95//3 39//3
f 89//4 90//4 98//4 97//4
f 77//3 104//3 103//3 78//3
f 91//4 92//4 110//4 109//4
f 81//3 85//3 88//3 82//3
f 84//4 83//4 87//4 86//4
f 18//4 17//4 21//4 20//4
f 100//4 99//4 117//4 116//4
f 112//4 111//4 107//4 106//4
f 125//4 128//4 131//4 130//4
f 26//4 25//4 29//4 28//4
f 4//4 73//4 80//4 6//4
f 106//3 125//3 128//3 107//3
f 120//4 119//4 127//4 126//4
f 31//5 34//5 36//5 35//5
f 15//5 32//5 38//5 19//5
f 33//5 18//5 20//5 37//5
f 1//5 16//5 22//5 5//5
f 17//5 4//5 6//5 21//5
f 9//5 89//5 133//5 134//5
f 39//6 135//6 136//6 90//6
f 93//5 96//5 134//5 115//5
f 94//6 118//6 135//6 95//6
f 97//5 100//5 116//5 133//5
f 98//6 136//6 117//6 99//6
f 77//5 91//5 137//5 138//5
f 78//6 139//6 140//6 92//6
f 101//5 104//5 138//5 105//5
f 102//6 108//6 139//6 103//6
f 109//5 112//5 106//5 137//5
f 110//6 140//6 107//6 111//6
f 113//5 105//5 122//5 121//5
f 114//6 124//6 123//6 108//6
f 106//5 120//5 126//5 125//5
f 107//6 128//6 127//6 119//6
f 122//5 125//5 130//5 129//5
f 123//6 132//6 131//6 128//6
f 12//6 11//6 27//6 23//6
f 26//6 28//6 80//6 73//6
f 24//6 30//6 85//6 81//6
f 84//6 86//6 29//6 25//6
f 82//6 88//6 87//6 83//6
