# Blender 3.6.7
# www.blender.org
mtllib leftHand.mtl
o leftHand
v -0.112500 -0.225000 0.037500
v -0.112500 -0.225000 0.112500
v -0.112500 -0.150000 0.112500
v -0.112500 -0.150000 0.037500
v -0.037500 -0.225000 0.112500
v -0.037500 -0.150000 0.112500
v -0.037500 -0.225000 0.037500
v -0.112500 -0.075000 0.112500
v -0.112500 -0.075000 0.037500
v -0.037500 -0.075000 0.112500
v -0.112500 0.000000 0.112500
v -0.112500 0.000000 0.037500
v -0.037500 0.000000 0.112500
v -0.037500 0.000000 0.037500
v -0.112500 -0.225000 -0.037500
v -0.112500 -0.150000 -0.037500
v -0.037500 -0.225000 -0.037500
v -0.112500 -0.075000 -0.037500
v -0.112500 0.000000 -0.037500
v -0.037500 0.000000 -0.037500
v -0.112500 -0.225000 -0.112500
v -0.112500 -0.150000 -0.112500
v -0.037500 -0.225000 -0.112500
v -0.037500 -0.150000 -0.112500
v -0.112500 -0.075000 -0.112500
v -0.037500 -0.075000 -0.112500
v -0.112500 0.000000 -0.112500
v -0.037500 0.000000 -0.112500
v 0.037500 -0.225000 0.112500
v 0.037500 -0.150000 0.112500
v 0.037500 -0.225000 0.037500
v 0.037500 -0.075000 0.112500
v 0.037500 0.000000 0.112500
v 0.037500 0.000000 0.037500
v 0.037500 -0.225000 -0.037500
v 0.037500 0.000000 -0.037500
v 0.037500 -0.225000 -0.112500
v 0.037500 -0.150000 -0.112500
v 0.037500 -0.075000 -0.112500
v 0.037500 0.000000 -0.112500
v 0.112500 -0.225000 0.112500
v 0.112500 -0.225000 0.037500
v 0.112500 -0.150000 0.037500
v 0.112500 -0.150000 0.112500
v 0.112500 -0.075000 0.037500
v 0.112500 -0.075000 0.112500
v 0.112500 0.000000 0.037500
v 0.112500 0.000000 0.112500
v 0.037500 0.075000 0.112500
v 0.037500 0.075000 0.037500
v 0.112500 0.075000 0.037500
v 0.112500 0.075000 0.112500
v 0.112500 -0.225000 -0.037500
v 0.112500 -0.150000 -0.037500
v 0.112500 -0.075000 -0.037500
v 0.112500 0.000000 -0.037500
v 0.112500 -0.225000 -0.112500
v 0.112500 -0.150000 -0.112500
v 0.112500 -0.075000 -0.112500
v 0.112500 0.000000 -0.112500
v 0.037500 0.075000 -0.037500
v 0.037500 0.075000 -0.112500
v 0.112500 0.075000 -0.112500
v 0.112500 0.075000 -0.037500
vn -1.0000 -0.0000 -0.0000
vn -0.0000 -0.0000 1.0000
vn -0.0000 -1.0000 -0.0000
vn -0.0000 1.0000 -0.0000
vn -0.0000 -0.0000 -1.0000
vn 1.0000 -0.0000 -0.0000
s 0
usemtl playerSolomon.vox_Material_239.001
f 43//6 54//6 55//6 45//6
usemtl playerSolomon.vox_Material_246.001
f 6//2 30//2 32//2 10//2
f 38//5 24//5 26//5 39//5
usemtl playerSolomon.vox_Material_254.001
f 1//1 2//1 3//1 4//1
f 2//2 5//2 6//2 3//2
f 1//3 7//3 5//3 2//3
f 4//1 3//1 8//1 9//1
f 3//2 6//2 10//2 8//2
f 9//1 8//1 11//1 12//1
f 8//2 10//2 13//2 11//2
f 11//4 13//4 14//4 12//4
f 15//1 1//1 4//1 16//1
f 15//3 17//3 7//3 1//3
f 16//1 4//1 9//1 18//1
f 18//1 9//1 12//1 19//1
f 12//4 14//4 20//4 19//4
f 21//1 15//1 16//1 22//1
f 23//5 21//5 22//5 24//5
f 21//3 23//3 17//3 15//3
f 22//1 16//1 18//1 25//1
f 24//5 22//5 25//5 26//5
f 25//1 18//1 19//1 27//1
f 26//5 25//5 27//5 28//5
f 19//4 20//4 28//4 27//4
f 5//2 29//2 30//2 6//2
f 7//3 31//3 29//3 5//3
f 10//2 32//2 33//2 13//2
f 13//4 33//4 34//4 14//4
f 17//3 35//3 31//3 7//3
f 14//4 34//4 36//4 20//4
f 37//5 23//5 24//5 38//5
f 23//3 37//3 35//3 17//3
f 39//5 26//5 28//5 40//5
f 20//4 36//4 40//4 28//4
f 45//6 55//6 56//6 47//6
f 34//4 47//4 56//4 36//4
usemtl playerSolomon.vox_Material_255.001
f 41//6 42//6 43//6 44//6
f 29//2 41//2 44//2 30//2
f 31//3 42//3 41//3 29//3
f 44//6 43//6 45//6 46//6
f 30//2 44//2 46//2 32//2
f 46//6 45//6 47//6 48//6
f 32//2 46//2 48//2 33//2
f 34//1 33//1 49//1 50//1
f 48//6 47//6 51//6 52//6
f 33//2 48//2 52//2 49//2
f 47//5 34//5 50//5 51//5
f 49//4 52//4 51//4 50//4
f 42//6 53//6 54//6 43//6
f 35//3 53//3 42//3 31//3
f 53//6 57//6 58//6 54//6
f 57//5 37//5 38//5 58//5
f 37//3 57//3 53//3 35//3
f 54//6 58//6 59//6 55//6
f 58//5 38//5 39//5 59//5
f 55//6 59//6 60//6 56//6
f 59//5 39//5 40//5 60//5
f 40//1 36//1 61//1 62//1
f 56//6 60//6 63//6 64//6
f 36//2 56//2 64//2 61//2
f 60//5 40//5 62//5 63//5
f 61//4 64//4 63//4 62//4
