# Blender 3.6.7
# www.blender.org
mtllib leftLeg.mtl
o leftLeg
v -0.112500 0.000000 -0.037500
v -0.112500 0.000000 0.037500
v -0.112500 0.075000 0.037500
v -0.112500 0.075000 -0.037500
v -0.037500 0.000000 0.037500
v -0.037500 0.075000 0.037500
v -0.037500 0.000000 -0.037500
v -0.112500 0.150000 0.037500
v -0.112500 0.150000 -0.037500
v -0.037500 0.150000 0.037500
v -0.112500 0.225000 0.037500
v -0.112500 0.225000 -0.037500
v -0.037500 0.225000 0.037500
v -0.112500 0.300000 0.037500
v -0.112500 0.300000 -0.037500
v -0.037500 0.225000 -0.037500
v -0.037500 0.300000 -0.037500
v -0.037500 0.300000 0.037500
v -0.112500 0.000000 -0.112500
v -0.112500 0.075000 -0.112500
v -0.037500 0.000000 -0.112500
v -0.037500 0.075000 -0.112500
v -0.112500 0.150000 -0.112500
v -0.037500 0.150000 -0.112500
v -0.112500 0.225000 -0.112500
v -0.037500 0.225000 -0.112500
v -0.112500 0.300000 -0.112500
v -0.037500 0.300000 -0.112500
v -0.037500 0.225000 0.112500
v -0.037500 0.300000 0.112500
v 0.037500 0.225000 0.112500
v 0.037500 0.300000 0.112500
v 0.037500 0.225000 0.037500
v 0.037500 0.300000 0.037500
v -0.037500 0.375000 0.112500
v -0.037500 0.375000 0.037500
v 0.037500 0.375000 0.112500
v 0.037500 0.375000 0.037500
v 0.037500 0.000000 0.037500
v 0.037500 0.075000 0.037500
v 0.037500 0.000000 -0.037500
v 0.037500 0.150000 0.037500
v 0.037500 0.225000 -0.037500
v 0.037500 0.000000 -0.112500
v 0.037500 0.075000 -0.112500
v 0.037500 0.150000 -0.112500
v 0.037500 0.225000 -0.112500
v 0.112500 0.225000 0.112500
v 0.112500 0.225000 0.037500
v 0.112500 0.300000 0.037500
v 0.112500 0.300000 0.112500
v 0.112500 0.375000 0.037500
v 0.112500 0.375000 0.112500
v 0.112500 0.000000 0.037500
v 0.112500 0.000000 -0.037500
v 0.112500 0.075000 -0.037500
v 0.112500 0.075000 0.037500
v 0.112500 0.150000 -0.037500
v 0.112500 0.150000 0.037500
v 0.112500 0.225000 -0.037500
v 0.037500 0.300000 -0.037500
v 0.112500 0.300000 -0.037500
v 0.112500 0.000000 -0.112500
v 0.112500 0.075000 -0.112500
v 0.112500 0.150000 -0.112500
v 0.112500 0.225000 -0.112500
v 0.037500 0.300000 -0.112500
v 0.112500 0.300000 -0.112500
vn -1.0000 -0.0000 -0.0000
vn -0.0000 -0.0000 1.0000
vn -0.0000 -1.0000 -0.0000
vn 1.0000 -0.0000 -0.0000
vn -0.0000 1.0000 -0.0000
vn -0.0000 -0.0000 -1.0000
s 0
usemtl playerSolomon.vox_Material_246.001
f 19//1 1//1 4//1 20//1
f 21//6 19//6 20//6 22//6
f 19//3 21//3 7//3 1//3
f 44//6 21//6 22//6 45//6
f 21//3 44//3 41//3 7//3
f 55//4 63//4 64//4 56//4
f 63//6 44//6 45//6 64//6
f 44//3 63//3 55//3 41//3
usemtl playerSolomon.vox_Material_253.001
f 12//1 11//1 14//1 15//1
f 13//4 16//4 17//4 18//4
f 11//2 13//2 18//2 14//2
f 14//5 18//5 17//5 15//5
f 25//1 12//1 15//1 27//1
f 16//4 26//4 28//4 17//4
f 26//6 25//6 27//6 28//6
f 15//5 17//5 28//5 27//5
f 13//1 29//1 30//1 18//1
f 29//2 31//2 32//2 30//2
f 33//6 13//6 18//6 34//6
f 13//3 33//3 31//3 29//3
f 18//1 30//1 35//1 36//1
f 30//2 32//2 37//2 35//2
f 34//6 18//6 36//6 38//6
f 35//5 37//5 38//5 36//5
f 48//4 49//4 50//4 51//4
f 31//2 48//2 51//2 32//2
f 33//3 49//3 48//3 31//3
f 51//4 50//4 52//4 53//4
f 32//2 51//2 53//2 37//2
f 50//6 34//6 38//6 52//6
f 37//5 53//5 52//5 38//5
f 43//1 33//1 34//1 61//1
f 49//4 60//4 62//4 50//4
f 34//5 50//5 62//5 61//5
f 47//1 43//1 61//1 67//1
f 60//4 66//4 68//4 62//4
f 66//6 47//6 67//6 68//6
f 61//5 62//5 68//5 67//5
usemtl playerSolomon.vox_Material_255.001
f 1//1 2//1 3//1 4//1
f 2//2 5//2 6//2 3//2
f 1//3 7//3 5//3 2//3
f 4//1 3//1 8//1 9//1
f 3//2 6//2 10//2 8//2
f 9//1 8//1 11//1 12//1
f 8//2 10//2 13//2 11//2
f 20//1 4//1 9//1 23//1
f 22//6 20//6 23//6 24//6
f 23//1 9//1 12//1 25//1
f 24//6 23//6 25//6 26//6
f 5//2 39//2 40//2 6//2
f 7//3 41//3 39//3 5//3
f 6//2 40//2 42//2 10//2
f 10//2 42//2 33//2 13//2
f 13//5 33//5 43//5 16//5
f 45//6 22//6 24//6 46//6
f 46//6 24//6 26//6 47//6
f 16//5 43//5 47//5 26//5
f 54//4 55//4 56//4 57//4
f 39//2 54//2 57//2 40//2
f 41//3 55//3 54//3 39//3
f 57//4 56//4 58//4 59//4
f 40//2 57//2 59//2 42//2
f 59//4 58//4 60//4 49//4
f 42//2 59//2 49//2 33//2
f 56//4 64//4 65//4 58//4
f 64//6 45//6 46//6 65//6
f 58//4 65//4 66//4 60//4
f 65//6 46//6 47//6 66//6
