# Blender 3.6.7
# www.blender.org
mtllib rightShoulder.mtl
o rightShoulder
v -0.225000 0.037500 0.037500
v -0.225000 0.037500 0.112500
v -0.225000 0.112500 0.112500
v -0.225000 0.112500 0.037500
v -0.150000 0.037500 0.112500
v -0.150000 0.037500 0.037500
v -0.150000 0.112500 0.037500
v -0.150000 0.112500 0.112500
v -0.225000 0.187500 0.112500
v -0.225000 0.187500 0.037500
v -0.150000 0.187500 0.037500
v -0.150000 0.187500 0.112500
v -0.225000 -0.037500 -0.037500
v -0.225000 -0.037500 0.037500
v -0.225000 0.037500 -0.037500
v -0.150000 -0.037500 0.037500
v -0.150000 -0.037500 -0.037500
v -0.150000 0.037500 -0.037500
v -0.225000 0.112500 -0.037500
v -0.150000 0.112500 -0.037500
v -0.225000 0.037500 -0.112500
v -0.225000 0.112500 -0.112500
v -0.150000 0.037500 -0.112500
v -0.150000 0.112500 -0.112500
v -0.225000 0.187500 -0.037500
v -0.225000 0.187500 -0.112500
v -0.150000 0.187500 -0.112500
v -0.150000 0.187500 -0.037500
v -0.150000 -0.112500 0.037500
v -0.150000 -0.112500 0.112500
v -0.150000 -0.037500 0.112500
v -0.075000 -0.112500 0.112500
v -0.075000 -0.112500 0.037500
v -0.075000 -0.037500 0.037500
v -0.075000 -0.037500 0.112500
v -0.075000 0.037500 0.112500
v -0.075000 0.037500 0.037500
v -0.150000 -0.112500 -0.037500
v -0.075000 -0.112500 -0.037500
v -0.075000 0.112500 0.037500
v -0.075000 0.037500 -0.037500
v -0.075000 0.112500 -0.037500
v -0.150000 -0.112500 -0.112500
v -0.150000 -0.037500 -0.112500
v -0.075000 -0.112500 -0.112500
v -0.075000 -0.037500 -0.112500
v -0.075000 -0.037500 -0.037500
v -0.075000 0.037500 -0.112500
v 0.000000 -0.037500 0.112500
v 0.000000 -0.037500 0.037500
v 0.000000 0.037500 0.037500
v 0.000000 0.037500 0.112500
v -0.075000 0.112500 0.112500
v 0.000000 0.112500 0.037500
v 0.000000 0.112500 0.112500
v 0.000000 -0.112500 0.037500
v 0.000000 -0.112500 -0.037500
v 0.000000 -0.037500 -0.037500
v 0.000000 0.037500 -0.037500
v 0.000000 0.112500 -0.037500
v 0.000000 -0.037500 -0.112500
v 0.000000 0.037500 -0.112500
v -0.075000 0.112500 -0.112500
v 0.000000 0.112500 -0.112500
vn -1.0000 -0.0000 -0.0000
vn 1.0000 -0.0000 -0.0000
vn -0.0000 -0.0000 1.0000
vn -0.0000 -1.0000 -0.0000
vn -0.0000 -0.0000 -1.0000
vn -0.0000 1.0000 -0.0000
s 0
usemtl playerSolomon.vox_Material_239.001
f 15//1 1//1 4//1 19//1
f 4//6 7//6 20//6 19//6
usemtl playerSolomon.vox_Material_253.001
f 1//1 2//1 3//1 4//1
f 5//2 6//2 7//2 8//2
f 2//3 5//3 8//3 3//3
f 1//4 6//4 5//4 2//4
f 4//1 3//1 9//1 10//1
f 8//2 7//2 11//2 12//2
f 3//3 8//3 12//3 9//3
f 7//5 4//5 10//5 11//5
f 9//6 12//6 11//6 10//6
f 13//1 14//1 1//1 15//1
f 14//3 16//3 6//3 1//3
f 17//5 13//5 15//5 18//5
f 13//4 17//4 16//4 14//4
f 21//1 15//1 19//1 22//1
f 18//2 23//2 24//2 20//2
f 23//5 21//5 22//5 24//5
f 21//4 23//4 18//4 15//4
f 22//1 19//1 25//1 26//1
f 20//2 24//2 27//2 28//2
f 19//3 20//3 28//3 25//3
f 24//5 22//5 26//5 27//5
f 25//6 28//6 27//6 26//6
f 6//3 37//3 40//3 7//3
f 41//5 18//5 20//5 42//5
f 7//6 40//6 42//6 20//6
f 51//2 59//2 60//2 54//2
f 40//6 54//6 60//6 42//6
usemtl playerSolomon.vox_Material_255.001
f 29//1 30//1 31//1 16//1
f 32//2 33//2 34//2 35//2
f 30//3 32//3 35//3 31//3
f 29//4 33//4 32//4 30//4
f 16//1 31//1 5//1 6//1
f 31//3 35//3 36//3 5//3
f 5//6 36//6 37//6 6//6
f 38//1 29//1 16//1 17//1
f 38//4 39//4 33//4 29//4
f 43//1 38//1 17//1 44//1
f 39//2 45//2 46//2 47//2
f 45//5 43//5 44//5 46//5
f 43//4 45//4 39//4 38//4
f 44//1 17//1 18//1 23//1
f 46//5 44//5 23//5 48//5
f 18//6 41//6 48//6 23//6
f 49//2 50//2 51//2 52//2
f 35//3 49//3 52//3 36//3
f 34//4 50//4 49//4 35//4
f 37//1 36//1 53//1 40//1
f 52//2 51//2 54//2 55//2
f 36//3 52//3 55//3 53//3
f 53//6 55//6 54//6 40//6
f 56//2 57//2 58//2 50//2
f 33//3 56//3 50//3 34//3
f 57//5 39//5 47//5 58//5
f 39//4 57//4 56//4 33//4
f 50//2 58//2 59//2 51//2
f 58//2 61//2 62//2 59//2
f 61//5 46//5 48//5 62//5
f 46//4 61//4 58//4 47//4
f 48//1 41//1 42//1 63//1
f 59//2 62//2 64//2 60//2
f 62//5 48//5 63//5 64//5
f 42//6 60//6 64//6 63//6
