# Blender 3.6.7
# www.blender.org
mtllib rightFoot.mtl
o rightFoot
v -0.112500 0.000000 0.112500
v -0.112500 0.000000 0.187500
v -0.112500 0.075000 0.187500
v -0.112500 0.075000 0.112500
v -0.037500 0.000000 0.187500
v -0.037500 0.075000 0.187500
v -0.037500 0.000000 0.112500
v -0.037500 0.075000 0.112500
v -0.112500 0.000000 0.037500
v -0.112500 0.075000 0.037500
v -0.037500 0.000000 0.037500
v -0.112500 0.150000 0.112500
v -0.112500 0.150000 0.037500
v -0.037500 0.150000 0.112500
v -0.037500 0.150000 0.037500
v -0.112500 0.000000 -0.037500
v -0.112500 0.075000 -0.037500
v -0.037500 0.000000 -0.037500
v -0.112500 0.150000 -0.037500
v -0.037500 0.150000 -0.037500
v -0.112500 0.000000 -0.112500
v -0.112500 0.075000 -0.112500
v -0.037500 0.000000 -0.112500
v -0.037500 0.075000 -0.112500
v -0.112500 0.150000 -0.112500
v -0.037500 0.150000 -0.112500
v 0.037500 0.000000 0.187500
v 0.037500 0.075000 0.187500
v 0.037500 0.000000 0.112500
v 0.037500 0.075000 0.112500
v 0.037500 0.000000 0.037500
v 0.037500 0.075000 0.037500
v 0.037500 0.150000 0.037500
v 0.037500 0.150000 0.112500
v 0.037500 0.000000 -0.037500
v 0.037500 0.150000 -0.037500
v 0.037500 0.000000 -0.112500
v 0.037500 0.075000 -0.112500
v 0.037500 0.150000 -0.112500
v 0.112500 0.000000 0.187500
v 0.112500 0.000000 0.112500
v 0.112500 0.075000 0.112500
v 0.112500 0.075000 0.187500
v 0.112500 0.000000 0.037500
v 0.112500 0.075000 0.037500
v 0.112500 0.000000 -0.037500
v 0.112500 0.075000 -0.037500
v 0.112500 0.150000 -0.037500
v 0.112500 0.150000 0.037500
v 0.112500 0.000000 -0.112500
v 0.112500 0.075000 -0.112500
v 0.112500 0.150000 -0.112500
vn -1.0000 -0.0000 -0.0000
vn -0.0000 -0.0000 1.0000
vn -0.0000 -1.0000 -0.0000
vn -0.0000 1.0000 -0.0000
vn -0.0000 -0.0000 -1.0000
vn 1.0000 -0.0000 -0.0000
s 0
usemtl playerSolomon.vox_Material_246.001
f 10//1 4//1 12//1 13//1
f 4//2 8//2 14//2 12//2
f 12//4 14//4 15//4 13//4
f 16//1 9//1 10//1 17//1
f 16//3 18//3 11//3 9//3
f 17//1 10//1 13//1 19//1
f 13//4 15//4 20//4 19//4
f 30//6 32//6 33//6 34//6
f 8//2 30//2 34//2 14//2
f 14//4 34//4 33//4 15//4
f 18//3 35//3 31//3 11//3
f 15//4 33//4 36//4 20//4
f 44//6 46//6 47//6 45//6
f 35//3 46//3 44//3 31//3
f 45//6 47//6 48//6 49//6
f 32//2 45//2 49//2 33//2
f 33//4 49//4 48//4 36//4
usemtl playerSolomon.vox_Material_255.001
f 1//1 2//1 3//1 4//1
f 2//2 5//2 6//2 3//2
f 1//3 7//3 5//3 2//3
f 3//4 6//4 8//4 4//4
f 9//1 1//1 4//1 10//1
f 9//3 11//3 7//3 1//3
f 21//1 16//1 17//1 22//1
f 23//5 21//5 22//5 24//5
f 21//3 23//3 18//3 16//3
f 22//1 17//1 19//1 25//1
f 24//5 22//5 25//5 26//5
f 19//4 20//4 26//4 25//4
f 5//2 27//2 28//2 6//2
f 7//3 29//3 27//3 5//3
f 6//4 28//4 30//4 8//4
f 11//3 31//3 29//3 7//3
f 37//5 23//5 24//5 38//5
f 23//3 37//3 35//3 18//3
f 38//5 24//5 26//5 39//5
f 20//4 36//4 39//4 26//4
f 40//6 41//6 42//6 43//6
f 27//2 40//2 43//2 28//2
f 29//3 41//3 40//3 27//3
f 28//4 43//4 42//4 30//4
f 41//6 44//6 45//6 42//6
f 31//3 44//3 41//3 29//3
f 30//4 42//4 45//4 32//4
f 46//6 50//6 51//6 47//6
f 50//5 37//5 38//5 51//5
f 37//3 50//3 46//3 35//3
f 47//6 51//6 52//6 48//6
f 51//5 38//5 39//5 52//5
f 36//4 48//4 52//4 39//4
