# Blender 3.6.7
# www.blender.org
mtllib head.mtl
o head
v -0.187500 0.000000 0.075000
v -0.187500 0.000000 0.150000
v -0.187500 0.075000 0.150000
v -0.187500 0.075000 0.075000
v -0.112500 0.000000 0.150000
v -0.112500 0.075000 0.150000
v -0.112500 0.000000 0.075000
v -0.112500 0.075000 0.075000
v -0.187500 0.075000 0.000000
v -0.187500 0.150000 0.075000
v -0.187500 0.150000 0.000000
v -0.112500 0.150000 0.075000
v -0.112500 0.075000 0.000000
v -0.112500 0.150000 0.000000
v -0.112500 -0.075000 0.150000
v -0.112500 -0.075000 0.225000
v -0.112500 0.000000 0.225000
v -0.037500 -0.075000 0.225000
v -0.037500 -0.075000 0.150000
v -0.037500 0.000000 0.150000
v -0.037500 0.000000 0.225000
v -0.112500 0.075000 0.225000
v -0.037500 0.075000 0.225000
v -0.112500 0.150000 0.225000
v -0.112500 0.150000 0.150000
v -0.037500 0.150000 0.225000
v -0.037500 0.150000 0.150000
v -0.037500 0.000000 0.075000
v -0.112500 0.225000 0.150000
v -0.112500 0.225000 0.075000
v -0.037500 0.225000 0.150000
v -0.037500 0.225000 0.075000
v -0.112500 0.000000 0.000000
v -0.037500 0.000000 0.000000
v -0.037500 0.075000 0.000000
v -0.037500 0.150000 0.000000
v -0.112500 0.225000 0.000000
v -0.037500 0.225000 0.000000
v -0.112500 0.150000 -0.075000
v -0.112500 0.225000 -0.075000
v -0.037500 0.150000 -0.075000
v -0.037500 0.225000 -0.075000
v 0.037500 0.000000 0.225000
v 0.037500 0.075000 0.225000
v 0.037500 0.000000 0.150000
v 0.037500 0.150000 0.225000
v -0.037500 0.225000 0.225000
v 0.037500 0.150000 0.150000
v 0.037500 0.225000 0.150000
v 0.037500 0.225000 0.225000
v -0.037500 -0.075000 0.075000
v 0.037500 -0.075000 0.150000
v 0.037500 -0.075000 0.075000
v 0.037500 0.000000 0.075000
v -0.037500 0.300000 0.150000
v -0.037500 0.300000 0.075000
v 0.037500 0.225000 0.075000
v 0.037500 0.300000 0.075000
v 0.037500 0.300000 0.150000
v 0.037500 0.000000 0.000000
v 0.037500 0.075000 0.000000
v -0.037500 0.300000 0.000000
v 0.037500 0.225000 0.000000
v 0.037500 0.300000 0.000000
v -0.037500 0.075000 -0.075000
v 0.037500 0.075000 -0.075000
v 0.037500 0.150000 -0.075000
v 0.037500 0.150000 0.000000
v -0.037500 0.300000 -0.075000
v 0.037500 0.225000 -0.075000
v 0.037500 0.300000 -0.075000
v -0.037500 0.150000 -0.150000
v -0.037500 0.225000 -0.150000
v 0.037500 0.150000 -0.150000
v 0.037500 0.225000 -0.150000
v 0.037500 -0.075000 0.225000
v 0.112500 -0.075000 0.225000
v 0.112500 -0.075000 0.150000
v 0.112500 0.000000 0.150000
v 0.112500 0.000000 0.225000
v 0.112500 0.075000 0.150000
v 0.112500 0.075000 0.225000
v 0.112500 0.150000 0.150000
v 0.112500 0.150000 0.225000
v 0.112500 0.000000 0.075000
v 0.112500 0.075000 0.075000
v 0.112500 0.150000 0.075000
v 0.112500 0.225000 0.075000
v 0.112500 0.225000 0.150000
v 0.112500 0.000000 0.000000
v 0.112500 0.075000 0.000000
v 0.112500 0.150000 0.000000
v 0.112500 0.225000 0.000000
v 0.112500 0.150000 -0.075000
v 0.112500 0.225000 -0.075000
v 0.187500 0.000000 0.150000
v 0.187500 0.000000 0.075000
v 0.187500 0.075000 0.075000
v 0.187500 0.075000 0.150000
v 0.187500 0.075000 0.000000
v 0.187500 0.150000 0.000000
v 0.187500 0.150000 0.075000
vn -1.0000 -0.0000 -0.0000
vn -0.0000 -0.0000 1.0000
vn -0.0000 -0.0000 -1.0000
vn -0.0000 -1.0000 -0.0000
vn -0.0000 1.0000 -0.0000
vn 1.0000 -0.0000 -0.0000
s 0
usemtl enemyVahki.vox_Material_224
f 8//1 6//1 25//1 12//1
f 81//6 86//6 87//6 83//6
usemtl enemyVahki.vox_Material_246
f 51//1 19//1 20//1 28//1
f 52//6 53//6 54//6 45//6
f 19//2 52//2 45//2 20//2
f 53//3 51//3 28//3 54//3
f 51//4 53//4 52//4 19//4
f 60//3 34//3 35//3 61//3
f 34//4 60//4 54//4 28//4
f 65//1 35//1 36//1 41//1
f 61//6 66//6 67//6 68//6
f 66//3 65//3 41//3 67//3
f 65//4 66//4 61//4 35//4
usemtl enemyVahki.vox_Material_253
f 23//2 44//2 46//2 26//2
f 32//1 31//1 55//1 56//1
f 49//6 57//6 58//6 59//6
f 31//2 49//2 59//2 55//2
f 55//5 59//5 58//5 56//5
f 42//1 38//1 62//1 69//1
f 63//6 70//6 71//6 64//6
f 70//3 42//3 69//3 71//3
f 62//5 64//5 71//5 69//5
f 72//1 41//1 42//1 73//1
f 67//6 74//6 75//6 70//6
f 74//3 72//3 73//3 75//3
f 72//4 74//4 67//4 41//4
f 42//5 70//5 75//5 73//5
usemtl enemyVahki.vox_Material_254
f 1//1 2//1 3//1 4//1
f 2//2 5//2 6//2 3//2
f 7//3 1//3 4//3 8//3
f 1//4 7//4 5//4 2//4
f 3//5 6//5 8//5 4//5
f 9//1 4//1 10//1 11//1
f 4//2 8//2 12//2 10//2
f 13//3 9//3 11//3 14//3
f 9//4 13//4 8//4 4//4
f 10//5 12//5 14//5 11//5
f 15//1 16//1 17//1 5//1
f 18//6 19//6 20//6 21//6
f 16//2 18//2 21//2 17//2
f 19//3 15//3 5//3 20//3
f 15//4 19//4 18//4 16//4
f 5//1 17//1 22//1 6//1
f 17//2 21//2 23//2 22//2
f 6//1 22//1 24//1 25//1
f 22//2 23//2 26//2 24//2
f 24//5 26//5 27//5 25//5
f 7//4 28//4 20//4 5//4
f 12//1 25//1 29//1 30//1
f 25//2 27//2 31//2 29//2
f 29//5 31//5 32//5 30//5
f 33//1 7//1 8//1 13//1
f 34//3 33//3 13//3 35//3
f 33//4 34//4 28//4 7//4
f 35//3 13//3 14//3 36//3
f 14//1 12//1 30//1 37//1
f 30//5 32//5 38//5 37//5
f 39//1 14//1 37//1 40//1
f 41//3 39//3 40//3 42//3
f 39//4 41//4 36//4 14//4
f 37//5 38//5 42//5 40//5
f 21//2 43//2 44//2 23//2
f 20//4 45//4 43//4 21//4
f 52//1 76//1 43//1 45//1
f 77//6 78//6 79//6 80//6
f 76//2 77//2 80//2 43//2
f 78//3 52//3 45//3 79//3
f 52//4 78//4 77//4 76//4
f 80//6 79//6 81//6 82//6
f 43//2 80//2 82//2 44//2
f 82//6 81//6 83//6 84//6
f 44//2 82//2 84//2 46//2
f 46//5 84//5 83//5 48//5
f 54//4 85//4 79//4 45//4
f 83//6 87//6 88//6 89//6
f 48//2 83//2 89//2 49//2
f 49//5 89//5 88//5 57//5
f 85//6 90//6 91//6 86//6
f 90//3 60//3 61//3 91//3
f 60//4 90//4 85//4 54//4
f 91//3 61//3 68//3 92//3
f 87//6 92//6 93//6 88//6
f 57//5 88//5 93//5 63//5
f 92//6 94//6 95//6 93//6
f 94//3 67//3 70//3 95//3
f 67//4 94//4 92//4 68//4
f 63//5 93//5 95//5 70//5
f 96//6 97//6 98//6 99//6
f 79//2 96//2 99//2 81//2
f 97//3 85//3 86//3 98//3
f 85//4 97//4 96//4 79//4
f 81//5 99//5 98//5 86//5
f 98//6 100//6 101//6 102//6
f 86//2 98//2 102//2 87//2
f 100//3 91//3 92//3 101//3
f 91//4 100//4 98//4 86//4
f 87//5 102//5 101//5 92//5
usemtl enemyVahki.vox_Material_255
f 27//1 26//1 47//1 31//1
f 46//6 48//6 49//6 50//6
f 26//2 46//2 50//2 47//2
f 47//5 50//5 49//5 31//5
f 38//1 32//1 56//1 62//1
f 57//6 63//6 64//6 58//6
f 56//5 58//5 64//5 62//5
