# Blender 3.6.7
# www.blender.org
mtllib leftFoot.mtl
o leftFoot
v -0.075000 0.000000 0.262500
v -0.075000 0.000000 0.337500
v -0.075000 0.075000 0.337500
v -0.075000 0.075000 0.262500
v 0.000000 0.000000 0.337500
v 0.000000 0.000000 0.262500
v 0.000000 0.075000 0.262500
v 0.000000 0.075000 0.337500
v -0.075000 0.000000 0.187500
v -0.075000 0.075000 0.187500
v 0.000000 0.000000 0.187500
v 0.000000 0.075000 0.187500
v -0.075000 0.075000 0.037500
v -0.075000 0.075000 0.112500
v -0.075000 0.150000 0.112500
v -0.075000 0.150000 0.037500
v 0.000000 0.075000 0.112500
v 0.000000 0.075000 0.037500
v 0.000000 0.150000 0.037500
v 0.000000 0.150000 0.112500
v -0.075000 0.000000 -0.037500
v -0.075000 0.000000 0.037500
v -0.075000 0.075000 -0.037500
v 0.000000 0.000000 0.037500
v 0.000000 0.000000 -0.037500
v 0.000000 0.075000 -0.037500
v -0.075000 0.000000 -0.112500
v -0.075000 0.075000 -0.112500
v 0.000000 0.000000 -0.112500
v 0.000000 0.075000 -0.112500
v -0.075000 0.150000 -0.037500
v -0.075000 0.150000 -0.112500
v 0.000000 0.150000 -0.112500
v 0.000000 0.150000 -0.037500
v 0.075000 0.000000 0.262500
v 0.075000 0.000000 0.187500
v 0.075000 0.075000 0.187500
v 0.075000 0.075000 0.262500
v 0.000000 0.000000 0.112500
v 0.075000 0.000000 0.112500
v 0.075000 0.075000 0.112500
v 0.075000 0.000000 0.037500
v 0.075000 0.075000 0.037500
v 0.075000 0.000000 -0.037500
v 0.075000 0.075000 -0.037500
v 0.075000 0.000000 -0.112500
v 0.075000 0.075000 -0.112500
v 0.000000 0.075000 -0.187500
v 0.000000 0.150000 -0.187500
v 0.075000 0.150000 -0.112500
v 0.075000 0.075000 -0.187500
v 0.075000 0.150000 -0.187500
v 0.000000 0.075000 -0.262500
v 0.000000 0.150000 -0.262500
v 0.075000 0.075000 -0.262500
v 0.075000 0.150000 -0.262500
v 0.150000 0.000000 0.187500
v 0.150000 0.000000 0.112500
v 0.150000 0.075000 0.112500
v 0.150000 0.075000 0.187500
v 0.150000 0.000000 0.037500
v 0.150000 0.075000 0.037500
v 0.150000 0.000000 -0.037500
v 0.150000 0.075000 -0.037500
v 0.075000 0.150000 -0.037500
v 0.150000 0.075000 -0.112500
v 0.150000 0.150000 -0.112500
v 0.150000 0.150000 -0.037500
v 0.150000 0.075000 -0.187500
v 0.150000 0.150000 -0.187500
vn -1.0000 -0.0000 -0.0000
vn 1.0000 -0.0000 -0.0000
vn -0.0000 -0.0000 1.0000
vn -0.0000 -1.0000 -0.0000
vn -0.0000 1.0000 -0.0000
vn -0.0000 -0.0000 -1.0000
s 0
usemtl enemyVahki.vox_Material_246
f 21//1 22//1 13//1 23//1
f 22//3 24//3 18//3 13//3
f 21//4 25//4 24//4 22//4
f 13//5 18//5 26//5 23//5
f 24//1 39//1 17//1 18//1
f 24//4 42//4 40//4 39//4
f 17//5 41//5 43//5 18//5
usemtl enemyVahki.vox_Material_253
f 1//1 2//1 3//1 4//1
f 5//2 6//2 7//2 8//2
f 2//3 5//3 8//3 3//3
f 1//4 6//4 5//4 2//4
f 3//5 8//5 7//5 4//5
f 35//2 36//2 37//2 38//2
f 6//3 35//3 38//3 7//3
f 11//4 36//4 35//4 6//4
f 7//5 38//5 37//5 12//5
f 44//2 46//2 47//2 45//2
f 46//6 29//6 30//6 47//6
f 29//4 46//4 44//4 25//4
f 26//5 45//5 47//5 30//5
f 53//1 48//1 49//1 54//1
f 51//2 55//2 56//2 52//2
f 55//6 53//6 54//6 56//6
f 53//4 55//4 51//4 48//4
f 49//5 52//5 56//5 54//5
f 57//2 58//2 59//2 60//2
f 36//3 57//3 60//3 37//3
f 40//4 58//4 57//4 36//4
f 37//5 60//5 59//5 41//5
f 58//2 61//2 62//2 59//2
f 42//4 61//4 58//4 40//4
f 41//5 59//5 62//5 43//5
f 61//2 63//2 64//2 62//2
f 63//6 44//6 45//6 64//6
f 44//4 63//4 61//4 42//4
f 43//5 62//5 64//5 45//5
f 47//1 45//1 65//1 50//1
f 64//2 66//2 67//2 68//2
f 45//3 64//3 68//3 65//3
f 47//4 66//4 64//4 45//4
f 65//5 68//5 67//5 50//5
f 66//2 69//2 70//2 67//2
f 69//6 51//6 52//6 70//6
f 51//4 69//4 66//4 47//4
f 50//5 67//5 70//5 52//5
usemtl enemyVahki.vox_Material_254
f 13//1 14//1 15//1 16//1
f 17//2 18//2 19//2 20//2
f 14//3 17//3 20//3 15//3
f 18//6 13//6 16//6 19//6
f 13//4 18//4 17//4 14//4
f 15//5 20//5 19//5 16//5
f 28//1 23//1 31//1 32//1
f 26//2 30//2 33//2 34//2
f 23//3 26//3 34//3 31//3
f 30//6 28//6 32//6 33//6
f 31//5 34//5 33//5 32//5
f 39//1 11//1 12//1 17//1
f 39//4 40//4 36//4 11//4
f 12//5 37//5 41//5 17//5
f 25//4 44//4 42//4 24//4
f 18//5 43//5 45//5 26//5
f 48//1 30//1 33//1 49//1
f 30//3 47//3 50//3 33//3
f 48//4 51//4 47//4 30//4
f 33//5 50//5 52//5 49//5
usemtl enemyVahki.vox_Material_255
f 9//1 1//1 4//1 10//1
f 11//6 9//6 10//6 12//6
f 9//4 11//4 6//4 1//4
f 4//5 7//5 12//5 10//5
f 27//1 21//1 23//1 28//1
f 29//6 27//6 28//6 30//6
f 27//4 29//4 25//4 21//4
