# Blender 3.6.7
# www.blender.org
mtllib leftShoulder.mtl
o leftShoulder
v 0.000000 -0.037500 0.037500
v 0.000000 -0.037500 0.112500
v 0.000000 0.037500 0.112500
v 0.000000 0.037500 0.037500
v 0.075000 -0.037500 0.112500
v 0.075000 0.037500 0.112500
v 0.075000 -0.037500 0.037500
v 0.075000 0.037500 0.037500
v 0.000000 -0.112500 -0.037500
v 0.000000 -0.112500 0.037500
v 0.000000 -0.037500 -0.037500
v 0.075000 -0.112500 0.037500
v 0.075000 -0.112500 -0.037500
v 0.075000 -0.037500 -0.037500
v 0.000000 0.037500 -0.037500
v 0.000000 0.112500 0.037500
v 0.000000 0.112500 -0.037500
v 0.075000 0.112500 0.037500
v 0.075000 0.037500 -0.037500
v 0.075000 0.112500 -0.037500
v 0.000000 -0.037500 -0.112500
v 0.000000 0.037500 -0.112500
v 0.075000 -0.037500 -0.112500
v 0.075000 0.037500 -0.112500
v 0.075000 -0.112500 0.112500
v 0.150000 -0.112500 0.112500
v 0.150000 -0.112500 0.037500
v 0.150000 -0.037500 0.037500
v 0.150000 -0.037500 0.112500
v 0.150000 0.037500 0.037500
v 0.150000 0.037500 0.112500
v 0.150000 -0.112500 -0.037500
v 0.150000 -0.037500 -0.037500
v 0.150000 0.037500 -0.037500
v 0.150000 0.112500 -0.037500
v 0.150000 0.112500 0.037500
v 0.075000 -0.112500 -0.112500
v 0.150000 -0.112500 -0.112500
v 0.150000 -0.037500 -0.112500
v 0.150000 0.037500 -0.112500
vn -1.0000 -0.0000 -0.0000
vn -0.0000 -0.0000 1.0000
vn -0.0000 -1.0000 -0.0000
vn -0.0000 1.0000 -0.0000
vn -0.0000 -0.0000 -1.0000
vn 1.0000 -0.0000 -0.0000
s 0
usemtl enemyVahki.vox_Material_244
f 1//1 2//1 3//1 4//1
f 2//2 5//2 6//2 3//2
f 1//3 7//3 5//3 2//3
f 3//4 6//4 8//4 4//4
f 9//1 10//1 1//1 11//1
f 10//2 12//2 7//2 1//2
f 13//5 9//5 11//5 14//5
f 9//3 13//3 12//3 10//3
f 21//1 11//1 15//1 22//1
f 23//5 21//5 22//5 24//5
f 21//3 23//3 14//3 11//3
f 15//4 19//4 24//4 22//4
f 12//1 25//1 5//1 7//1
f 26//6 27//6 28//6 29//6
f 25//2 26//2 29//2 5//2
f 12//3 27//3 26//3 25//3
f 37//1 13//1 14//1 23//1
f 32//6 38//6 39//6 33//6
f 38//5 37//5 23//5 39//5
f 37//3 38//3 32//3 13//3
usemtl enemyVahki.vox_Material_246
f 11//1 1//1 4//1 15//1
f 29//6 28//6 30//6 31//6
f 5//2 29//2 31//2 6//2
f 6//4 31//4 30//4 8//4
f 27//6 32//6 33//6 28//6
f 13//3 32//3 27//3 12//3
f 30//6 34//6 35//6 36//6
f 8//2 30//2 36//2 18//2
f 34//5 19//5 20//5 35//5
f 18//4 36//4 35//4 20//4
f 33//6 39//6 40//6 34//6
f 39//5 23//5 24//5 40//5
f 19//4 34//4 40//4 24//4
usemtl enemyVahki.vox_Material_255
f 15//1 4//1 16//1 17//1
f 4//2 8//2 18//2 16//2
f 19//5 15//5 17//5 20//5
f 16//4 18//4 20//4 17//4
f 28//6 33//6 34//6 30//6
