# Blender 3.6.7
# www.blender.org
mtllib torso.mtl
o torso
v -0.262500 0.150000 0.075000
v -0.262500 0.150000 0.150000
v -0.262500 0.225000 0.150000
v -0.262500 0.225000 0.075000
v -0.187500 0.150000 0.150000
v -0.187500 0.225000 0.150000
v -0.187500 0.150000 0.075000
v -0.187500 0.225000 0.075000
v -0.262500 0.075000 0.000000
v -0.262500 0.075000 0.075000
v -0.262500 0.150000 0.000000
v -0.187500 0.075000 0.075000
v -0.187500 0.075000 0.000000
v -0.187500 0.150000 0.000000
v -0.262500 0.225000 0.000000
v -0.262500 0.300000 0.075000
v -0.262500 0.300000 0.000000
v -0.187500 0.300000 0.075000
v -0.187500 0.225000 0.000000
v -0.187500 0.300000 0.000000
v -0.262500 0.150000 -0.075000
v -0.262500 0.225000 -0.075000
v -0.187500 0.150000 -0.075000
v -0.187500 0.225000 -0.075000
v -0.187500 0.075000 0.150000
v -0.112500 0.075000 0.150000
v -0.112500 0.075000 0.075000
v -0.112500 0.150000 0.075000
v -0.112500 0.150000 0.150000
v -0.112500 0.225000 0.075000
v -0.112500 0.225000 0.150000
v -0.187500 0.300000 0.150000
v -0.112500 0.300000 0.150000
v -0.112500 0.300000 0.075000
v -0.187500 0.000000 0.000000
v -0.187500 0.000000 0.075000
v -0.112500 0.000000 0.075000
v -0.112500 0.000000 0.000000
v -0.112500 0.300000 0.000000
v -0.187500 -0.075000 -0.075000
v -0.187500 -0.075000 0.000000
v -0.187500 0.000000 -0.075000
v -0.112500 -0.075000 0.000000
v -0.112500 -0.075000 -0.075000
v -0.112500 0.000000 -0.075000
v -0.187500 0.075000 -0.075000
v -0.112500 0.075000 -0.075000
v -0.187500 0.300000 -0.075000
v -0.112500 0.225000 -0.075000
v -0.112500 0.300000 -0.075000
v -0.187500 0.075000 -0.150000
v -0.187500 0.150000 -0.150000
v -0.112500 0.075000 -0.150000
v -0.112500 0.150000 -0.150000
v -0.187500 0.225000 -0.150000
v -0.112500 0.225000 -0.150000
v -0.112500 0.000000 0.150000
v -0.037500 0.000000 0.150000
v -0.037500 0.075000 0.150000
v -0.037500 0.000000 0.075000
v -0.037500 0.075000 0.075000
v -0.037500 0.225000 0.150000
v -0.037500 0.300000 0.150000
v -0.037500 0.225000 0.075000
v -0.037500 0.300000 0.075000
v -0.112500 -0.150000 0.000000
v -0.112500 -0.150000 0.075000
v -0.112500 -0.075000 0.075000
v -0.037500 -0.150000 0.075000
v -0.037500 -0.075000 0.075000
v -0.037500 -0.150000 0.000000
v -0.037500 0.150000 0.075000
v -0.037500 0.300000 0.000000
v -0.112500 -0.225000 -0.075000
v -0.112500 -0.225000 0.000000
v -0.112500 -0.150000 -0.075000
v -0.037500 -0.225000 0.000000
v -0.037500 -0.225000 -0.075000
v -0.037500 -0.150000 -0.075000
v -0.037500 -0.075000 -0.075000
v -0.037500 0.300000 -0.075000
v -0.112500 -0.075000 -0.150000
v -0.112500 0.000000 -0.150000
v -0.037500 -0.075000 -0.150000
v -0.037500 0.000000 -0.150000
v -0.037500 0.075000 -0.150000
v -0.037500 0.150000 -0.150000
v -0.037500 0.225000 -0.150000
v -0.112500 0.300000 -0.150000
v -0.037500 0.300000 -0.150000
v -0.037500 0.150000 0.150000
v -0.037500 0.150000 0.225000
v -0.037500 0.225000 0.225000
v 0.037500 0.150000 0.225000
v 0.037500 0.150000 0.150000
v 0.037500 0.225000 0.150000
v 0.037500 0.225000 0.225000
v -0.037500 0.300000 0.225000
v 0.037500 0.300000 0.150000
v 0.037500 0.300000 0.225000
v -0.037500 -0.075000 0.150000
v 0.037500 -0.075000 0.150000
v 0.037500 -0.075000 0.075000
v 0.037500 0.000000 0.075000
v 0.037500 0.000000 0.150000
v 0.037500 0.075000 0.150000
v 0.037500 0.075000 0.075000
v 0.037500 0.150000 0.075000
v 0.037500 0.225000 0.075000
v 0.037500 0.300000 0.075000
v -0.037500 -0.225000 0.075000
v 0.037500 -0.225000 0.075000
v 0.037500 -0.225000 0.000000
v 0.037500 -0.150000 0.000000
v 0.037500 -0.150000 0.075000
v 0.037500 0.300000 0.000000
v 0.037500 -0.225000 -0.075000
v -0.037500 0.375000 0.000000
v -0.037500 0.375000 -0.075000
v 0.037500 0.300000 -0.075000
v 0.037500 0.375000 -0.075000
v 0.037500 0.375000 0.000000
v -0.037500 -0.225000 -0.150000
v -0.037500 -0.150000 -0.150000
v 0.037500 -0.225000 -0.150000
v 0.037500 -0.150000 -0.150000
v 0.037500 -0.150000 -0.075000
v 0.037500 -0.075000 -0.150000
v 0.037500 -0.075000 -0.075000
v 0.037500 0.000000 -0.150000
v 0.037500 0.075000 -0.150000
v 0.037500 0.150000 -0.150000
v 0.037500 0.225000 -0.150000
v 0.037500 0.300000 -0.150000
v -0.037500 0.000000 -0.225000
v -0.037500 0.075000 -0.225000
v 0.037500 0.000000 -0.225000
v 0.037500 0.075000 -0.225000
v -0.037500 0.150000 -0.225000
v -0.037500 0.225000 -0.225000
v 0.037500 0.150000 -0.225000
v 0.037500 0.225000 -0.225000
v 0.112500 0.000000 0.150000
v 0.112500 0.000000 0.075000
v 0.112500 0.075000 0.075000
v 0.112500 0.075000 0.150000
v 0.112500 0.225000 0.150000
v 0.112500 0.300000 0.150000
v 0.112500 0.225000 0.075000
v 0.112500 0.300000 0.075000
v 0.112500 -0.150000 0.075000
v 0.112500 -0.150000 0.000000
v 0.112500 -0.075000 0.000000
v 0.112500 -0.075000 0.075000
v 0.112500 0.000000 0.000000
v 0.112500 0.150000 0.075000
v 0.112500 0.300000 0.000000
v 0.112500 -0.225000 0.000000
v 0.112500 -0.225000 -0.075000
v 0.112500 -0.150000 -0.075000
v 0.112500 -0.075000 -0.075000
v 0.112500 0.300000 -0.075000
v 0.112500 -0.075000 -0.150000
v 0.112500 0.000000 -0.150000
v 0.112500 0.000000 -0.075000
v 0.112500 0.075000 -0.150000
v 0.112500 0.075000 -0.075000
v 0.112500 0.150000 -0.150000
v 0.112500 0.225000 -0.150000
v 0.112500 0.225000 -0.075000
v 0.112500 0.300000 -0.150000
v 0.112500 0.150000 0.150000
v 0.187500 0.075000 0.150000
v 0.187500 0.075000 0.075000
v 0.187500 0.150000 0.075000
v 0.187500 0.150000 0.150000
v 0.187500 0.225000 0.150000
v 0.187500 0.225000 0.075000
v 0.187500 0.300000 0.075000
v 0.187500 0.300000 0.150000
v 0.187500 0.000000 0.075000
v 0.187500 0.000000 0.000000
v 0.187500 0.075000 0.000000
v 0.187500 0.300000 0.000000
v 0.187500 -0.075000 0.000000
v 0.187500 -0.075000 -0.075000
v 0.187500 0.000000 -0.075000
v 0.187500 0.075000 -0.075000
v 0.187500 0.150000 -0.075000
v 0.187500 0.150000 0.000000
v 0.187500 0.225000 0.000000
v 0.187500 0.225000 -0.075000
v 0.187500 0.300000 -0.075000
v 0.187500 0.075000 -0.150000
v 0.187500 0.150000 -0.150000
v 0.187500 0.225000 -0.150000
v 0.262500 0.150000 0.150000
v 0.262500 0.150000 0.075000
v 0.262500 0.225000 0.075000
v 0.262500 0.225000 0.150000
v 0.262500 0.075000 0.075000
v 0.262500 0.075000 0.000000
v 0.262500 0.150000 0.000000
v 0.262500 0.225000 0.000000
v 0.262500 0.300000 0.000000
v 0.262500 0.300000 0.075000
v 0.262500 0.150000 -0.075000
v 0.262500 0.225000 -0.075000
vn -1.0000 -0.0000 -0.0000
vn -0.0000 -0.0000 1.0000
vn -0.0000 -1.0000 -0.0000
vn -0.0000 1.0000 -0.0000
vn -0.0000 -0.0000 -1.0000
vn 1.0000 -0.0000 -0.0000
s 0
usemtl enemyVahki.vox_Material_224
f 58//2 105//2 106//2 59//2
usemtl enemyVahki.vox_Material_246
f 11//1 1//1 4//1 15//1
f 18//4 34//4 39//4 20//4
f 46//1 13//1 14//1 23//1
f 24//1 19//1 20//1 48//1
f 49//5 24//5 48//5 50//5
f 20//4 39//4 50//4 48//4
f 52//1 23//1 24//1 55//1
f 54//5 52//5 55//5 56//5
f 24//4 49//4 56//4 55//4
f 74//1 75//1 66//1 76//1
f 75//2 77//2 71//2 66//2
f 78//5 74//5 76//5 79//5
f 74//3 78//3 77//3 75//3
f 76//1 66//1 43//1 44//1
f 79//5 76//5 44//5 80//5
f 39//4 73//4 81//4 50//4
f 82//1 44//1 45//1 83//1
f 84//5 82//5 83//5 85//5
f 82//3 84//3 80//3 44//3
f 83//1 45//1 47//1 53//1
f 85//5 83//5 53//5 86//5
f 86//5 53//5 54//5 87//5
f 87//5 54//5 56//5 88//5
f 56//1 49//1 50//1 89//1
f 88//5 56//5 89//5 90//5
f 50//4 81//4 90//4 89//4
f 158//6 159//6 160//6 152//6
f 113//2 158//2 152//2 114//2
f 159//5 117//5 127//5 160//5
f 117//3 159//3 158//3 113//3
f 152//6 160//6 161//6 153//6
f 160//5 127//5 129//5 161//5
f 116//4 157//4 162//4 120//4
f 161//6 163//6 164//6 165//6
f 163//5 128//5 130//5 164//5
f 128//3 163//3 161//3 129//3
f 165//6 164//6 166//6 167//6
f 164//5 130//5 131//5 166//5
f 166//5 131//5 132//5 168//5
f 168//5 132//5 133//5 169//5
f 170//6 169//6 171//6 162//6
f 169//5 133//5 134//5 171//5
f 120//4 162//4 171//4 134//4
f 150//4 179//4 184//4 157//4
f 183//6 188//6 189//6 190//6
f 191//6 192//6 193//6 184//6
f 192//5 170//5 162//5 193//5
f 157//4 184//4 193//4 162//4
f 189//6 195//6 196//6 192//6
f 195//5 168//5 169//5 196//5
f 170//4 192//4 196//4 169//4
f 198//6 203//6 204//6 199//6
usemtl enemyVahki.vox_Material_253
f 12//1 25//1 5//1 7//1
f 26//6 27//6 28//6 29//6
f 25//2 26//2 29//2 5//2
f 12//3 27//3 26//3 25//3
f 29//6 28//6 30//6 31//6
f 5//2 29//2 31//2 6//2
f 37//1 57//1 26//1 27//1
f 57//2 58//2 59//2 26//2
f 37//3 60//3 58//3 57//3
f 26//4 59//4 61//4 27//4
f 31//2 62//2 63//2 33//2
f 30//3 64//3 62//3 31//3
f 33//4 63//4 65//4 34//4
f 91//1 92//1 93//1 62//1
f 94//6 95//6 96//6 97//6
f 92//2 94//2 97//2 93//2
f 91//3 95//3 94//3 92//3
f 62//1 93//1 98//1 63//1
f 97//6 96//6 99//6 100//6
f 93//2 97//2 100//2 98//2
f 98//4 100//4 99//4 63//4
f 70//1 101//1 58//1 60//1
f 102//6 103//6 104//6 105//6
f 101//2 102//2 105//2 58//2
f 70//3 103//3 102//3 101//3
f 61//1 59//1 91//1 72//1
f 106//6 107//6 108//6 95//6
f 59//2 106//2 95//2 91//2
f 72//1 91//1 62//1 64//1
f 95//6 108//6 109//6 96//6
f 81//1 73//1 118//1 119//1
f 116//6 120//6 121//6 122//6
f 73//2 116//2 122//2 118//2
f 120//5 81//5 119//5 121//5
f 118//4 122//4 121//4 119//4
f 135//1 85//1 86//1 136//1
f 130//6 137//6 138//6 131//6
f 137//5 135//5 136//5 138//5
f 135//3 137//3 130//3 85//3
f 86//4 131//4 138//4 136//4
f 139//1 87//1 88//1 140//1
f 132//6 141//6 142//6 133//6
f 141//5 139//5 140//5 142//5
f 139//3 141//3 132//3 87//3
f 88//4 133//4 142//4 140//4
f 143//6 144//6 145//6 146//6
f 105//2 143//2 146//2 106//2
f 104//3 144//3 143//3 105//3
f 106//4 146//4 145//4 107//4
f 96//2 147//2 148//2 99//2
f 109//3 149//3 147//3 96//3
f 99//4 148//4 150//4 110//4
f 145//1 146//1 172//1 156//1
f 173//6 174//6 175//6 176//6
f 146//2 173//2 176//2 172//2
f 145//3 174//3 173//3 146//3
f 156//1 172//1 147//1 149//1
f 172//2 176//2 177//2 147//2
usemtl enemyVahki.vox_Material_254
f 1//1 2//1 3//1 4//1
f 2//2 5//2 6//2 3//2
f 1//3 7//3 5//3 2//3
f 3//4 6//4 8//4 4//4
f 9//1 10//1 1//1 11//1
f 10//2 12//2 7//2 1//2
f 13//5 9//5 11//5 14//5
f 9//3 13//3 12//3 10//3
f 15//1 4//1 16//1 17//1
f 4//2 8//2 18//2 16//2
f 19//5 15//5 17//5 20//5
f 16//4 18//4 20//4 17//4
f 21//1 11//1 15//1 22//1
f 23//5 21//5 22//5 24//5
f 21//3 23//3 14//3 11//3
f 15//4 19//4 24//4 22//4
f 8//1 6//1 32//1 18//1
f 6//2 31//2 33//2 32//2
f 32//4 33//4 34//4 18//4
f 35//1 36//1 12//1 13//1
f 36//2 37//2 27//2 12//2
f 35//3 38//3 37//3 36//3
f 40//1 41//1 35//1 42//1
f 41//2 43//2 38//2 35//2
f 44//5 40//5 42//5 45//5
f 40//3 44//3 43//3 41//3
f 66//1 67//1 68//1 43//1
f 67//2 69//2 70//2 68//2
f 66//3 71//3 69//3 67//3
f 43//1 68//1 37//1 38//1
f 68//2 70//2 60//2 37//2
f 34//4 65//4 73//4 39//4
f 63//4 99//4 110//4 65//4
f 77//1 111//1 69//1 71//1
f 112//6 113//6 114//6 115//6
f 111//2 112//2 115//2 69//2
f 77//3 113//3 112//3 111//3
f 69//2 115//2 103//2 70//2
f 65//4 110//4 116//4 73//4
f 78//3 117//3 113//3 77//3
f 123//1 78//1 79//1 124//1
f 117//6 125//6 126//6 127//6
f 125//5 123//5 124//5 126//5
f 123//3 125//3 117//3 78//3
f 124//1 79//1 80//1 84//1
f 127//6 126//6 128//6 129//6
f 126//5 124//5 84//5 128//5
f 151//6 152//6 153//6 154//6
f 115//2 151//2 154//2 103//2
f 114//3 152//3 151//3 115//3
f 154//6 153//6 155//6 144//6
f 103//2 154//2 144//2 104//2
f 110//4 150//4 157//4 116//4
f 177//6 178//6 179//6 180//6
f 147//2 177//2 180//2 148//2
f 148//4 180//4 179//4 150//4
f 181//6 182//6 183//6 174//6
f 144//2 181//2 174//2 145//2
f 155//3 182//3 181//3 144//3
f 185//6 186//6 187//6 182//6
f 153//2 185//2 182//2 155//2
f 186//5 161//5 165//5 187//5
f 161//3 186//3 185//3 153//3
f 197//6 198//6 199//6 200//6
f 176//2 197//2 200//2 177//2
f 175//3 198//3 197//3 176//3
f 177//4 200//4 199//4 178//4
f 201//6 202//6 203//6 198//6
f 174//2 201//2 198//2 175//2
f 202//5 183//5 190//5 203//5
f 183//3 202//3 201//3 174//3
f 199//6 204//6 205//6 206//6
f 178//2 199//2 206//2 179//2
f 204//5 191//5 184//5 205//5
f 179//4 206//4 205//4 184//4
f 203//6 207//6 208//6 204//6
f 207//5 189//5 192//5 208//5
f 189//3 207//3 203//3 190//3
f 191//4 204//4 208//4 192//4
usemtl enemyVahki.vox_Material_255
f 42//1 35//1 13//1 46//1
f 45//5 42//5 46//5 47//5
f 51//1 46//1 23//1 52//1
f 53//5 51//5 52//5 54//5
f 51//3 53//3 47//3 46//3
f 27//2 61//2 72//2 28//2
f 28//2 72//2 64//2 30//2
f 128//5 84//5 85//5 130//5
f 131//5 86//5 87//5 132//5
f 133//5 88//5 90//5 134//5
f 81//4 120//4 134//4 90//4
f 107//2 145//2 156//2 108//2
f 108//2 156//2 149//2 109//2
f 182//6 187//6 188//6 183//6
f 187//5 165//5 167//5 188//5
f 188//6 194//6 195//6 189//6
f 194//5 166//5 168//5 195//5
f 166//3 194//3 188//3 167//3
