# Blender 3.6.7
# www.blender.org
mtllib bokken.mtl
o model_0
v -0.037500 -0.112500 0.562500
v -0.037500 -0.112500 0.637500
v -0.037500 -0.037500 0.637500
v -0.037500 -0.037500 0.562500
v 0.037500 -0.112500 0.637500
v 0.037500 -0.112500 0.562500
v 0.037500 -0.037500 0.562500
v 0.037500 -0.037500 0.637500
v -0.037500 -0.112500 0.487500
v -0.037500 -0.037500 0.487500
v 0.037500 -0.112500 0.487500
v 0.037500 -0.037500 0.487500
v -0.037500 -0.112500 0.412500
v -0.037500 -0.037500 0.412500
v 0.037500 -0.112500 0.412500
v 0.037500 -0.037500 0.412500
v -0.037500 -0.112500 0.337500
v -0.037500 -0.037500 0.337500
v 0.037500 -0.112500 0.337500
v 0.037500 -0.037500 0.337500
v -0.037500 -0.112500 0.262500
v -0.037500 -0.037500 0.262500
v 0.037500 -0.112500 0.262500
v 0.037500 -0.037500 0.262500
v -0.037500 -0.112500 0.187500
v -0.037500 -0.037500 0.187500
v 0.037500 -0.112500 0.187500
v 0.037500 -0.037500 0.187500
v -0.037500 -0.112500 0.112500
v -0.037500 -0.037500 0.112500
v 0.037500 -0.112500 0.112500
v 0.037500 -0.037500 0.112500
v -0.037500 -0.112500 -0.187500
v -0.037500 -0.112500 -0.112500
v -0.037500 -0.037500 -0.112500
v -0.037500 -0.037500 -0.187500
v 0.037500 -0.112500 -0.112500
v 0.037500 -0.112500 -0.187500
v 0.037500 -0.037500 -0.187500
v 0.037500 -0.037500 -0.112500
v -0.037500 -0.112500 -0.262500
v -0.037500 -0.037500 -0.262500
v 0.037500 -0.112500 -0.262500
v 0.037500 -0.037500 -0.262500
v -0.037500 -0.037500 0.862500
v -0.037500 -0.037500 0.937500
v -0.037500 0.037500 0.937500
v -0.037500 0.037500 0.862500
v 0.037500 -0.037500 0.937500
v 0.037500 -0.037500 0.862500
v 0.037500 0.037500 0.862500
v 0.037500 0.037500 0.937500
v -0.037500 0.037500 1.012500
v -0.037500 0.112500 1.012500
v -0.037500 0.112500 0.937500
v 0.037500 0.037500 1.012500
v 0.037500 0.112500 0.937500
v 0.037500 0.112500 1.012500
v -0.037500 0.112500 0.862500
v 0.037500 0.112500 0.862500
v -0.037500 -0.037500 0.787500
v -0.037500 0.037500 0.787500
v 0.037500 -0.037500 0.787500
v 0.037500 0.037500 0.787500
v -0.037500 -0.037500 0.712500
v -0.037500 0.037500 0.712500
v 0.037500 -0.037500 0.712500
v 0.037500 0.037500 0.712500
v -0.037500 0.112500 0.787500
v 0.037500 0.112500 0.787500
v -0.037500 0.112500 0.712500
v 0.037500 0.112500 0.712500
v -0.037500 0.037500 0.637500
v 0.037500 0.037500 0.637500
v -0.037500 0.037500 0.562500
v 0.037500 0.037500 0.562500
v -0.037500 0.112500 0.637500
v 0.037500 0.112500 0.637500
v -0.037500 0.112500 0.562500
v 0.037500 0.112500 0.562500
v -0.037500 0.037500 0.487500
v 0.037500 0.037500 0.487500
v -0.037500 0.037500 0.412500
v 0.037500 0.037500 0.412500
v -0.037500 0.037500 0.337500
v 0.037500 0.037500 0.337500
v -0.037500 0.037500 0.262500
v 0.037500 0.037500 0.262500
v -0.037500 0.037500 0.187500
v 0.037500 0.037500 0.187500
v -0.037500 0.037500 0.112500
v 0.037500 0.037500 0.112500
v -0.037500 -0.037500 0.037500
v -0.037500 0.037500 0.037500
v 0.037500 -0.037500 0.037500
v 0.037500 0.037500 0.037500
v -0.037500 -0.037500 -0.037500
v -0.037500 0.037500 -0.037500
v 0.037500 -0.037500 -0.037500
v 0.037500 0.037500 -0.037500
v -0.037500 0.037500 -0.112500
v 0.037500 0.037500 -0.112500
v -0.037500 0.037500 -0.187500
v 0.037500 0.037500 -0.187500
v -0.037500 0.037500 -0.262500
v 0.037500 0.037500 -0.262500
v -0.037500 0.037500 1.087500
v -0.037500 0.037500 1.162500
v -0.037500 0.112500 1.162500
v -0.037500 0.112500 1.087500
v 0.037500 0.037500 1.162500
v 0.037500 0.037500 1.087500
v 0.037500 0.112500 1.087500
v 0.037500 0.112500 1.162500
v -0.037500 0.112500 1.237500
v -0.037500 0.187500 1.237500
v -0.037500 0.187500 1.162500
v 0.037500 0.112500 1.237500
v 0.037500 0.187500 1.162500
v 0.037500 0.187500 1.237500
v -0.037500 0.187500 1.087500
v 0.037500 0.187500 1.087500
v -0.037500 0.187500 1.012500
v 0.037500 0.187500 1.012500
v -0.037500 0.187500 0.937500
v 0.037500 0.187500 0.937500
vn -1.0000 -0.0000 -0.0000
vn 1.0000 -0.0000 -0.0000
vn -0.0000 -0.0000 1.0000
vn -0.0000 -1.0000 -0.0000
vn -0.0000 -0.0000 -1.0000
vn -0.0000 1.0000 -0.0000
s 0
usemtl bokken.vox_Material_222
f 1//1 2//1 3//1 4//1
f 5//2 6//2 7//2 8//2
f 2//3 5//3 8//3 3//3
f 1//4 6//4 5//4 2//4
f 9//1 1//1 4//1 10//1
f 6//2 11//2 12//2 7//2
f 9//4 11//4 6//4 1//4
f 13//1 9//1 10//1 14//1
f 11//2 15//2 16//2 12//2
f 13//4 15//4 11//4 9//4
f 17//1 13//1 14//1 18//1
f 15//2 19//2 20//2 16//2
f 17//4 19//4 15//4 13//4
f 21//1 17//1 18//1 22//1
f 19//2 23//2 24//2 20//2
f 21//4 23//4 19//4 17//4
f 25//1 21//1 22//1 26//1
f 23//2 27//2 28//2 24//2
f 25//4 27//4 23//4 21//4
f 29//1 25//1 26//1 30//1
f 27//2 31//2 32//2 28//2
f 31//5 29//5 30//5 32//5
f 29//4 31//4 27//4 25//4
f 33//1 34//1 35//1 36//1
f 37//2 38//2 39//2 40//2
f 34//3 37//3 40//3 35//3
f 33//4 38//4 37//4 34//4
f 41//1 33//1 36//1 42//1
f 38//2 43//2 44//2 39//2
f 43//5 41//5 42//5 44//5
f 41//4 43//4 38//4 33//4
f 45//1 46//1 47//1 48//1
f 49//2 50//2 51//2 52//2
f 46//3 49//3 52//3 47//3
f 45//4 50//4 49//4 46//4
f 47//1 53//1 54//1 55//1
f 56//2 52//2 57//2 58//2
f 47//4 52//4 56//4 53//4
f 61//1 45//1 48//1 62//1
f 50//2 63//2 64//2 51//2
f 61//4 63//4 50//4 45//4
f 65//1 61//1 62//1 66//1
f 63//2 67//2 68//2 64//2
f 65//4 67//4 63//4 61//4
f 3//1 65//1 66//1 73//1
f 67//2 8//2 74//2 68//2
f 3//4 8//4 67//4 65//4
f 4//1 3//1 73//1 75//1
f 8//2 7//2 76//2 74//2
f 30//1 26//1 89//1 91//1
f 28//2 32//2 92//2 90//2
f 89//6 90//6 92//6 91//6
f 93//1 30//1 91//1 94//1
f 32//2 95//2 96//2 92//2
f 93//4 95//4 32//4 30//4
f 91//6 92//6 96//6 94//6
f 97//1 93//1 94//1 98//1
f 95//2 99//2 100//2 96//2
f 97//4 99//4 95//4 93//4
f 94//6 96//6 100//6 98//6
f 35//1 97//1 98//1 101//1
f 99//2 40//2 102//2 100//2
f 35//4 40//4 99//4 97//4
f 98//6 100//6 102//6 101//6
f 36//1 35//1 101//1 103//1
f 40//2 39//2 104//2 102//2
f 101//6 102//6 104//6 103//6
f 42//1 36//1 103//1 105//1
f 39//2 44//2 106//2 104//2
f 44//5 42//5 105//5 106//5
f 103//6 104//6 106//6 105//6
f 107//1 108//1 109//1 110//1
f 111//2 112//2 113//2 114//2
f 108//3 111//3 114//3 109//3
f 107//4 112//4 111//4 108//4
f 53//1 107//1 110//1 54//1
f 112//2 56//2 58//2 113//2
f 53//4 56//4 112//4 107//4
f 109//1 115//1 116//1 117//1
f 118//2 114//2 119//2 120//2
f 115//3 118//3 120//3 116//3
f 109//4 114//4 118//4 115//4
f 116//6 120//6 119//6 117//6
usemtl bokken.vox_Material_240
f 48//1 47//1 55//1 59//1
f 52//2 51//2 60//2 57//2
f 55//6 57//6 60//6 59//6
f 62//1 48//1 59//1 69//1
f 51//2 64//2 70//2 60//2
f 59//6 60//6 70//6 69//6
f 66//1 62//1 69//1 71//1
f 64//2 68//2 72//2 70//2
f 69//6 70//6 72//6 71//6
f 73//1 66//1 71//1 77//1
f 68//2 74//2 78//2 72//2
f 71//6 72//6 78//6 77//6
f 75//1 73//1 77//1 79//1
f 74//2 76//2 80//2 78//2
f 76//5 75//5 79//5 80//5
f 77//6 78//6 80//6 79//6
f 10//1 4//1 75//1 81//1
f 7//2 12//2 82//2 76//2
f 75//6 76//6 82//6 81//6
f 14//1 10//1 81//1 83//1
f 12//2 16//2 84//2 82//2
f 81//6 82//6 84//6 83//6
f 18//1 14//1 83//1 85//1
f 16//2 20//2 86//2 84//2
f 83//6 84//6 86//6 85//6
f 22//1 18//1 85//1 87//1
f 20//2 24//2 88//2 86//2
f 85//6 86//6 88//6 87//6
f 26//1 22//1 87//1 89//1
f 24//2 28//2 90//2 88//2
f 87//6 88//6 90//6 89//6
f 110//1 109//1 117//1 121//1
f 114//2 113//2 122//2 119//2
f 117//6 119//6 122//6 121//6
f 54//1 110//1 121//1 123//1
f 113//2 58//2 124//2 122//2
f 121//6 122//6 124//6 123//6
f 55//1 54//1 123//1 125//1
f 58//2 57//2 126//2 124//2
f 57//5 55//5 125//5 126//5
f 123//6 124//6 126//6 125//6
