# Blender 3.6.7
# www.blender.org
mtllib flintLock.mtl
o model_0
v -0.187500 0.262500 0.112500
v -0.187500 0.262500 0.187500
v -0.187500 0.337500 0.187500
v -0.187500 0.337500 0.112500
v -0.112500 0.262500 0.187500
v -0.112500 0.262500 0.112500
v -0.112500 0.337500 0.112500
v -0.112500 0.337500 0.187500
v -0.112500 0.187500 0.487500
v -0.112500 0.187500 0.562500
v -0.112500 0.262500 0.562500
v -0.112500 0.262500 0.487500
v -0.037500 0.187500 0.562500
v -0.037500 0.187500 0.487500
v -0.037500 0.262500 0.487500
v -0.037500 0.262500 0.562500
v -0.112500 0.187500 0.412500
v -0.112500 0.262500 0.412500
v -0.037500 0.187500 0.412500
v -0.037500 0.262500 0.412500
v -0.112500 0.187500 0.337500
v -0.112500 0.262500 0.337500
v -0.037500 0.187500 0.337500
v -0.037500 0.262500 0.337500
v -0.112500 0.187500 0.262500
v -0.112500 0.262500 0.262500
v -0.037500 0.187500 0.262500
v -0.037500 0.262500 0.262500
v -0.112500 0.187500 0.187500
v -0.037500 0.187500 0.187500
v -0.037500 0.262500 0.187500
v -0.112500 0.112500 0.112500
v -0.112500 0.112500 0.187500
v -0.112500 0.187500 0.112500
v -0.037500 0.112500 0.187500
v -0.037500 0.112500 0.112500
v -0.037500 0.262500 0.112500
v -0.112500 0.112500 0.037500
v -0.112500 0.187500 0.037500
v -0.037500 0.112500 0.037500
v -0.037500 0.187500 0.037500
v -0.112500 0.262500 0.037500
v -0.037500 0.262500 0.037500
v -0.037500 0.112500 0.487500
v -0.037500 0.112500 0.562500
v 0.037500 0.112500 0.562500
v 0.037500 0.112500 0.487500
v 0.037500 0.187500 0.487500
v 0.037500 0.187500 0.562500
v -0.037500 0.337500 0.562500
v -0.037500 0.337500 0.487500
v 0.037500 0.262500 0.562500
v 0.037500 0.262500 0.487500
v 0.037500 0.337500 0.487500
v 0.037500 0.337500 0.562500
v -0.037500 0.112500 0.412500
v 0.037500 0.112500 0.412500
v 0.037500 0.187500 0.412500
v -0.037500 0.337500 0.412500
v 0.037500 0.262500 0.412500
v 0.037500 0.337500 0.412500
v -0.037500 0.112500 0.337500
v 0.037500 0.112500 0.337500
v 0.037500 0.187500 0.337500
v -0.037500 0.337500 0.337500
v 0.037500 0.262500 0.337500
v 0.037500 0.337500 0.337500
v -0.037500 0.112500 0.262500
v 0.037500 0.112500 0.262500
v 0.037500 0.187500 0.262500
v -0.037500 0.337500 0.262500
v 0.037500 0.262500 0.262500
v 0.037500 0.337500 0.262500
v 0.037500 0.112500 0.187500
v 0.037500 0.187500 0.187500
v -0.037500 0.337500 0.187500
v 0.037500 0.262500 0.187500
v 0.037500 0.337500 0.187500
v -0.037500 0.037500 0.112500
v -0.037500 0.037500 0.187500
v 0.037500 0.037500 0.187500
v 0.037500 0.037500 0.112500
v 0.037500 0.112500 0.112500
v -0.037500 0.337500 0.112500
v 0.037500 0.262500 0.112500
v 0.037500 0.337500 0.112500
v 0.037500 0.112500 0.037500
v -0.037500 0.337500 0.037500
v 0.037500 0.262500 0.037500
v 0.037500 0.337500 0.037500
v -0.037500 -0.037500 -0.037500
v -0.037500 -0.037500 0.037500
v -0.037500 0.037500 0.037500
v -0.037500 0.037500 -0.037500
v 0.037500 -0.037500 0.037500
v 0.037500 -0.037500 -0.037500
v 0.037500 0.037500 -0.037500
v 0.037500 0.037500 0.037500
v -0.037500 0.112500 -0.037500
v 0.037500 0.112500 -0.037500
v -0.037500 0.187500 -0.037500
v 0.037500 0.187500 -0.037500
v 0.037500 0.187500 0.037500
v -0.037500 0.262500 -0.037500
v 0.037500 0.262500 -0.037500
v -0.037500 0.112500 -0.112500
v -0.037500 0.187500 -0.112500
v 0.037500 0.112500 -0.112500
v 0.037500 0.187500 -0.112500
v 0.112500 0.187500 0.562500
v 0.112500 0.187500 0.487500
v 0.112500 0.262500 0.487500
v 0.112500 0.262500 0.562500
v 0.112500 0.187500 0.412500
v 0.112500 0.262500 0.412500
v 0.112500 0.187500 0.337500
v 0.112500 0.262500 0.337500
v 0.112500 0.187500 0.262500
v 0.112500 0.262500 0.262500
v 0.112500 0.187500 0.187500
v 0.112500 0.262500 0.187500
v 0.112500 0.112500 0.187500
v 0.112500 0.112500 0.112500
v 0.112500 0.187500 0.112500
v 0.112500 0.262500 0.112500
v 0.112500 0.112500 0.037500
v 0.112500 0.187500 0.037500
v 0.112500 0.262500 0.037500
vn -1.0000 -0.0000 -0.0000
vn 1.0000 -0.0000 -0.0000
vn -0.0000 -0.0000 1.0000
vn -0.0000 -0.0000 -1.0000
vn -0.0000 -1.0000 -0.0000
vn -0.0000 1.0000 -0.0000
s 0
usemtl flintlockPistol.vox_Material_240
f 17//1 9//1 12//1 18//1
f 17//5 19//5 14//5 9//5
f 12//6 15//6 20//6 18//6
f 21//1 17//1 18//1 22//1
f 21//5 23//5 19//5 17//5
f 18//6 20//6 24//6 22//6
f 25//1 21//1 22//1 26//1
f 25//5 27//5 23//5 21//5
f 22//6 24//6 28//6 26//6
f 29//1 25//1 26//1 5//1
f 29//5 30//5 27//5 25//5
f 26//6 28//6 31//6 5//6
f 56//1 44//1 14//1 19//1
f 47//2 57//2 58//2 48//2
f 56//5 57//5 47//5 44//5
f 35//1 68//1 27//1 30//1
f 69//2 74//2 75//2 70//2
f 35//5 74//5 69//5 68//5
f 37//1 31//1 76//1 84//1
f 77//2 85//2 86//2 78//2
f 76//6 78//6 86//6 84//6
f 40//5 87//5 83//5 36//5
f 43//1 37//1 84//1 88//1
f 85//2 89//2 90//2 86//2
f 89//4 43//4 88//4 90//4
f 84//6 86//6 90//6 88//6
f 91//1 92//1 93//1 94//1
f 95//2 96//2 97//2 98//2
f 92//3 95//3 98//3 93//3
f 96//4 91//4 94//4 97//4
f 91//5 96//5 95//5 92//5
f 94//1 93//1 40//1 99//1
f 98//2 97//2 100//2 87//2
f 93//3 98//3 87//3 40//3
f 97//4 94//4 99//4 100//4
f 99//1 40//1 41//1 101//1
f 87//2 100//2 102//2 103//2
f 101//1 41//1 43//1 104//1
f 103//2 102//2 105//2 89//2
f 102//4 101//4 104//4 105//4
f 43//6 89//6 105//6 104//6
f 106//1 99//1 101//1 107//1
f 100//2 108//2 109//2 102//2
f 108//4 106//4 107//4 109//4
f 106//5 108//5 100//5 99//5
f 101//6 102//6 109//6 107//6
f 111//2 114//2 115//2 112//2
f 58//5 114//5 111//5 48//5
f 53//6 112//6 115//6 60//6
f 114//2 116//2 117//2 115//2
f 64//5 116//5 114//5 58//5
f 60//6 115//6 117//6 66//6
f 116//2 118//2 119//2 117//2
f 70//5 118//5 116//5 64//5
f 66//6 117//6 119//6 72//6
f 118//2 120//2 121//2 119//2
f 75//5 120//5 118//5 70//5
f 72//6 119//6 121//6 77//6
f 122//2 123//2 124//2 120//2
f 74//3 122//3 120//3 75//3
f 83//5 123//5 122//5 74//5
f 120//2 124//2 125//2 121//2
f 77//6 121//6 125//6 85//6
f 123//2 126//2 127//2 124//2
f 126//4 87//4 103//4 127//4
f 87//5 126//5 123//5 83//5
f 124//2 127//2 128//2 125//2
f 127//4 103//4 89//4 128//4
f 85//6 125//6 128//6 89//6
usemtl flintlockPistol.vox_Material_248
f 14//3 48//3 53//3 15//3
usemtl flintlockPistol.vox_Material_253
f 1//1 2//1 3//1 4//1
f 5//2 6//2 7//2 8//2
f 2//3 5//3 8//3 3//3
f 6//4 1//4 4//4 7//4
f 1//5 6//5 5//5 2//5
f 3//6 8//6 7//6 4//6
f 9//1 10//1 11//1 12//1
f 13//2 14//2 15//2 16//2
f 10//3 13//3 16//3 11//3
f 9//5 14//5 13//5 10//5
f 11//6 16//6 15//6 12//6
f 34//1 29//1 5//1 6//1
f 5//6 31//6 37//6 6//6
f 38//1 32//1 34//1 39//1
f 40//4 38//4 39//4 41//4
f 38//5 40//5 36//5 32//5
f 44//1 45//1 13//1 14//1
f 46//2 47//2 48//2 49//2
f 45//3 46//3 49//3 13//3
f 44//5 47//5 46//5 45//5
f 13//6 49//6 48//6 14//6
f 15//1 16//1 50//1 51//1
f 52//2 53//2 54//2 55//2
f 16//3 52//3 55//3 50//3
f 15//5 53//5 52//5 16//5
f 50//6 55//6 54//6 51//6
f 20//1 15//1 51//1 59//1
f 53//2 60//2 61//2 54//2
f 51//6 54//6 61//6 59//6
f 24//1 20//1 59//1 65//1
f 60//2 66//2 67//2 61//2
f 59//6 61//6 67//6 65//6
f 28//1 24//1 65//1 71//1
f 66//2 72//2 73//2 67//2
f 65//6 67//6 73//6 71//6
f 31//1 28//1 71//1 76//1
f 72//2 77//2 78//2 73//2
f 71//6 73//6 78//6 76//6
f 79//1 80//1 35//1 36//1
f 81//2 82//2 83//2 74//2
f 80//3 81//3 74//3 35//3
f 82//4 79//4 36//4 83//4
f 79//5 82//5 81//5 80//5
f 48//1 49//1 52//1 53//1
f 110//2 111//2 112//2 113//2
f 49//3 110//3 113//3 52//3
f 48//5 111//5 110//5 49//5
f 52//6 113//6 112//6 53//6
usemtl flintlockPistol.vox_Material_255
f 32//1 33//1 29//1 34//1
f 33//3 35//3 30//3 29//3
f 32//5 36//5 35//5 33//5
f 39//1 34//1 6//1 42//1
f 41//4 39//4 42//4 43//4
f 6//6 37//6 43//6 42//6
f 62//1 56//1 19//1 23//1
f 57//2 63//2 64//2 58//2
f 62//5 63//5 57//5 56//5
f 68//1 62//1 23//1 27//1
f 63//2 69//2 70//2 64//2
f 68//5 69//5 63//5 62//5
