# Blender 3.6.7
# www.blender.org
mtllib longSword.mtl
o model_0
v -0.037500 -0.037500 1.462500
v -0.037500 -0.037500 1.537500
v -0.037500 0.037500 1.537500
v -0.037500 0.037500 1.462500
v 0.037500 -0.037500 1.537500
v 0.037500 -0.037500 1.462500
v 0.037500 0.037500 1.462500
v 0.037500 0.037500 1.537500
v -0.037500 -0.112500 1.387500
v -0.037500 -0.112500 1.462500
v -0.037500 -0.037500 1.387500
v 0.037500 -0.112500 1.462500
v 0.037500 -0.112500 1.387500
v 0.037500 -0.037500 1.387500
v -0.037500 0.037500 1.387500
v 0.037500 0.037500 1.387500
v -0.037500 0.112500 1.462500
v -0.037500 0.112500 1.387500
v 0.037500 0.112500 1.387500
v 0.037500 0.112500 1.462500
v -0.037500 -0.112500 1.312500
v -0.037500 -0.037500 1.312500
v 0.037500 -0.112500 1.312500
v 0.037500 -0.037500 1.312500
v -0.037500 0.037500 1.312500
v 0.037500 0.037500 1.312500
v -0.037500 0.112500 1.312500
v 0.037500 0.112500 1.312500
v -0.037500 -0.112500 1.237500
v -0.037500 -0.037500 1.237500
v 0.037500 -0.112500 1.237500
v 0.037500 -0.037500 1.237500
v -0.037500 0.037500 1.237500
v 0.037500 0.037500 1.237500
v -0.037500 0.112500 1.237500
v 0.037500 0.112500 1.237500
v -0.037500 -0.112500 1.162500
v -0.037500 -0.037500 1.162500
v 0.037500 -0.112500 1.162500
v 0.037500 -0.037500 1.162500
v -0.037500 0.037500 1.162500
v 0.037500 0.037500 1.162500
v -0.037500 0.112500 1.162500
v 0.037500 0.112500 1.162500
v -0.037500 -0.112500 1.087500
v -0.037500 -0.037500 1.087500
v 0.037500 -0.112500 1.087500
v 0.037500 -0.037500 1.087500
v -0.037500 0.037500 1.087500
v 0.037500 0.037500 1.087500
v -0.037500 0.112500 1.087500
v 0.037500 0.112500 1.087500
v -0.037500 -0.112500 1.012500
v -0.037500 -0.037500 1.012500
v 0.037500 -0.112500 1.012500
v 0.037500 -0.037500 1.012500
v -0.037500 0.037500 1.012500
v 0.037500 0.037500 1.012500
v -0.037500 0.112500 1.012500
v 0.037500 0.112500 1.012500
v -0.037500 -0.112500 0.937500
v -0.037500 -0.037500 0.937500
v 0.037500 -0.112500 0.937500
v 0.037500 -0.037500 0.937500
v -0.037500 0.037500 0.937500
v 0.037500 0.037500 0.937500
v -0.037500 0.112500 0.937500
v 0.037500 0.112500 0.937500
v -0.037500 -0.112500 0.862500
v -0.037500 -0.037500 0.862500
v 0.037500 -0.112500 0.862500
v 0.037500 -0.037500 0.862500
v -0.037500 0.037500 0.862500
v 0.037500 0.037500 0.862500
v -0.037500 0.112500 0.862500
v 0.037500 0.112500 0.862500
v -0.037500 -0.112500 0.787500
v -0.037500 -0.037500 0.787500
v 0.037500 -0.112500 0.787500
v 0.037500 -0.037500 0.787500
v -0.037500 0.037500 0.787500
v 0.037500 0.037500 0.787500
v -0.037500 0.112500 0.787500
v 0.037500 0.112500 0.787500
v -0.037500 -0.112500 0.712500
v -0.037500 -0.037500 0.712500
v 0.037500 -0.112500 0.712500
v 0.037500 -0.037500 0.712500
v -0.037500 0.037500 0.712500
v 0.037500 0.037500 0.712500
v -0.037500 0.112500 0.712500
v 0.037500 0.112500 0.712500
v -0.037500 -0.112500 0.637500
v -0.037500 -0.037500 0.637500
v 0.037500 -0.112500 0.637500
v 0.037500 -0.037500 0.637500
v -0.037500 0.037500 0.637500
v 0.037500 0.037500 0.637500
v -0.037500 0.112500 0.637500
v 0.037500 0.112500 0.637500
v -0.037500 -0.112500 0.562500
v -0.037500 -0.037500 0.562500
v 0.037500 -0.112500 0.562500
v 0.037500 -0.037500 0.562500
v -0.037500 0.037500 0.562500
v 0.037500 0.037500 0.562500
v -0.037500 0.112500 0.562500
v 0.037500 0.112500 0.562500
v -0.037500 -0.112500 0.487500
v -0.037500 -0.037500 0.487500
v 0.037500 -0.112500 0.487500
v 0.037500 -0.037500 0.487500
v -0.037500 0.037500 0.487500
v 0.037500 0.037500 0.487500
v -0.037500 0.112500 0.487500
v 0.037500 0.112500 0.487500
v -0.037500 -0.112500 0.412500
v -0.037500 -0.037500 0.412500
v 0.037500 -0.112500 0.412500
v 0.037500 -0.037500 0.412500
v -0.037500 0.037500 0.412500
v 0.037500 0.037500 0.412500
v -0.037500 0.112500 0.412500
v 0.037500 0.112500 0.412500
v -0.037500 -0.112500 0.337500
v -0.037500 -0.037500 0.337500
v 0.037500 -0.112500 0.337500
v 0.037500 -0.037500 0.337500
v -0.037500 0.037500 0.337500
v 0.037500 0.037500 0.337500
v -0.037500 0.112500 0.337500
v 0.037500 0.112500 0.337500
v -0.037500 -0.112500 0.262500
v -0.037500 -0.037500 0.262500
v 0.037500 -0.112500 0.262500
v 0.037500 -0.037500 0.262500
v -0.037500 0.037500 0.262500
v 0.037500 0.037500 0.262500
v -0.037500 0.112500 0.262500
v 0.037500 0.112500 0.262500
v -0.037500 -0.262500 0.187500
v -0.037500 -0.262500 0.262500
v -0.037500 -0.187500 0.262500
v -0.037500 -0.187500 0.187500
v 0.037500 -0.262500 0.262500
v 0.037500 -0.262500 0.187500
v 0.037500 -0.187500 0.187500
v 0.037500 -0.187500 0.262500
v -0.037500 -0.112500 0.187500
v -0.037500 -0.037500 0.187500
v 0.037500 -0.112500 0.187500
v 0.037500 -0.037500 0.187500
v -0.037500 0.037500 0.187500
v 0.037500 0.037500 0.187500
v -0.037500 0.112500 0.187500
v 0.037500 0.112500 0.187500
v -0.037500 0.187500 0.187500
v -0.037500 0.187500 0.262500
v -0.037500 0.262500 0.262500
v -0.037500 0.262500 0.187500
v 0.037500 0.187500 0.262500
v 0.037500 0.187500 0.187500
v 0.037500 0.262500 0.187500
v 0.037500 0.262500 0.262500
v -0.037500 -0.187500 0.112500
v -0.037500 -0.112500 0.112500
v 0.037500 -0.187500 0.112500
v 0.037500 -0.112500 0.112500
v -0.037500 -0.037500 0.112500
v 0.037500 -0.037500 0.112500
v -0.037500 0.037500 0.112500
v 0.037500 0.037500 0.112500
v -0.037500 0.112500 0.112500
v 0.037500 0.112500 0.112500
v -0.037500 0.187500 0.112500
v 0.037500 0.187500 0.112500
v -0.037500 -0.037500 0.037500
v -0.037500 0.037500 0.037500
v 0.037500 -0.037500 0.037500
v 0.037500 0.037500 0.037500
v -0.037500 -0.037500 -0.037500
v -0.037500 0.037500 -0.037500
v 0.037500 -0.037500 -0.037500
v 0.037500 0.037500 -0.037500
v -0.037500 -0.037500 -0.112500
v -0.037500 0.037500 -0.112500
v 0.037500 -0.037500 -0.112500
v 0.037500 0.037500 -0.112500
v -0.037500 -0.037500 -0.187500
v -0.037500 0.037500 -0.187500
v 0.037500 -0.037500 -0.187500
v 0.037500 0.037500 -0.187500
v -0.037500 -0.037500 -0.262500
v -0.037500 0.037500 -0.262500
v 0.037500 -0.037500 -0.262500
v 0.037500 0.037500 -0.262500
v -0.037500 -0.037500 -0.337500
v -0.037500 0.037500 -0.337500
v 0.037500 -0.037500 -0.337500
v 0.037500 0.037500 -0.337500
v -0.037500 -0.037500 -0.412500
v -0.037500 0.037500 -0.412500
v 0.037500 -0.037500 -0.412500
v 0.037500 0.037500 -0.412500
v -0.037500 -0.037500 -0.487500
v -0.037500 0.037500 -0.487500
v 0.037500 -0.037500 -0.487500
v 0.037500 0.037500 -0.487500
vn -1.0000 -0.0000 -0.0000
vn 1.0000 -0.0000 -0.0000
vn -0.0000 -0.0000 1.0000
vn -0.0000 -1.0000 -0.0000
vn -0.0000 1.0000 -0.0000
vn -0.0000 -0.0000 -1.0000
s 0
usemtl longSword.vox_Material_240
f 177//1 169//1 171//1 178//1
f 170//2 179//2 180//2 172//2
f 177//4 179//4 170//4 169//4
f 171//5 172//5 180//5 178//5
f 181//1 177//1 178//1 182//1
f 179//2 183//2 184//2 180//2
f 181//4 183//4 179//4 177//4
f 178//5 180//5 184//5 182//5
f 185//1 181//1 182//1 186//1
f 183//2 187//2 188//2 184//2
f 185//4 187//4 183//4 181//4
f 182//5 184//5 188//5 186//5
f 189//1 185//1 186//1 190//1
f 187//2 191//2 192//2 188//2
f 189//4 191//4 187//4 185//4
f 186//5 188//5 192//5 190//5
f 193//1 189//1 190//1 194//1
f 191//2 195//2 196//2 192//2
f 193//4 195//4 191//4 189//4
f 190//5 192//5 196//5 194//5
f 197//1 193//1 194//1 198//1
f 195//2 199//2 200//2 196//2
f 197//4 199//4 195//4 193//4
f 194//5 196//5 200//5 198//5
f 201//1 197//1 198//1 202//1
f 199//2 203//2 204//2 200//2
f 201//4 203//4 199//4 197//4
f 198//5 200//5 204//5 202//5
usemtl longSword.vox_Material_247
f 38//1 30//1 33//1 41//1
f 32//2 40//2 42//2 34//2
f 46//1 38//1 41//1 49//1
f 40//2 48//2 50//2 42//2
f 54//1 46//1 49//1 57//1
f 48//2 56//2 58//2 50//2
f 62//1 54//1 57//1 65//1
f 56//2 64//2 66//2 58//2
f 70//1 62//1 65//1 73//1
f 64//2 72//2 74//2 66//2
f 78//1 70//1 73//1 81//1
f 72//2 80//2 82//2 74//2
f 86//1 78//1 81//1 89//1
f 80//2 88//2 90//2 82//2
f 94//1 86//1 89//1 97//1
f 88//2 96//2 98//2 90//2
f 102//1 94//1 97//1 105//1
f 96//2 104//2 106//2 98//2
f 110//1 102//1 105//1 113//1
f 104//2 112//2 114//2 106//2
f 118//1 110//1 113//1 121//1
f 112//2 120//2 122//2 114//2
f 126//1 118//1 121//1 129//1
f 120//2 128//2 130//2 122//2
f 134//1 126//1 129//1 137//1
f 128//2 136//2 138//2 130//2
f 150//1 134//1 137//1 153//1
f 136//2 152//2 154//2 138//2
usemtl longSword.vox_Material_253
f 1//1 2//1 3//1 4//1
f 5//2 6//2 7//2 8//2
f 2//3 5//3 8//3 3//3
f 1//4 6//4 5//4 2//4
f 3//5 8//5 7//5 4//5
f 9//1 10//1 1//1 11//1
f 12//2 13//2 14//2 6//2
f 10//3 12//3 6//3 1//3
f 9//4 13//4 12//4 10//4
f 11//1 1//1 4//1 15//1
f 6//2 14//2 16//2 7//2
f 15//1 4//1 17//1 18//1
f 7//2 16//2 19//2 20//2
f 4//3 7//3 20//3 17//3
f 17//5 20//5 19//5 18//5
f 21//1 9//1 11//1 22//1
f 13//2 23//2 24//2 14//2
f 21//4 23//4 13//4 9//4
f 22//1 11//1 15//1 25//1
f 14//2 24//2 26//2 16//2
f 25//1 15//1 18//1 27//1
f 16//2 26//2 28//2 19//2
f 18//5 19//5 28//5 27//5
f 29//1 21//1 22//1 30//1
f 23//2 31//2 32//2 24//2
f 29//4 31//4 23//4 21//4
f 30//1 22//1 25//1 33//1
f 24//2 32//2 34//2 26//2
f 33//1 25//1 27//1 35//1
f 26//2 34//2 36//2 28//2
f 27//5 28//5 36//5 35//5
f 37//1 29//1 30//1 38//1
f 31//2 39//2 40//2 32//2
f 37//4 39//4 31//4 29//4
f 41//1 33//1 35//1 43//1
f 34//2 42//2 44//2 36//2
f 35//5 36//5 44//5 43//5
f 45//1 37//1 38//1 46//1
f 39//2 47//2 48//2 40//2
f 45//4 47//4 39//4 37//4
f 49//1 41//1 43//1 51//1
f 42//2 50//2 52//2 44//2
f 43//5 44//5 52//5 51//5
f 53//1 45//1 46//1 54//1
f 47//2 55//2 56//2 48//2
f 53//4 55//4 47//4 45//4
f 57//1 49//1 51//1 59//1
f 50//2 58//2 60//2 52//2
f 51//5 52//5 60//5 59//5
f 61//1 53//1 54//1 62//1
f 55//2 63//2 64//2 56//2
f 61//4 63//4 55//4 53//4
f 65//1 57//1 59//1 67//1
f 58//2 66//2 68//2 60//2
f 59//5 60//5 68//5 67//5
f 69//1 61//1 62//1 70//1
f 63//2 71//2 72//2 64//2
f 69//4 71//4 63//4 61//4
f 73//1 65//1 67//1 75//1
f 66//2 74//2 76//2 68//2
f 67//5 68//5 76//5 75//5
f 77//1 69//1 70//1 78//1
f 71//2 79//2 80//2 72//2
f 77//4 79//4 71//4 69//4
f 81//1 73//1 75//1 83//1
f 74//2 82//2 84//2 76//2
f 75//5 76//5 84//5 83//5
f 85//1 77//1 78//1 86//1
f 79//2 87//2 88//2 80//2
f 85//4 87//4 79//4 77//4
f 89//1 81//1 83//1 91//1
f 82//2 90//2 92//2 84//2
f 83//5 84//5 92//5 91//5
f 93//1 85//1 86//1 94//1
f 87//2 95//2 96//2 88//2
f 93//4 95//4 87//4 85//4
f 97//1 89//1 91//1 99//1
f 90//2 98//2 100//2 92//2
f 91//5 92//5 100//5 99//5
f 101//1 93//1 94//1 102//1
f 95//2 103//2 104//2 96//2
f 101//4 103//4 95//4 93//4
f 105//1 97//1 99//1 107//1
f 98//2 106//2 108//2 100//2
f 99//5 100//5 108//5 107//5
f 109//1 101//1 102//1 110//1
f 103//2 111//2 112//2 104//2
f 109//4 111//4 103//4 101//4
f 113//1 105//1 107//1 115//1
f 106//2 114//2 116//2 108//2
f 107//5 108//5 116//5 115//5
f 117//1 109//1 110//1 118//1
f 111//2 119//2 120//2 112//2
f 117//4 119//4 111//4 109//4
f 121//1 113//1 115//1 123//1
f 114//2 122//2 124//2 116//2
f 115//5 116//5 124//5 123//5
f 125//1 117//1 118//1 126//1
f 119//2 127//2 128//2 120//2
f 125//4 127//4 119//4 117//4
f 129//1 121//1 123//1 131//1
f 122//2 130//2 132//2 124//2
f 123//5 124//5 132//5 131//5
f 133//1 125//1 126//1 134//1
f 127//2 135//2 136//2 128//2
f 133//4 135//4 127//4 125//4
f 137//1 129//1 131//1 139//1
f 130//2 138//2 140//2 132//2
f 131//5 132//5 140//5 139//5
f 149//1 133//1 134//1 150//1
f 135//2 151//2 152//2 136//2
f 149//4 151//4 135//4 133//4
f 153//1 137//1 139//1 155//1
f 138//2 154//2 156//2 140//2
f 139//5 140//5 156//5 155//5
usemtl longSword.vox_Material_255
f 141//1 142//1 143//1 144//1
f 145//2 146//2 147//2 148//2
f 142//3 145//3 148//3 143//3
f 146//6 141//6 144//6 147//6
f 141//4 146//4 145//4 142//4
f 143//5 148//5 147//5 144//5
f 157//1 158//1 159//1 160//1
f 161//2 162//2 163//2 164//2
f 158//3 161//3 164//3 159//3
f 162//6 157//6 160//6 163//6
f 157//4 162//4 161//4 158//4
f 159//5 164//5 163//5 160//5
f 165//1 144//1 149//1 166//1
f 147//2 167//2 168//2 151//2
f 144//3 147//3 151//3 149//3
f 167//6 165//6 166//6 168//6
f 165//4 167//4 147//4 144//4
f 166//1 149//1 150//1 169//1
f 151//2 168//2 170//2 152//2
f 168//6 166//6 169//6 170//6
f 169//1 150//1 153//1 171//1
f 152//2 170//2 172//2 154//2
f 171//1 153//1 155//1 173//1
f 154//2 172//2 174//2 156//2
f 172//6 171//6 173//6 174//6
f 173//1 155//1 157//1 175//1
f 156//2 174//2 176//2 162//2
f 155//3 156//3 162//3 157//3
f 174//6 173//6 175//6 176//6
f 157//5 162//5 176//5 175//5
f 205//1 201//1 202//1 206//1
f 203//2 207//2 208//2 204//2
f 207//6 205//6 206//6 208//6
f 205//4 207//4 203//4 201//4
f 202//5 204//5 208//5 206//5
