# Blender 3.6.7
# www.blender.org
mtllib healthPickup.mtl
o model_1
v -0.175000 0.050000 0.075000
v -0.175000 0.450000 0.075000
v -0.175000 0.450000 -0.075000
v -0.175000 0.050000 -0.075000
v -0.125000 0.050000 0.125000
v -0.125000 0.450000 0.125000
v -0.125000 0.450000 0.075000
v -0.125000 0.050000 0.075000
v -0.125000 0.000000 0.075000
v -0.125000 0.050000 -0.075000
v -0.125000 0.000000 -0.075000
v -0.125000 0.500000 0.075000
v -0.125000 0.500000 -0.075000
v -0.125000 0.450000 -0.075000
v -0.125000 0.450000 -0.125000
v -0.125000 0.050000 -0.125000
v -0.075000 0.050000 0.175000
v -0.075000 0.450000 0.175000
v -0.075000 0.450000 0.125000
v -0.075000 0.050000 0.125000
v -0.075000 0.000000 0.125000
v -0.075000 0.050000 0.075000
v -0.075000 0.000000 0.075000
v -0.075000 0.500000 0.125000
v -0.075000 0.500000 0.075000
v -0.075000 0.450000 0.075000
v -0.075000 0.550000 0.075000
v -0.075000 0.550000 -0.075000
v -0.075000 0.500000 -0.075000
v -0.075000 0.550000 0.025000
v -0.075000 0.600000 0.025000
v -0.075000 0.600000 -0.025000
v -0.075000 0.550000 -0.025000
v -0.075000 0.000000 -0.075000
v -0.075000 0.050000 -0.075000
v -0.075000 0.050000 -0.125000
v -0.075000 0.000000 -0.125000
v -0.075000 0.450000 -0.075000
v -0.075000 0.500000 -0.125000
v -0.075000 0.450000 -0.125000
v -0.075000 0.450000 -0.175000
v -0.075000 0.050000 -0.175000
v -0.025000 0.550000 0.075000
v -0.025000 0.600000 0.075000
v -0.025000 0.600000 0.025000
v -0.025000 0.550000 0.025000
v 0.025000 0.550000 0.075000
v 0.025000 0.550000 0.025000
v 0.025000 0.600000 0.025000
v 0.025000 0.600000 0.075000
v -0.025000 0.550000 -0.025000
v -0.025000 0.600000 -0.025000
v -0.025000 0.600000 -0.075000
v -0.025000 0.550000 -0.075000
v 0.025000 0.550000 -0.025000
v 0.025000 0.550000 -0.075000
v 0.025000 0.600000 -0.075000
v 0.025000 0.600000 -0.025000
v 0.075000 0.050000 0.175000
v 0.075000 0.050000 0.125000
v 0.075000 0.450000 0.125000
v 0.075000 0.450000 0.175000
v 0.075000 0.000000 0.125000
v 0.075000 0.000000 0.075000
v 0.075000 0.050000 0.075000
v 0.075000 0.450000 0.075000
v 0.075000 0.500000 0.075000
v 0.075000 0.500000 0.125000
v 0.075000 0.500000 -0.075000
v 0.075000 0.550000 -0.075000
v 0.075000 0.550000 0.075000
v 0.075000 0.550000 0.025000
v 0.075000 0.550000 -0.025000
v 0.075000 0.600000 -0.025000
v 0.075000 0.600000 0.025000
v 0.075000 0.000000 -0.075000
v 0.075000 0.000000 -0.125000
v 0.075000 0.050000 -0.125000
v 0.075000 0.050000 -0.075000
v 0.075000 0.450000 -0.075000
v 0.075000 0.450000 -0.125000
v 0.075000 0.500000 -0.125000
v 0.075000 0.050000 -0.175000
v 0.075000 0.450000 -0.175000
v 0.125000 0.050000 0.125000
v 0.125000 0.050000 0.075000
v 0.125000 0.450000 0.075000
v 0.125000 0.450000 0.125000
v 0.125000 0.000000 0.075000
v 0.125000 0.000000 -0.075000
v 0.125000 0.050000 -0.075000
v 0.125000 0.450000 -0.075000
v 0.125000 0.500000 -0.075000
v 0.125000 0.500000 0.075000
v 0.125000 0.050000 -0.125000
v 0.125000 0.450000 -0.125000
v 0.175000 0.050000 0.075000
v 0.175000 0.050000 -0.075000
v 0.175000 0.450000 -0.075000
v 0.175000 0.450000 0.075000
v -0.125000 0.100000 0.075000
v -0.125000 0.400000 0.075000
v -0.125000 0.400000 -0.075000
v -0.125000 0.100000 -0.075000
v -0.075000 0.100000 0.125000
v -0.075000 0.400000 0.125000
v -0.075000 0.400000 0.075000
v -0.075000 0.100000 0.075000
v -0.075000 0.050000 0.075000
v -0.075000 0.100000 -0.075000
v -0.075000 0.050000 -0.075000
v -0.075000 0.450000 0.075000
v -0.075000 0.450000 -0.075000
v -0.075000 0.400000 -0.075000
v -0.075000 0.650000 0.075000
v -0.075000 0.700000 0.075000
v -0.075000 0.700000 -0.075000
v -0.075000 0.650000 -0.075000
v -0.075000 0.450000 0.025000
v -0.075000 0.500000 0.025000
v -0.075000 0.500000 -0.025000
v -0.075000 0.450000 -0.025000
v -0.075000 0.600000 0.025000
v -0.075000 0.650000 0.025000
v -0.075000 0.650000 -0.025000
v -0.075000 0.600000 -0.025000
v -0.075000 0.700000 0.025000
v -0.075000 0.750000 0.025000
v -0.075000 0.750000 -0.025000
v -0.075000 0.700000 -0.025000
v -0.075000 0.400000 -0.125000
v -0.075000 0.100000 -0.125000
v -0.025000 0.450000 0.075000
v -0.025000 0.500000 0.075000
v -0.025000 0.500000 0.025000
v -0.025000 0.450000 0.025000
v 0.025000 0.450000 0.075000
v 0.025000 0.450000 0.025000
v 0.025000 0.500000 0.025000
v 0.025000 0.500000 0.075000
v -0.025000 0.600000 0.075000
v -0.025000 0.650000 0.075000
v -0.025000 0.650000 0.025000
v -0.025000 0.600000 0.025000
v 0.025000 0.600000 0.075000
v 0.025000 0.600000 0.025000
v 0.025000 0.650000 0.025000
v 0.025000 0.650000 0.075000
v -0.025000 0.700000 0.075000
v -0.025000 0.750000 0.075000
v -0.025000 0.750000 0.025000
v -0.025000 0.700000 0.025000
v 0.025000 0.700000 0.075000
v 0.025000 0.700000 0.025000
v 0.025000 0.750000 0.025000
v 0.025000 0.750000 0.075000
v -0.025000 0.550000 0.025000
v -0.025000 0.550000 -0.025000
v -0.025000 0.500000 -0.025000
v 0.025000 0.500000 -0.025000
v 0.025000 0.550000 -0.025000
v 0.025000 0.550000 0.025000
v -0.025000 0.450000 -0.025000
v -0.025000 0.500000 -0.075000
v -0.025000 0.450000 -0.075000
v 0.025000 0.450000 -0.025000
v 0.025000 0.450000 -0.075000
v 0.025000 0.500000 -0.075000
v -0.025000 0.600000 -0.025000
v -0.025000 0.650000 -0.025000
v -0.025000 0.650000 -0.075000
v -0.025000 0.600000 -0.075000
v 0.025000 0.600000 -0.025000
v 0.025000 0.600000 -0.075000
v 0.025000 0.650000 -0.075000
v 0.025000 0.650000 -0.025000
v -0.025000 0.700000 -0.025000
v -0.025000 0.750000 -0.025000
v -0.025000 0.750000 -0.075000
v -0.025000 0.700000 -0.075000
v 0.025000 0.700000 -0.025000
v 0.025000 0.700000 -0.075000
v 0.025000 0.750000 -0.075000
v 0.025000 0.750000 -0.025000
v 0.075000 0.100000 0.125000
v 0.075000 0.100000 0.075000
v 0.075000 0.400000 0.075000
v 0.075000 0.400000 0.125000
v 0.075000 0.050000 0.075000
v 0.075000 0.050000 -0.075000
v 0.075000 0.100000 -0.075000
v 0.075000 0.400000 -0.075000
v 0.075000 0.450000 -0.075000
v 0.075000 0.450000 0.075000
v 0.075000 0.650000 0.075000
v 0.075000 0.650000 -0.075000
v 0.075000 0.700000 -0.075000
v 0.075000 0.700000 0.075000
v 0.075000 0.450000 0.025000
v 0.075000 0.450000 -0.025000
v 0.075000 0.500000 -0.025000
v 0.075000 0.500000 0.025000
v 0.075000 0.600000 0.025000
v 0.075000 0.600000 -0.025000
v 0.075000 0.650000 -0.025000
v 0.075000 0.650000 0.025000
v 0.075000 0.700000 0.025000
v 0.075000 0.700000 -0.025000
v 0.075000 0.750000 -0.025000
v 0.075000 0.750000 0.025000
v 0.075000 0.100000 -0.125000
v 0.075000 0.400000 -0.125000
v 0.125000 0.100000 0.075000
v 0.125000 0.100000 -0.075000
v 0.125000 0.400000 -0.075000
v 0.125000 0.400000 0.075000
vn -1.0000 -0.0000 -0.0000
vn 1.0000 -0.0000 -0.0000
vn -0.0000 -0.0000 1.0000
vn -0.0000 -0.0000 -1.0000
vn -0.0000 -1.0000 -0.0000
vn -0.0000 1.0000 -0.0000
s 0
usemtl healthPickup.vox_Material_15
f 1//1 2//1 3//1 4//1
f 5//1 6//1 7//1 8//1
f 9//1 8//1 10//1 11//1
f 7//1 12//1 13//1 14//1
f 10//1 14//1 15//1 16//1
f 17//1 18//1 19//1 20//1
f 21//1 20//1 22//1 23//1
f 19//1 24//1 25//1 26//1
f 25//1 27//1 28//1 29//1
f 30//1 31//1 32//1 33//1
f 34//1 35//1 36//1 37//1
f 38//1 29//1 39//1 40//1
f 36//1 40//1 41//1 42//1
f 43//1 44//1 45//1 46//1
f 47//2 48//2 49//2 50//2
f 51//1 52//1 53//1 54//1
f 55//2 56//2 57//2 58//2
f 59//2 60//2 61//2 62//2
f 63//2 64//2 65//2 60//2
f 61//2 66//2 67//2 68//2
f 67//2 69//2 70//2 71//2
f 72//2 73//2 74//2 75//2
f 76//2 77//2 78//2 79//2
f 80//2 81//2 82//2 69//2
f 78//2 83//2 84//2 81//2
f 85//2 86//2 87//2 88//2
f 89//2 90//2 91//2 86//2
f 87//2 92//2 93//2 94//2
f 91//2 95//2 96//2 92//2
f 97//2 98//2 99//2 100//2
f 17//3 59//3 62//3 18//3
f 21//3 63//3 60//3 20//3
f 5//3 20//3 19//3 6//3
f 60//3 85//3 88//3 61//3
f 19//3 61//3 68//3 24//3
f 9//3 23//3 22//3 8//3
f 64//3 89//3 86//3 65//3
f 1//3 8//3 7//3 2//3
f 86//3 97//3 100//3 87//3
f 7//3 26//3 25//3 12//3
f 66//3 87//3 94//3 67//3
f 25//3 67//3 71//3 27//3
f 43//3 47//3 50//3 44//3
f 30//3 46//3 45//3 31//3
f 33//4 32//4 52//4 51//4
f 48//3 72//3 75//3 49//3
f 55//4 58//4 74//4 73//4
f 11//4 10//4 35//4 34//4
f 76//4 79//4 91//4 90//4
f 4//4 3//4 14//4 10//4
f 91//4 92//4 99//4 98//4
f 14//4 13//4 29//4 38//4
f 80//4 69//4 93//4 92//4
f 29//4 28//4 70//4 69//4
f 54//4 53//4 57//4 56//4
f 37//4 36//4 78//4 77//4
f 16//4 15//4 40//4 36//4
f 78//4 81//4 96//4 95//4
f 40//4 39//4 82//4 81//4
f 42//4 41//4 84//4 83//4
f 9//5 11//5 90//5 89//5
f 21//5 23//5 64//5 63//5
f 34//5 37//5 77//5 76//5
f 1//5 4//5 10//5 8//5
f 5//5 8//5 22//5 20//5
f 10//5 16//5 36//5 35//5
f 17//5 20//5 60//5 59//5
f 36//5 42//5 83//5 78//5
f 60//5 65//5 86//5 85//5
f 79//5 78//5 95//5 91//5
f 86//5 91//5 98//5 97//5
f 2//6 7//6 14//6 3//6
f 6//6 19//6 26//6 7//6
f 14//6 38//6 40//6 15//6
f 18//6 62//6 61//6 19//6
f 40//6 81//6 84//6 41//6
f 61//6 88//6 87//6 66//6
f 80//6 92//6 96//6 81//6
f 87//6 100//6 99//6 92//6
f 12//6 25//6 29//6 13//6
f 24//6 68//6 67//6 25//6
f 29//6 69//6 82//6 39//6
f 67//6 94//6 93//6 69//6
f 27//6 43//6 46//6 30//6
f 33//6 51//6 54//6 28//6
f 47//6 71//6 72//6 48//6
f 55//6 73//6 70//6 56//6
f 31//6 75//6 74//6 32//6
f 44//6 50//6 49//6 45//6
f 52//6 58//6 57//6 53//6
usemtl healthPickup.vox_Material_222
f 115//1 116//1 117//1 118//1
f 123//1 124//1 125//1 126//1
f 127//1 128//1 129//1 130//1
f 141//1 142//1 143//1 144//1
f 145//2 146//2 147//2 148//2
f 149//1 150//1 151//1 152//1
f 153//2 154//2 155//2 156//2
f 169//1 170//1 171//1 172//1
f 173//2 174//2 175//2 176//2
f 177//1 178//1 179//1 180//1
f 181//2 182//2 183//2 184//2
f 195//2 196//2 197//2 198//2
f 203//2 204//2 205//2 206//2
f 207//2 208//2 209//2 210//2
f 141//3 145//3 156//3 150//3
f 115//3 142//3 149//3 116//3
f 148//3 195//3 198//3 153//3
f 123//3 144//3 143//3 124//3
f 126//4 125//4 170//4 169//4
f 146//3 203//3 206//3 147//3
f 173//4 176//4 205//4 204//4
f 127//3 152//3 151//3 128//3
f 130//4 129//4 178//4 177//4
f 154//3 207//3 210//3 155//3
f 181//4 184//4 209//4 208//4
f 172//4 179//4 183//4 174//4
f 118//4 117//4 180//4 171//4
f 175//4 182//4 197//4 196//4
f 123//5 126//5 204//5 203//5
f 141//5 144//5 146//5 145//5
f 169//5 172//5 174//5 173//5
f 115//5 124//5 143//5 142//5
f 116//6 149//6 152//6 127//6
f 125//5 118//5 171//5 170//5
f 130//6 177//6 180//6 117//6
f 148//5 147//5 206//5 195//5
f 153//6 198//6 207//6 154//6
f 176//5 175//5 196//5 205//5
f 181//6 208//6 197//6 182//6
f 128//6 210//6 209//6 129//6
f 150//6 156//6 155//6 151//6
f 178//6 184//6 183//6 179//6
usemtl healthPickup.vox_Material_223
f 101//1 102//1 103//1 104//1
f 105//1 106//1 107//1 108//1
f 109//1 108//1 110//1 111//1
f 107//1 112//1 113//1 114//1
f 119//1 120//1 121//1 122//1
f 110//1 114//1 131//1 132//1
f 133//1 134//1 135//1 136//1
f 137//2 138//2 139//2 140//2
f 135//1 157//1 158//1 159//1
f 139//2 160//2 161//2 162//2
f 163//1 159//1 164//1 165//1
f 166//2 167//2 168//2 160//2
f 185//2 186//2 187//2 188//2
f 189//2 190//2 191//2 186//2
f 187//2 192//2 193//2 194//2
f 199//2 200//2 201//2 202//2
f 191//2 211//2 212//2 192//2
f 213//2 214//2 215//2 216//2
f 105//3 185//3 188//3 106//3
f 109//3 189//3 186//3 108//3
f 101//3 108//3 107//3 102//3
f 186//3 213//3 216//3 187//3
f 107//3 187//3 194//3 112//3
f 133//3 137//3 140//3 134//3
f 119//3 136//3 135//3 120//3
f 122//4 121//4 159//4 163//4
f 138//3 199//3 202//3 139//3
f 166//4 160//4 201//4 200//4
f 135//3 139//3 162//3 157//3
f 159//4 158//4 161//4 160//4
f 111//4 110//4 191//4 190//4
f 104//4 103//4 114//4 110//4
f 191//4 192//4 215//4 214//4
f 114//4 113//4 193//4 192//4
f 165//4 164//4 168//4 167//4
f 132//4 131//4 212//4 211//4
f 109//5 111//5 190//5 189//5
f 101//5 104//5 110//5 108//5
f 105//5 108//5 186//5 185//5
f 110//5 132//5 211//5 191//5
f 186//5 191//5 214//5 213//5
f 102//6 107//6 114//6 103//6
f 106//6 188//6 187//6 107//6
f 114//6 192//6 212//6 131//6
f 187//6 216//6 215//6 192//6
f 112//6 133//6 136//6 119//6
f 122//6 163//6 165//6 113//6
f 137//6 194//6 199//6 138//6
f 166//6 200//6 193//6 167//6
f 120//6 135//6 159//6 121//6
f 134//6 140//6 139//6 135//6
f 159//6 160//6 168//6 164//6
f 139//6 202//6 201//6 160//6
f 157//6 162//6 161//6 158//6
