# Blender 3.5.1
# www.blender.org
mtllib woodChair1.mtl
o model_0
v -0.194444 -0.000000 0.125000
v -0.194444 -0.000000 0.175000
v -0.194444 0.066667 0.175000
v -0.194444 0.066667 0.125000
v -0.138889 -0.000000 0.175000
v -0.138889 -0.000000 0.125000
v -0.138889 0.066667 0.125000
v -0.138889 0.066667 0.175000
v -0.194444 0.466667 0.175000
v -0.194444 0.466667 0.125000
v -0.138889 0.400000 0.125000
v -0.138889 0.400000 0.175000
v -0.194444 0.400000 -0.175000
v -0.194444 0.400000 0.125000
v -0.194444 0.466667 -0.175000
v -0.194444 -0.000000 -0.175000
v -0.194444 -0.000000 -0.125000
v -0.194444 0.066667 -0.125000
v -0.194444 0.066667 -0.175000
v -0.138889 -0.000000 -0.125000
v -0.138889 -0.000000 -0.175000
v -0.138889 0.066667 -0.175000
v -0.138889 0.066667 -0.125000
v -0.194444 0.400000 -0.125000
v -0.138889 0.400000 -0.175000
v -0.138889 0.400000 -0.125000
v -0.194444 0.466667 -0.125000
v -0.194444 0.866667 -0.125000
v -0.194444 0.866667 -0.175000
v -0.138889 0.466667 -0.125000
v -0.138889 0.466667 -0.175000
v -0.138889 0.533333 -0.175000
v -0.138889 0.533333 -0.125000
v -0.138889 0.600000 -0.125000
v -0.138889 0.600000 -0.175000
v -0.138889 0.800000 -0.175000
v -0.138889 0.800000 -0.125000
v -0.194444 0.933333 -0.125000
v -0.194444 0.933333 -0.175000
v -0.138889 0.866667 -0.125000
v -0.138889 0.866667 -0.175000
v -0.138889 0.933333 -0.175000
v -0.138889 0.933333 -0.125000
v -0.083333 0.533333 -0.125000
v -0.083333 0.533333 -0.175000
v -0.083333 0.600000 -0.175000
v -0.083333 0.600000 -0.125000
v -0.083333 0.666667 -0.125000
v -0.083333 0.666667 -0.175000
v -0.027778 0.466667 -0.175000
v -0.027778 0.466667 -0.125000
v -0.027778 0.600000 -0.125000
v -0.027778 0.600000 -0.175000
v 0.027778 0.466667 -0.125000
v 0.027778 0.466667 -0.175000
v 0.027778 0.600000 -0.175000
v 0.027778 0.600000 -0.125000
v -0.027778 0.666667 -0.175000
v -0.027778 0.666667 -0.125000
v -0.027778 0.800000 -0.125000
v -0.027778 0.800000 -0.175000
v 0.027778 0.666667 -0.125000
v 0.027778 0.666667 -0.175000
v 0.027778 0.800000 -0.175000
v 0.027778 0.800000 -0.125000
v 0.083333 0.600000 -0.125000
v 0.083333 0.600000 -0.175000
v 0.083333 0.666667 -0.175000
v 0.083333 0.666667 -0.125000
v 0.083333 0.533333 -0.175000
v 0.083333 0.533333 -0.125000
v 0.138889 -0.000000 0.125000
v 0.138889 -0.000000 0.175000
v 0.138889 0.066667 0.175000
v 0.138889 0.066667 0.125000
v 0.194444 -0.000000 0.175000
v 0.194444 -0.000000 0.125000
v 0.194444 0.066667 0.125000
v 0.194444 0.066667 0.175000
v 0.138889 0.400000 0.175000
v 0.138889 0.400000 0.125000
v 0.194444 0.466667 0.125000
v 0.194444 0.466667 0.175000
v 0.194444 0.400000 0.125000
v 0.194444 0.400000 -0.175000
v 0.194444 0.466667 -0.175000
v 0.138889 -0.000000 -0.175000
v 0.138889 -0.000000 -0.125000
v 0.138889 0.066667 -0.125000
v 0.138889 0.066667 -0.175000
v 0.194444 -0.000000 -0.125000
v 0.194444 -0.000000 -0.175000
v 0.194444 0.066667 -0.175000
v 0.194444 0.066667 -0.125000
v 0.138889 0.400000 -0.125000
v 0.138889 0.400000 -0.175000
v 0.194444 0.400000 -0.125000
v 0.138889 0.466667 -0.175000
v 0.138889 0.466667 -0.125000
v 0.138889 0.533333 -0.125000
v 0.138889 0.533333 -0.175000
v 0.194444 0.466667 -0.125000
v 0.194444 0.866667 -0.175000
v 0.194444 0.866667 -0.125000
v 0.138889 0.600000 -0.175000
v 0.138889 0.600000 -0.125000
v 0.138889 0.800000 -0.125000
v 0.138889 0.800000 -0.175000
v 0.138889 0.866667 -0.175000
v 0.138889 0.866667 -0.125000
v 0.138889 0.933333 -0.125000
v 0.138889 0.933333 -0.175000
v 0.194444 0.933333 -0.175000
v 0.194444 0.933333 -0.125000
v -0.138889 0.466667 0.175000
v 0.194444 0.400000 0.175000
v 0.194444 0.800000 -0.125000
v 0.194444 0.800000 -0.175000
v -0.138889 0.466667 0.125000
v -0.138889 0.400000 0.075000
v 0.138889 0.400000 0.075000
v 0.138889 0.466667 0.125000
v 0.138889 0.466667 0.075000
v -0.138889 0.466667 0.075000
v -0.083333 0.400000 -0.125000
v -0.083333 0.400000 0.075000
v -0.083333 0.466667 0.075000
v -0.083333 0.466667 -0.125000
v -0.083333 0.400000 -0.075000
v 0.083333 0.400000 -0.075000
v 0.083333 0.400000 0.075000
v 0.083333 0.466667 0.075000
v 0.083333 0.466667 -0.075000
v -0.083333 0.466667 -0.075000
v 0.138889 0.400000 -0.075000
v 0.138889 0.466667 -0.075000
vn -1.0000 -0.0000 -0.0000
vn 1.0000 -0.0000 -0.0000
vn -0.0000 -0.0000 1.0000
vn -0.0000 -0.0000 -1.0000
vn -0.0000 -1.0000 -0.0000
vn -0.0000 1.0000 -0.0000
s 0
usemtl chair.vox_Material_253
f 1//1 2//1 3//1 4//1
f 5//2 6//2 7//2 8//2
f 16//1 17//1 18//1 19//1
f 20//2 21//2 22//2 23//2
f 29//1 28//1 38//1 39//1
f 40//2 41//2 42//2 43//2
f 44//2 45//2 46//2 47//2
f 46//1 47//1 48//1 49//1
f 66//2 67//2 68//2 69//2
f 70//1 71//1 66//1 67//1
f 72//1 73//1 74//1 75//1
f 76//2 77//2 78//2 79//2
f 87//1 88//1 89//1 90//1
f 91//2 92//2 93//2 94//2
f 109//1 110//1 111//1 112//1
f 104//2 103//2 113//2 114//2
f 2//3 5//3 8//3 3//3
f 6//4 1//4 4//4 7//4
f 73//3 76//3 79//3 74//3
f 77//4 72//4 75//4 78//4
f 17//3 20//3 23//3 18//3
f 21//4 16//4 19//4 22//4
f 28//3 40//3 43//3 38//3
f 41//4 29//4 39//4 42//4
f 33//3 44//3 47//3 34//3
f 45//4 32//4 35//4 46//4
f 47//3 52//3 59//3 48//3
f 53//4 46//4 49//4 58//4
f 57//3 66//3 69//3 62//3
f 67//4 56//4 63//4 68//4
f 71//3 100//3 106//3 66//3
f 101//4 70//4 67//4 105//4
f 88//3 91//3 94//3 89//3
f 92//4 87//4 90//4 93//4
f 110//3 104//3 114//3 111//3
f 103//4 109//4 112//4 113//4
f 1//5 6//5 5//5 2//5
f 16//5 21//5 20//5 17//5
f 72//5 77//5 76//5 73//5
f 87//5 92//5 91//5 88//5
f 120//5 121//5 81//5 11//5
f 119//6 122//6 123//6 124//6
f 26//5 125//5 126//5 120//5
f 124//6 127//6 128//6 30//6
f 125//5 95//5 135//5 129//5
f 134//6 136//6 99//6 128//6
f 130//5 135//5 121//5 131//5
f 132//6 123//6 136//6 133//6
f 32//5 45//5 44//5 33//5
f 34//6 47//6 46//6 35//6
f 70//5 101//5 100//5 71//5
f 66//6 106//6 105//6 67//6
f 46//5 53//5 52//5 47//5
f 48//6 59//6 58//6 49//6
f 56//5 67//5 66//5 57//5
f 62//6 69//6 68//6 63//6
f 38//6 43//6 42//6 39//6
f 111//6 114//6 113//6 112//6
usemtl chair.vox_Material_254
f 4//1 3//1 9//1 10//1
f 8//2 7//2 11//2 12//2
f 13//1 14//1 10//1 15//1
f 19//1 18//1 24//1 13//1
f 23//2 22//2 25//2 26//2
f 15//1 27//1 28//1 29//1
f 30//2 31//2 32//2 33//2
f 34//2 35//2 36//2 37//2
f 75//1 74//1 80//1 81//1
f 79//2 78//2 82//2 83//2
f 84//2 85//2 86//2 82//2
f 90//1 89//1 95//1 96//1
f 94//2 93//2 85//2 97//2
f 98//1 99//1 100//1 101//1
f 102//2 86//2 103//2 104//2
f 105//1 106//1 107//1 108//1
f 3//3 8//3 115//3 9//3
f 7//4 4//4 14//4 11//4
f 12//3 116//3 83//3 115//3
f 74//3 79//3 116//3 80//3
f 78//4 75//4 81//4 84//4
f 18//3 23//3 26//3 24//3
f 22//4 19//4 29//4 41//4
f 27//3 30//3 40//3 28//3
f 85//4 25//4 31//4 86//4
f 37//3 117//3 104//3 40//3
f 118//4 36//4 41//4 103//4
f 89//3 94//3 97//3 95//3
f 93//4 90//4 96//4 85//4
f 99//3 102//3 117//3 107//3
f 86//4 98//4 108//4 118//4
f 9//6 83//6 82//6 10//6
f 24//5 26//5 11//5 14//5
f 10//6 119//6 30//6 27//6
f 11//5 81//5 80//5 12//5
f 25//5 96//5 95//5 26//5
f 30//6 51//6 50//6 31//6
f 54//6 99//6 98//6 55//6
f 95//5 97//5 84//5 81//5
f 122//6 82//6 102//6 99//6
f 36//5 61//5 60//5 37//5
f 40//6 110//6 109//6 41//6
f 64//5 108//5 107//5 65//5
usemtl chair.vox_Material_255
f 50//1 51//1 52//1 53//1
f 54//2 55//2 56//2 57//2
f 58//1 59//1 60//1 61//1
f 62//2 63//2 64//2 65//2
f 51//3 54//3 65//3 60//3
f 55//4 50//4 61//4 64//4
f 129//5 130//5 131//5 126//5
f 127//6 132//6 133//6 134//6
