# Blender 3.6.7
# www.blender.org
mtllib guardianLeftFoot.mtl
o leftFoot
v -0.112500 0.000000 0.112500
v -0.112500 0.000000 0.187500
v -0.112500 0.075000 0.187500
v -0.112500 0.075000 0.112500
v -0.037500 0.000000 0.187500
v -0.037500 0.075000 0.187500
v -0.037500 0.000000 0.112500
v -0.037500 0.075000 0.112500
v 0.037500 0.000000 0.187500
v 0.037500 0.075000 0.187500
v 0.037500 0.000000 0.112500
v 0.037500 0.075000 0.112500
v -0.112500 0.000000 0.037500
v -0.112500 0.075000 0.037500
v -0.037500 0.000000 0.037500
v -0.037500 0.075000 0.037500
v 0.037500 0.000000 0.037500
v -0.037500 0.150000 0.112500
v -0.037500 0.150000 0.037500
v 0.037500 0.150000 0.112500
v 0.037500 0.150000 0.037500
v 0.112500 0.000000 0.187500
v 0.112500 0.000000 0.112500
v 0.112500 0.075000 0.112500
v 0.112500 0.075000 0.187500
v 0.112500 0.000000 0.037500
v 0.112500 0.075000 0.037500
v 0.112500 0.150000 0.037500
v 0.112500 0.150000 0.112500
v -0.112500 0.000000 -0.037500
v -0.112500 0.075000 -0.037500
v -0.037500 0.000000 -0.037500
v 0.037500 0.000000 -0.037500
v -0.112500 0.000000 -0.112500
v -0.112500 0.075000 -0.112500
v -0.037500 0.000000 -0.112500
v -0.037500 0.075000 -0.112500
v 0.037500 0.000000 -0.112500
v 0.037500 0.075000 -0.112500
v -0.112500 0.150000 0.037500
v -0.112500 0.150000 -0.037500
v -0.037500 0.150000 -0.037500
v 0.037500 0.150000 -0.037500
v -0.112500 0.150000 -0.112500
v -0.037500 0.150000 -0.112500
v 0.037500 0.150000 -0.112500
v 0.112500 0.000000 -0.037500
v 0.112500 0.075000 -0.037500
v 0.112500 0.000000 -0.112500
v 0.112500 0.075000 -0.112500
v 0.112500 0.150000 -0.037500
v 0.112500 0.150000 -0.112500
vn -1.0000 -0.0000 -0.0000
vn -0.0000 -0.0000 1.0000
vn -0.0000 -1.0000 -0.0000
vn -0.0000 1.0000 -0.0000
vn 1.0000 -0.0000 -0.0000
vn -0.0000 -0.0000 -1.0000
s 0
usemtl playerGuardian.vox_Material_224
f 1//1 2//1 3//1 4//1
f 2//2 5//2 6//2 3//2
f 1//3 7//3 5//3 2//3
f 3//4 6//4 8//4 4//4
f 5//2 9//2 10//2 6//2
f 7//3 11//3 9//3 5//3
f 6//4 10//4 12//4 8//4
f 13//1 1//1 4//1 14//1
f 13//3 15//3 7//3 1//3
f 4//4 8//4 16//4 14//4
f 15//3 17//3 11//3 7//3
f 22//5 23//5 24//5 25//5
f 9//2 22//2 25//2 10//2
f 11//3 23//3 22//3 9//3
f 10//4 25//4 24//4 12//4
f 23//5 26//5 27//5 24//5
f 17//3 26//3 23//3 11//3
f 30//1 13//1 14//1 31//1
f 30//3 32//3 15//3 13//3
f 32//3 33//3 17//3 15//3
f 34//1 30//1 31//1 35//1
f 36//6 34//6 35//6 37//6
f 34//3 36//3 32//3 30//3
f 38//6 36//6 37//6 39//6
f 36//3 38//3 33//3 32//3
f 26//5 47//5 48//5 27//5
f 33//3 47//3 26//3 17//3
f 47//5 49//5 50//5 48//5
f 49//6 38//6 39//6 50//6
f 38//3 49//3 47//3 33//3
usemtl playerGuardian.vox_Material_232
f 16//1 8//1 18//1 19//1
f 8//2 12//2 20//2 18//2
f 18//4 20//4 21//4 19//4
usemtl playerGuardian.vox_Material_241
f 24//5 27//5 28//5 29//5
f 12//2 24//2 29//2 20//2
f 20//4 29//4 28//4 21//4
usemtl playerGuardian.vox_Material_248
f 31//1 14//1 40//1 41//1
f 14//2 16//2 19//2 40//2
f 40//4 19//4 42//4 41//4
f 19//4 21//4 43//4 42//4
f 35//1 31//1 41//1 44//1
f 37//6 35//6 44//6 45//6
f 41//4 42//4 45//4 44//4
f 27//5 48//5 51//5 28//5
f 21//4 28//4 51//4 43//4
f 48//5 50//5 52//5 51//5
f 50//6 39//6 46//6 52//6
f 43//4 51//4 52//4 46//4
usemtl playerGuardian.vox_Material_252
f 39//6 37//6 45//6 46//6
f 42//4 43//4 46//4 45//4
