# Blender 3.6.7
# www.blender.org
mtllib guardianRightShoulder.mtl
o rightShoulder
v -0.150000 -0.187500 0.037500
v -0.150000 -0.187500 0.112500
v -0.150000 -0.112500 0.112500
v -0.150000 -0.112500 0.037500
v -0.075000 -0.187500 0.112500
v -0.075000 -0.112500 0.112500
v -0.075000 -0.187500 0.037500
v -0.150000 -0.037500 0.112500
v -0.150000 -0.037500 0.037500
v -0.075000 -0.037500 0.112500
v 0.000000 -0.187500 0.112500
v 0.000000 -0.187500 0.037500
v 0.000000 -0.112500 0.037500
v 0.000000 -0.112500 0.112500
v 0.000000 -0.037500 0.037500
v 0.000000 -0.037500 0.112500
v -0.075000 -0.037500 0.037500
v -0.150000 -0.187500 -0.037500
v -0.150000 -0.112500 -0.037500
v -0.075000 -0.187500 -0.037500
v -0.150000 -0.187500 -0.112500
v -0.150000 -0.112500 -0.112500
v -0.075000 -0.187500 -0.112500
v -0.075000 -0.112500 -0.112500
v -0.150000 -0.037500 -0.037500
v -0.150000 -0.037500 -0.112500
v -0.075000 -0.037500 -0.112500
v 0.000000 -0.187500 -0.037500
v 0.000000 -0.112500 -0.037500
v 0.000000 -0.187500 -0.112500
v 0.000000 -0.112500 -0.112500
v 0.000000 -0.037500 -0.037500
v -0.075000 -0.037500 -0.037500
v 0.000000 -0.037500 -0.112500
v -0.225000 -0.037500 0.037500
v -0.225000 -0.037500 0.112500
v -0.225000 0.037500 0.112500
v -0.225000 0.037500 0.037500
v -0.150000 0.037500 0.112500
v -0.150000 0.037500 0.037500
v -0.075000 0.037500 0.037500
v -0.075000 0.037500 0.112500
v -0.150000 0.112500 0.112500
v -0.150000 0.112500 0.037500
v -0.075000 0.112500 0.037500
v -0.075000 0.112500 0.112500
v -0.225000 -0.037500 -0.037500
v -0.225000 0.037500 -0.037500
v -0.075000 0.037500 -0.037500
v -0.225000 -0.037500 -0.112500
v -0.225000 0.037500 -0.112500
v -0.150000 0.037500 -0.112500
v -0.150000 0.037500 -0.037500
v -0.075000 0.037500 -0.112500
v -0.225000 0.112500 0.037500
v -0.225000 0.112500 -0.037500
v -0.150000 0.112500 -0.037500
v -0.075000 0.112500 -0.037500
v -0.150000 0.112500 -0.112500
v -0.075000 0.112500 -0.112500
v -0.225000 0.187500 0.037500
v -0.225000 0.187500 -0.037500
v -0.150000 0.187500 -0.037500
v -0.150000 0.187500 0.037500
vn -1.0000 -0.0000 -0.0000
vn -0.0000 -0.0000 1.0000
vn -0.0000 -1.0000 -0.0000
vn 1.0000 -0.0000 -0.0000
vn -0.0000 1.0000 -0.0000
vn -0.0000 -0.0000 -1.0000
s 0
usemtl playerGuardian.vox_Material_224.001
f 4//1 3//1 8//1 9//1
f 3//2 6//2 10//2 8//2
f 19//1 4//1 9//1 25//1
f 22//1 19//1 25//1 26//1
f 24//6 22//6 26//6 27//6
usemtl playerGuardian.vox_Material_232.001
f 56//1 55//1 61//1 62//1
f 44//4 57//4 63//4 64//4
f 55//2 44//2 64//2 61//2
f 57//6 56//6 62//6 63//6
f 61//5 64//5 63//5 62//5
usemtl playerGuardian.vox_Material_241.001
f 47//1 35//1 38//1 48//1
f 47//3 25//3 9//3 35//3
f 48//1 38//1 55//1 56//1
f 38//2 40//2 44//2 55//2
f 53//6 48//6 56//6 57//6
usemtl playerGuardian.vox_Material_248.001
f 1//1 2//1 3//1 4//1
f 2//2 5//2 6//2 3//2
f 1//3 7//3 5//3 2//3
f 11//4 12//4 13//4 14//4
f 5//2 11//2 14//2 6//2
f 7//3 12//3 11//3 5//3
f 14//4 13//4 15//4 16//4
f 6//2 14//2 16//2 10//2
f 10//5 16//5 15//5 17//5
f 18//1 1//1 4//1 19//1
f 18//3 20//3 7//3 1//3
f 21//1 18//1 19//1 22//1
f 23//6 21//6 22//6 24//6
f 21//3 23//3 20//3 18//3
f 28//4 30//4 31//4 29//4
f 30//6 23//6 24//6 31//6
f 23//3 30//3 28//3 20//3
f 29//4 31//4 34//4 32//4
f 31//6 24//6 27//6 34//6
f 33//5 32//5 34//5 27//5
f 35//1 36//1 37//1 38//1
f 36//2 8//2 39//2 37//2
f 35//3 9//3 8//3 36//3
f 37//5 39//5 40//5 38//5
f 10//4 17//4 41//4 42//4
f 8//2 10//2 42//2 39//2
f 40//1 39//1 43//1 44//1
f 42//4 41//4 45//4 46//4
f 39//2 42//2 46//2 43//2
f 43//5 46//5 45//5 44//5
f 50//1 47//1 48//1 51//1
f 26//6 50//6 51//6 52//6
f 50//3 26//3 25//3 47//3
f 48//5 53//5 52//5 51//5
f 33//4 27//4 54//4 49//4
f 27//6 26//6 52//6 54//6
f 52//1 53//1 57//1 59//1
f 49//4 54//4 60//4 58//4
f 54//6 52//6 59//6 60//6
f 57//5 58//5 60//5 59//5
usemtl playerGuardian.vox_Material_252.001
f 12//4 28//4 29//4 13//4
f 20//3 28//3 12//3 7//3
f 13//4 29//4 32//4 15//4
f 17//5 15//5 32//5 33//5
f 17//4 33//4 49//4 41//4
f 41//4 49//4 58//4 45//4
f 44//5 45//5 58//5 57//5
