# Blender 3.6.7
# www.blender.org
mtllib guardianHead.mtl
o head
v -0.187500 0.000000 0.112500
v -0.187500 0.000000 0.187500
v -0.187500 0.075000 0.187500
v -0.187500 0.075000 0.112500
v -0.112500 0.000000 0.187500
v -0.112500 0.000000 0.112500
v -0.112500 0.075000 0.112500
v -0.112500 0.075000 0.187500
v -0.187500 0.000000 0.037500
v -0.187500 0.075000 0.037500
v -0.112500 0.000000 0.037500
v -0.187500 0.150000 0.187500
v -0.187500 0.150000 0.112500
v -0.112500 0.150000 0.112500
v -0.112500 0.150000 0.187500
v -0.187500 0.150000 0.037500
v -0.037500 0.000000 0.112500
v -0.037500 0.000000 0.187500
v -0.037500 0.075000 0.187500
v -0.037500 0.075000 0.112500
v 0.037500 0.000000 0.187500
v 0.037500 0.000000 0.112500
v 0.037500 0.075000 0.112500
v 0.037500 0.075000 0.187500
v -0.037500 0.000000 0.037500
v 0.037500 0.000000 0.037500
v -0.037500 0.150000 0.187500
v -0.037500 0.150000 0.112500
v 0.037500 0.150000 0.112500
v 0.037500 0.150000 0.187500
v 0.112500 0.000000 0.112500
v 0.112500 0.000000 0.187500
v 0.112500 0.075000 0.187500
v 0.112500 0.075000 0.112500
v 0.187500 0.000000 0.187500
v 0.187500 0.000000 0.112500
v 0.187500 0.075000 0.112500
v 0.187500 0.075000 0.187500
v 0.112500 0.000000 0.037500
v 0.187500 0.000000 0.037500
v 0.187500 0.075000 0.037500
v 0.112500 0.150000 0.187500
v 0.112500 0.150000 0.112500
v 0.187500 0.150000 0.112500
v 0.187500 0.150000 0.187500
v 0.187500 0.150000 0.037500
v -0.187500 0.000000 -0.037500
v -0.187500 0.075000 -0.037500
v -0.112500 0.000000 -0.037500
v -0.187500 0.000000 -0.112500
v -0.187500 0.075000 -0.112500
v -0.112500 0.000000 -0.112500
v -0.112500 0.075000 -0.112500
v -0.187500 0.150000 -0.037500
v -0.187500 0.150000 -0.112500
v -0.037500 0.000000 -0.037500
v 0.037500 0.000000 -0.037500
v -0.037500 0.000000 -0.112500
v 0.037500 0.000000 -0.112500
v 0.112500 0.000000 -0.037500
v 0.187500 0.000000 -0.037500
v 0.187500 0.075000 -0.037500
v 0.112500 0.000000 -0.112500
v 0.187500 0.000000 -0.112500
v 0.187500 0.075000 -0.112500
v 0.112500 0.075000 -0.112500
v 0.187500 0.150000 -0.037500
v 0.187500 0.150000 -0.112500
v -0.112500 0.000000 -0.187500
v -0.112500 0.075000 -0.187500
v -0.037500 0.000000 -0.187500
v -0.037500 0.075000 -0.187500
v 0.037500 0.000000 -0.187500
v 0.037500 0.075000 -0.187500
v -0.112500 0.150000 -0.187500
v -0.037500 0.150000 -0.187500
v 0.037500 0.150000 -0.187500
v 0.112500 0.000000 -0.187500
v 0.112500 0.075000 -0.187500
v 0.112500 0.150000 -0.187500
v 0.187500 0.075000 -0.187500
v 0.187500 0.150000 -0.187500
v -0.187500 0.075000 -0.187500
v -0.187500 0.150000 -0.187500
v -0.187500 0.225000 0.187500
v -0.187500 0.225000 0.112500
v -0.112500 0.225000 0.112500
v -0.112500 0.225000 0.187500
v -0.187500 0.225000 0.037500
v -0.262500 0.225000 0.037500
v -0.262500 0.225000 0.112500
v -0.262500 0.300000 0.112500
v -0.262500 0.300000 0.037500
v -0.187500 0.300000 0.112500
v -0.187500 0.300000 0.037500
v -0.112500 0.300000 0.112500
v -0.112500 0.300000 0.037500
v -0.037500 0.225000 0.187500
v -0.037500 0.225000 0.112500
v 0.037500 0.225000 0.112500
v 0.037500 0.225000 0.187500
v -0.112500 0.300000 0.187500
v -0.037500 0.300000 0.187500
v -0.037500 0.300000 0.112500
v 0.037500 0.300000 0.187500
v 0.112500 0.225000 0.187500
v 0.112500 0.225000 0.112500
v 0.187500 0.225000 0.112500
v 0.187500 0.225000 0.187500
v 0.187500 0.225000 0.037500
v 0.112500 0.300000 0.112500
v 0.112500 0.300000 0.187500
v 0.037500 0.300000 0.112500
v 0.187500 0.300000 0.112500
v 0.187500 0.300000 0.037500
v 0.112500 0.300000 0.037500
v -0.187500 0.225000 -0.037500
v -0.187500 0.225000 -0.112500
v -0.262500 0.225000 -0.037500
v -0.262500 0.300000 -0.037500
v -0.187500 0.300000 -0.037500
v -0.187500 0.300000 -0.112500
v 0.187500 0.225000 -0.037500
v 0.187500 0.225000 -0.112500
v 0.187500 0.300000 -0.112500
v 0.187500 0.300000 -0.037500
v -0.187500 0.225000 -0.187500
v -0.112500 0.225000 -0.187500
v -0.187500 0.300000 -0.187500
v -0.112500 0.300000 -0.187500
v -0.112500 0.300000 -0.112500
v -0.037500 0.225000 -0.187500
v 0.037500 0.225000 -0.187500
v -0.037500 0.300000 -0.187500
v 0.037500 0.300000 -0.187500
v 0.112500 0.225000 -0.187500
v 0.187500 0.225000 -0.187500
v 0.112500 0.300000 -0.187500
v 0.187500 0.300000 -0.187500
v 0.112500 0.300000 -0.112500
v 0.262500 0.225000 0.112500
v 0.262500 0.225000 0.037500
v 0.262500 0.300000 0.037500
v 0.262500 0.300000 0.112500
v 0.262500 0.225000 -0.037500
v 0.262500 0.300000 -0.037500
v -0.337500 0.300000 0.112500
v -0.337500 0.300000 0.187500
v -0.337500 0.375000 0.187500
v -0.337500 0.375000 0.112500
v -0.262500 0.300000 0.187500
v -0.262500 0.375000 0.112500
v -0.262500 0.375000 0.187500
v -0.337500 0.300000 0.037500
v -0.337500 0.375000 0.037500
v -0.262500 0.375000 0.037500
v -0.337500 0.450000 0.187500
v -0.337500 0.450000 0.112500
v -0.262500 0.450000 0.112500
v -0.262500 0.450000 0.187500
v -0.037500 0.375000 0.187500
v -0.037500 0.375000 0.112500
v 0.037500 0.375000 0.112500
v 0.037500 0.375000 0.187500
v -0.112500 0.375000 0.112500
v -0.112500 0.375000 0.037500
v -0.037500 0.375000 0.037500
v 0.037500 0.375000 0.037500
v 0.262500 0.300000 0.187500
v 0.262500 0.375000 0.187500
v 0.262500 0.375000 0.112500
v 0.337500 0.300000 0.187500
v 0.337500 0.300000 0.112500
v 0.337500 0.375000 0.112500
v 0.337500 0.375000 0.187500
v 0.262500 0.375000 0.037500
v 0.337500 0.300000 0.037500
v 0.337500 0.375000 0.037500
v 0.262500 0.450000 0.187500
v 0.262500 0.450000 0.112500
v 0.337500 0.450000 0.112500
v 0.337500 0.450000 0.187500
v 0.112500 0.375000 0.037500
v 0.112500 0.375000 0.112500
v -0.187500 0.375000 0.037500
v -0.187500 0.375000 -0.037500
v -0.112500 0.375000 -0.037500
v -0.187500 0.375000 -0.112500
v -0.112500 0.375000 -0.112500
v -0.037500 0.375000 -0.037500
v 0.037500 0.375000 -0.037500
v -0.037500 0.375000 -0.112500
v 0.037500 0.375000 -0.112500
v 0.112500 0.375000 -0.037500
v 0.187500 0.375000 -0.037500
v 0.187500 0.375000 0.037500
v 0.112500 0.375000 -0.112500
v 0.187500 0.375000 -0.112500
v -0.112500 0.375000 -0.187500
v -0.037500 0.375000 -0.187500
v 0.037500 0.375000 -0.187500
v 0.112500 0.375000 -0.187500
vn -1.0000 -0.0000 -0.0000
vn 1.0000 -0.0000 -0.0000
vn -0.0000 -0.0000 1.0000
vn -0.0000 -1.0000 -0.0000
vn -0.0000 -0.0000 -1.0000
vn -0.0000 1.0000 -0.0000
s 0
usemtl playerGuardian.vox_Material_232
f 147//1 148//1 149//1 150//1
f 151//2 92//2 152//2 153//2
f 148//3 151//3 153//3 149//3
f 147//4 92//4 151//4 148//4
f 150//1 149//1 157//1 158//1
f 153//2 152//2 159//2 160//2
f 149//3 153//3 160//3 157//3
f 152//5 150//5 158//5 159//5
f 157//6 160//6 159//6 158//6
f 144//1 169//1 170//1 171//1
f 172//2 173//2 174//2 175//2
f 169//3 172//3 175//3 170//3
f 144//4 173//4 172//4 169//4
f 171//1 170//1 179//1 180//1
f 175//2 174//2 181//2 182//2
f 170//3 175//3 182//3 179//3
f 174//5 171//5 180//5 181//5
f 179//6 182//6 181//6 180//6
usemtl playerGuardian.vox_Material_240
f 6//3 17//3 20//3 7//3
f 11//4 25//4 17//4 6//4
f 25//4 26//4 22//4 17//4
f 7//3 20//3 28//3 14//3
f 22//3 31//3 34//3 23//3
f 26//4 39//4 31//4 22//4
f 23//3 34//3 43//3 29//3
f 49//4 56//4 25//4 11//4
f 56//4 57//4 26//4 25//4
f 52//4 58//4 56//4 49//4
f 58//4 59//4 57//4 56//4
f 57//4 60//4 39//4 26//4
f 59//4 63//4 60//4 57//4
f 14//3 28//3 99//3 87//3
f 29//3 43//3 107//3 100//3
usemtl playerGuardian.vox_Material_241
f 90//1 91//1 92//1 93//1
f 91//3 86//3 94//3 92//3
f 90//4 89//4 86//4 91//4
f 92//6 94//6 95//6 93//6
f 119//1 90//1 93//1 120//1
f 117//5 119//5 120//5 121//5
f 119//4 117//4 89//4 90//4
f 93//6 95//6 121//6 120//6
f 141//2 142//2 143//2 144//2
f 108//3 141//3 144//3 114//3
f 110//4 142//4 141//4 108//4
f 114//6 144//6 143//6 115//6
f 142//2 145//2 146//2 143//2
f 145//5 123//5 126//5 146//5
f 123//4 145//4 142//4 110//4
f 115//6 143//6 146//6 126//6
f 154//1 147//1 150//1 155//1
f 92//2 93//2 156//2 152//2
f 93//5 154//5 155//5 156//5
f 154//4 93//4 92//4 147//4
f 150//6 152//6 156//6 155//6
f 143//1 144//1 171//1 176//1
f 173//2 177//2 178//2 174//2
f 177//5 143//5 176//5 178//5
f 143//4 177//4 173//4 144//4
f 171//6 174//6 178//6 176//6
usemtl playerGuardian.vox_Material_248
f 1//1 2//1 3//1 4//1
f 5//2 6//2 7//2 8//2
f 2//3 5//3 8//3 3//3
f 1//4 6//4 5//4 2//4
f 9//1 1//1 4//1 10//1
f 9//4 11//4 6//4 1//4
f 4//1 3//1 12//1 13//1
f 8//2 7//2 14//2 15//2
f 3//3 8//3 15//3 12//3
f 10//1 4//1 13//1 16//1
f 17//1 18//1 19//1 20//1
f 21//2 22//2 23//2 24//2
f 18//3 21//3 24//3 19//3
f 17//4 22//4 21//4 18//4
f 20//1 19//1 27//1 28//1
f 24//2 23//2 29//2 30//2
f 19//3 24//3 30//3 27//3
f 31//1 32//1 33//1 34//1
f 35//2 36//2 37//2 38//2
f 32//3 35//3 38//3 33//3
f 31//4 36//4 35//4 32//4
f 36//2 40//2 41//2 37//2
f 39//4 40//4 36//4 31//4
f 34//1 33//1 42//1 43//1
f 38//2 37//2 44//2 45//2
f 33//3 38//3 45//3 42//3
f 37//2 41//2 46//2 44//2
f 48//1 10//1 16//1 54//1
f 41//2 62//2 67//2 46//2
f 13//1 12//1 85//1 86//1
f 15//2 14//2 87//2 88//2
f 12//3 15//3 88//3 85//3
f 85//6 88//6 87//6 86//6
f 16//1 13//1 86//1 89//1
f 86//3 87//3 96//3 94//3
f 94//6 96//6 97//6 95//6
f 28//1 27//1 98//1 99//1
f 30//2 29//2 100//2 101//2
f 27//3 30//3 101//3 98//3
f 87//1 88//1 102//1 96//1
f 88//3 98//3 103//3 102//3
f 87//4 99//4 98//4 88//4
f 102//6 103//6 104//6 96//6
f 98//3 101//3 105//3 103//3
f 43//1 42//1 106//1 107//1
f 45//2 44//2 108//2 109//2
f 42//3 45//3 109//3 106//3
f 106//6 109//6 108//6 107//6
f 44//2 46//2 110//2 108//2
f 106//2 107//2 111//2 112//2
f 101//3 106//3 112//3 105//3
f 100//4 107//4 106//4 101//4
f 105//6 112//6 111//6 113//6
f 107//3 108//3 114//3 111//3
f 111//6 114//6 115//6 116//6
f 54//1 16//1 89//1 117//1
f 55//1 54//1 117//1 118//1
f 118//1 117//1 121//1 122//1
f 46//2 67//2 123//2 110//2
f 67//2 68//2 124//2 123//2
f 123//2 124//2 125//2 126//2
f 104//1 103//1 161//1 162//1
f 105//2 113//2 163//2 164//2
f 103//3 105//3 164//3 161//3
f 161//6 164//6 163//6 162//6
f 97//1 96//1 165//1 166//1
f 96//3 104//3 162//3 165//3
f 165//6 162//6 167//6 166//6
f 162//6 163//6 168//6 167//6
f 111//2 116//2 183//2 184//2
f 113//3 111//3 184//3 163//3
f 163//6 184//6 183//6 168//6
f 121//1 95//1 185//1 186//1
f 95//3 97//3 166//3 185//3
f 185//6 166//6 187//6 186//6
f 122//1 121//1 186//1 188//1
f 131//5 122//5 188//5 189//5
f 186//6 187//6 189//6 188//6
f 166//6 167//6 190//6 187//6
f 167//6 168//6 191//6 190//6
f 190//6 191//6 193//6 192//6
f 168//6 183//6 194//6 191//6
f 115//2 126//2 195//2 196//2
f 116//3 115//3 196//3 183//3
f 183//6 196//6 195//6 194//6
f 126//2 125//2 198//2 195//2
f 125//5 140//5 197//5 198//5
f 194//6 195//6 198//6 197//6
f 135//5 134//5 200//5 201//5
f 192//6 193//6 201//6 200//6
usemtl playerGuardian.vox_Material_252
f 47//1 9//1 10//1 48//1
f 47//4 49//4 11//4 9//4
f 50//1 47//1 48//1 51//1
f 52//5 50//5 51//5 53//5
f 50//4 52//4 49//4 47//4
f 51//1 48//1 54//1 55//1
f 40//2 61//2 62//2 41//2
f 60//4 61//4 40//4 39//4
f 61//2 64//2 65//2 62//2
f 64//5 63//5 66//5 65//5
f 63//4 64//4 61//4 60//4
f 62//2 65//2 68//2 67//2
f 69//1 52//1 53//1 70//1
f 71//5 69//5 70//5 72//5
f 69//4 71//4 58//4 52//4
f 73//5 71//5 72//5 74//5
f 71//4 73//4 59//4 58//4
f 72//5 70//5 75//5 76//5
f 74//5 72//5 76//5 77//5
f 63//2 78//2 79//2 66//2
f 78//5 73//5 74//5 79//5
f 73//4 78//4 63//4 59//4
f 79//5 74//5 77//5 80//5
f 65//2 81//2 82//2 68//2
f 81//5 79//5 80//5 82//5
f 79//4 81//4 65//4 66//4
f 83//1 51//1 55//1 84//1
f 70//5 83//5 84//5 75//5
f 83//4 70//4 53//4 51//4
f 84//1 55//1 118//1 127//1
f 75//5 84//5 127//5 128//5
f 127//1 118//1 122//1 129//1
f 128//5 127//5 129//5 130//5
f 122//6 131//6 130//6 129//6
f 76//5 75//5 128//5 132//5
f 77//5 76//5 132//5 133//5
f 132//5 128//5 130//5 134//5
f 133//5 132//5 134//5 135//5
f 80//5 77//5 133//5 136//5
f 68//2 82//2 137//2 124//2
f 82//5 80//5 136//5 137//5
f 136//5 133//5 135//5 138//5
f 124//2 137//2 139//2 125//2
f 137//5 136//5 138//5 139//5
f 140//6 125//6 139//6 138//6
f 187//6 190//6 192//6 189//6
f 191//6 194//6 197//6 193//6
f 130//1 131//1 189//1 199//1
f 134//5 130//5 199//5 200//5
f 189//6 192//6 200//6 199//6
f 140//2 138//2 202//2 197//2
f 138//5 135//5 201//5 202//5
f 193//6 197//6 202//6 201//6
