# Blender 3.6.7
# www.blender.org
mtllib guardianLeftShoulder.mtl
o leftShoulder
v 0.000000 -0.187500 0.037500
v 0.000000 -0.187500 0.112500
v 0.000000 -0.112500 0.112500
v 0.000000 -0.112500 0.037500
v 0.075000 -0.187500 0.112500
v 0.075000 -0.112500 0.112500
v 0.075000 -0.187500 0.037500
v 0.150000 -0.187500 0.112500
v 0.150000 -0.187500 0.037500
v 0.150000 -0.112500 0.037500
v 0.150000 -0.112500 0.112500
v 0.000000 -0.037500 0.112500
v 0.000000 -0.037500 0.037500
v 0.075000 -0.037500 0.112500
v 0.075000 -0.037500 0.037500
v 0.150000 -0.037500 0.037500
v 0.150000 -0.037500 0.112500
v 0.000000 -0.187500 -0.037500
v 0.000000 -0.112500 -0.037500
v 0.075000 -0.187500 -0.037500
v 0.150000 -0.187500 -0.037500
v 0.150000 -0.112500 -0.037500
v 0.000000 -0.187500 -0.112500
v 0.000000 -0.112500 -0.112500
v 0.075000 -0.187500 -0.112500
v 0.075000 -0.112500 -0.112500
v 0.150000 -0.187500 -0.112500
v 0.150000 -0.112500 -0.112500
v 0.000000 -0.037500 -0.037500
v 0.075000 -0.037500 -0.037500
v 0.150000 -0.037500 -0.037500
v 0.000000 -0.037500 -0.112500
v 0.075000 -0.037500 -0.112500
v 0.150000 -0.037500 -0.112500
v 0.075000 0.037500 0.112500
v 0.075000 0.037500 0.037500
v 0.150000 0.037500 0.112500
v 0.075000 0.112500 0.112500
v 0.075000 0.112500 0.037500
v 0.150000 0.037500 0.037500
v 0.150000 0.112500 0.037500
v 0.150000 0.112500 0.112500
v 0.225000 -0.037500 0.112500
v 0.225000 -0.037500 0.037500
v 0.225000 0.037500 0.037500
v 0.225000 0.037500 0.112500
v 0.075000 0.037500 -0.037500
v 0.075000 0.037500 -0.112500
v 0.150000 0.037500 -0.112500
v 0.075000 0.112500 -0.037500
v 0.150000 0.112500 -0.037500
v 0.075000 0.112500 -0.112500
v 0.150000 0.037500 -0.037500
v 0.150000 0.112500 -0.112500
v 0.225000 -0.037500 -0.037500
v 0.225000 0.037500 -0.037500
v 0.225000 -0.037500 -0.112500
v 0.225000 0.037500 -0.112500
v 0.225000 0.112500 -0.037500
v 0.225000 0.112500 0.037500
v 0.150000 0.187500 0.037500
v 0.150000 0.187500 -0.037500
v 0.225000 0.187500 -0.037500
v 0.225000 0.187500 0.037500
vn -1.0000 -0.0000 -0.0000
vn -0.0000 -0.0000 1.0000
vn -0.0000 -1.0000 -0.0000
vn 1.0000 -0.0000 -0.0000
vn -0.0000 1.0000 -0.0000
vn -0.0000 -0.0000 -1.0000
s 0
usemtl playerGuardian.vox_Material_224.001
f 11//4 10//4 16//4 17//4
f 6//2 11//2 17//2 14//2
f 10//4 22//4 31//4 16//4
f 22//4 28//4 34//4 31//4
f 28//6 26//6 33//6 34//6
usemtl playerGuardian.vox_Material_232.001
f 51//1 41//1 61//1 62//1
f 60//4 59//4 63//4 64//4
f 41//2 60//2 64//2 61//2
f 59//6 51//6 62//6 63//6
f 61//5 64//5 63//5 62//5
usemtl playerGuardian.vox_Material_241.001
f 44//4 55//4 56//4 45//4
f 31//3 55//3 44//3 16//3
f 45//4 56//4 59//4 60//4
f 40//2 45//2 60//2 41//2
f 56//6 53//6 51//6 59//6
usemtl playerGuardian.vox_Material_248.001
f 1//1 2//1 3//1 4//1
f 2//2 5//2 6//2 3//2
f 1//3 7//3 5//3 2//3
f 8//4 9//4 10//4 11//4
f 5//2 8//2 11//2 6//2
f 7//3 9//3 8//3 5//3
f 4//1 3//1 12//1 13//1
f 3//2 6//2 14//2 12//2
f 12//5 14//5 15//5 13//5
f 9//4 21//4 22//4 10//4
f 20//3 21//3 9//3 7//3
f 23//1 18//1 19//1 24//1
f 25//6 23//6 24//6 26//6
f 23//3 25//3 20//3 18//3
f 21//4 27//4 28//4 22//4
f 27//6 25//6 26//6 28//6
f 25//3 27//3 21//3 20//3
f 24//1 19//1 29//1 32//1
f 26//6 24//6 32//6 33//6
f 29//5 30//5 33//5 32//5
f 15//1 14//1 35//1 36//1
f 14//2 17//2 37//2 35//2
f 36//1 35//1 38//1 39//1
f 37//4 40//4 41//4 42//4
f 35//2 37//2 42//2 38//2
f 38//5 42//5 41//5 39//5
f 43//4 44//4 45//4 46//4
f 17//2 43//2 46//2 37//2
f 16//3 44//3 43//3 17//3
f 37//5 46//5 45//5 40//5
f 33//1 30//1 47//1 48//1
f 34//6 33//6 48//6 49//6
f 48//1 47//1 50//1 52//1
f 53//4 49//4 54//4 51//4
f 49//6 48//6 52//6 54//6
f 50//5 51//5 54//5 52//5
f 55//4 57//4 58//4 56//4
f 57//6 34//6 49//6 58//6
f 34//3 57//3 55//3 31//3
f 53//5 56//5 58//5 49//5
usemtl playerGuardian.vox_Material_252.001
f 18//1 1//1 4//1 19//1
f 18//3 20//3 7//3 1//3
f 19//1 4//1 13//1 29//1
f 13//5 15//5 30//5 29//5
f 30//1 15//1 36//1 47//1
f 47//1 36//1 39//1 50//1
f 39//5 41//5 51//5 50//5
