# Blender 3.6.7
# www.blender.org
mtllib guardianTorso.mtl
o torso
v -0.112500 -0.225000 0.037500
v -0.112500 -0.225000 0.112500
v -0.112500 -0.150000 0.112500
v -0.112500 -0.150000 0.037500
v -0.037500 -0.225000 0.112500
v -0.037500 -0.150000 0.112500
v -0.037500 -0.225000 0.037500
v 0.037500 -0.225000 0.112500
v 0.037500 -0.150000 0.112500
v 0.037500 -0.225000 0.037500
v 0.112500 -0.225000 0.112500
v 0.112500 -0.225000 0.037500
v 0.112500 -0.150000 0.037500
v 0.112500 -0.150000 0.112500
v -0.112500 -0.225000 -0.037500
v -0.112500 -0.150000 -0.037500
v -0.037500 -0.225000 -0.037500
v 0.037500 -0.225000 -0.037500
v -0.112500 -0.225000 -0.112500
v -0.112500 -0.150000 -0.112500
v -0.037500 -0.225000 -0.112500
v -0.037500 -0.150000 -0.112500
v 0.037500 -0.225000 -0.112500
v 0.037500 -0.150000 -0.112500
v 0.112500 -0.225000 -0.037500
v 0.112500 -0.150000 -0.037500
v 0.112500 -0.225000 -0.112500
v 0.112500 -0.150000 -0.112500
v -0.112500 -0.075000 0.112500
v -0.112500 -0.075000 0.037500
v -0.037500 -0.075000 0.112500
v 0.037500 -0.075000 0.112500
v -0.037500 -0.075000 0.187500
v -0.037500 -0.000000 0.187500
v -0.037500 -0.000000 0.112500
v 0.037500 -0.075000 0.187500
v 0.037500 -0.000000 0.112500
v 0.037500 -0.000000 0.187500
v -0.112500 -0.000000 0.112500
v 0.112500 -0.075000 0.037500
v 0.112500 -0.075000 0.112500
v 0.112500 -0.000000 0.112500
v 0.187500 -0.075000 0.112500
v 0.187500 -0.075000 0.037500
v 0.187500 -0.000000 0.037500
v 0.187500 -0.000000 0.112500
v -0.187500 -0.150000 -0.037500
v -0.187500 -0.150000 0.037500
v -0.187500 -0.075000 0.037500
v -0.187500 -0.075000 -0.037500
v -0.112500 -0.075000 -0.037500
v -0.187500 -0.000000 0.037500
v -0.187500 -0.000000 -0.037500
v -0.187500 -0.075000 -0.112500
v -0.187500 -0.000000 -0.112500
v -0.112500 -0.075000 -0.112500
v -0.112500 -0.000000 -0.112500
v -0.037500 -0.075000 -0.112500
v 0.037500 -0.075000 -0.112500
v -0.037500 -0.000000 -0.112500
v 0.187500 -0.150000 0.037500
v 0.187500 -0.150000 -0.037500
v 0.187500 -0.075000 -0.037500
v 0.112500 -0.075000 -0.037500
v 0.112500 -0.075000 -0.112500
v 0.187500 -0.000000 -0.037500
v 0.037500 -0.000000 -0.112500
v 0.112500 -0.000000 -0.112500
v 0.187500 -0.075000 -0.112500
v 0.187500 -0.000000 -0.112500
v -0.187500 -0.075000 0.112500
v -0.187500 -0.000000 0.112500
v -0.037500 -0.075000 -0.187500
v -0.037500 -0.000000 -0.187500
v 0.037500 -0.075000 -0.187500
v 0.037500 -0.000000 -0.187500
v -0.112500 -0.000000 0.187500
v -0.112500 0.075000 0.187500
v -0.112500 0.075000 0.112500
v -0.037500 0.075000 0.187500
v 0.037500 0.075000 0.187500
v -0.037500 0.150000 0.187500
v -0.112500 0.150000 0.187500
v 0.037500 0.150000 0.187500
v 0.112500 -0.000000 0.187500
v 0.112500 0.075000 0.112500
v 0.112500 0.075000 0.187500
v 0.187500 0.075000 0.037500
v 0.187500 0.075000 0.112500
v 0.112500 0.150000 0.187500
v 0.187500 0.075000 0.187500
v 0.187500 0.150000 0.112500
v 0.187500 0.150000 0.187500
v -0.187500 0.075000 0.112500
v -0.187500 0.075000 0.037500
v -0.187500 0.075000 0.187500
v -0.187500 0.150000 0.187500
v -0.187500 0.150000 0.112500
v -0.262500 0.075000 0.037500
v -0.262500 0.075000 0.112500
v -0.262500 0.150000 0.112500
v -0.262500 0.150000 0.037500
v -0.262500 -0.000000 -0.037500
v -0.262500 -0.000000 0.037500
v -0.262500 0.075000 -0.037500
v -0.187500 0.075000 -0.037500
v -0.187500 0.075000 -0.112500
v -0.112500 0.075000 -0.112500
v -0.262500 0.150000 -0.037500
v -0.262500 0.075000 -0.112500
v -0.262500 0.150000 -0.112500
v -0.187500 0.150000 -0.112500
v 0.187500 0.075000 -0.112500
v 0.187500 0.075000 -0.037500
v 0.112500 0.075000 -0.112500
v 0.262500 -0.000000 0.037500
v 0.262500 -0.000000 -0.037500
v 0.262500 0.075000 -0.037500
v 0.262500 0.075000 0.037500
v 0.262500 0.150000 -0.037500
v 0.262500 0.150000 0.037500
v 0.262500 0.075000 -0.112500
v 0.262500 0.150000 -0.112500
v 0.187500 0.150000 -0.112500
v -0.112500 -0.000000 -0.187500
v -0.112500 0.075000 -0.187500
v -0.037500 0.075000 -0.187500
v 0.037500 0.075000 -0.187500
v -0.112500 0.150000 -0.187500
v -0.037500 0.150000 -0.187500
v 0.037500 0.150000 -0.187500
v 0.112500 -0.000000 -0.187500
v 0.112500 0.075000 -0.187500
v 0.112500 0.150000 -0.187500
v 0.187500 0.075000 -0.187500
v 0.187500 0.150000 -0.187500
v 0.262500 0.075000 0.112500
v 0.262500 0.150000 0.112500
v -0.187500 0.075000 -0.187500
v -0.187500 0.150000 -0.187500
v -0.187500 0.225000 0.187500
v -0.187500 0.225000 0.112500
v -0.112500 0.225000 0.187500
v -0.262500 0.225000 0.112500
v -0.262500 0.225000 0.037500
v -0.262500 0.225000 0.187500
v -0.262500 0.300000 0.187500
v -0.262500 0.300000 0.112500
v -0.187500 0.300000 0.187500
v -0.112500 0.300000 0.187500
v -0.112500 0.300000 0.112500
v -0.187500 0.300000 0.112500
v -0.187500 0.300000 0.037500
v -0.262500 0.300000 0.037500
v -0.112500 0.300000 0.037500
v -0.037500 0.225000 0.187500
v 0.037500 0.225000 0.187500
v -0.037500 0.300000 0.187500
v -0.037500 0.300000 0.112500
v 0.037500 0.300000 0.187500
v 0.037500 0.300000 0.112500
v -0.037500 0.300000 0.037500
v 0.037500 0.300000 0.037500
v 0.112500 0.225000 0.187500
v 0.187500 0.225000 0.112500
v 0.187500 0.225000 0.187500
v 0.112500 0.300000 0.187500
v 0.112500 0.300000 0.112500
v 0.187500 0.300000 0.187500
v 0.187500 0.300000 0.112500
v 0.112500 0.300000 0.037500
v 0.187500 0.300000 0.037500
v 0.262500 0.225000 0.037500
v 0.262500 0.225000 0.112500
v 0.262500 0.225000 0.187500
v 0.262500 0.300000 0.112500
v 0.262500 0.300000 0.187500
v 0.262500 0.300000 0.037500
v 0.337500 0.225000 0.112500
v 0.337500 0.225000 0.037500
v 0.337500 0.300000 0.037500
v 0.337500 0.300000 0.112500
v -0.262500 0.225000 -0.037500
v -0.262500 0.225000 -0.112500
v -0.187500 0.225000 -0.112500
v -0.187500 0.300000 -0.037500
v -0.262500 0.300000 -0.037500
v -0.112500 0.300000 -0.037500
v -0.187500 0.300000 -0.112500
v -0.262500 0.300000 -0.112500
v -0.112500 0.300000 -0.112500
v -0.037500 0.300000 -0.037500
v 0.037500 0.300000 -0.037500
v -0.037500 0.300000 -0.112500
v 0.037500 0.300000 -0.112500
v 0.112500 0.300000 -0.037500
v 0.187500 0.300000 -0.037500
v 0.112500 0.300000 -0.112500
v 0.187500 0.300000 -0.112500
v 0.262500 0.225000 -0.037500
v 0.262500 0.225000 -0.112500
v 0.187500 0.225000 -0.112500
v 0.262500 0.300000 -0.037500
v 0.337500 0.225000 -0.037500
v 0.337500 0.300000 -0.037500
v 0.262500 0.300000 -0.112500
v 0.337500 0.225000 -0.112500
v 0.337500 0.300000 -0.112500
v -0.187500 0.225000 -0.187500
v -0.112500 0.225000 -0.187500
v -0.262500 0.225000 -0.187500
v -0.262500 0.300000 -0.187500
v -0.187500 0.300000 -0.187500
v -0.112500 0.300000 -0.187500
v -0.187500 0.225000 -0.262500
v -0.187500 0.300000 -0.262500
v -0.112500 0.225000 -0.262500
v -0.112500 0.300000 -0.262500
v -0.037500 0.225000 -0.187500
v 0.037500 0.225000 -0.187500
v -0.037500 0.300000 -0.187500
v 0.037500 0.300000 -0.187500
v -0.037500 0.225000 -0.262500
v -0.037500 0.300000 -0.262500
v 0.037500 0.225000 -0.262500
v 0.037500 0.300000 -0.262500
v 0.112500 0.225000 -0.187500
v 0.187500 0.225000 -0.187500
v 0.112500 0.300000 -0.187500
v 0.187500 0.300000 -0.187500
v 0.112500 0.225000 -0.262500
v 0.112500 0.300000 -0.262500
v 0.187500 0.225000 -0.262500
v 0.187500 0.300000 -0.262500
v -0.337500 0.225000 0.037500
v -0.337500 0.225000 0.112500
v -0.337500 0.300000 0.112500
v -0.337500 0.300000 0.037500
v -0.337500 0.225000 -0.037500
v -0.337500 0.300000 -0.037500
v -0.337500 0.225000 -0.112500
v -0.337500 0.300000 -0.112500
v 0.262500 0.225000 -0.187500
v 0.262500 0.300000 -0.187500
v -0.262500 0.375000 0.187500
v -0.262500 0.375000 0.112500
v -0.187500 0.375000 0.112500
v -0.187500 0.375000 0.187500
v 0.187500 0.375000 0.187500
v 0.187500 0.375000 0.112500
v 0.262500 0.375000 0.112500
v 0.262500 0.375000 0.187500
v -0.337500 0.375000 0.037500
v -0.337500 0.375000 -0.037500
v -0.262500 0.375000 -0.037500
v -0.262500 0.375000 0.037500
v 0.262500 0.375000 0.037500
v 0.262500 0.375000 -0.037500
v 0.337500 0.375000 -0.037500
v 0.337500 0.375000 0.037500
v -0.262500 0.375000 -0.112500
v -0.262500 0.375000 -0.187500
v -0.187500 0.375000 -0.187500
v -0.187500 0.375000 -0.112500
v 0.187500 0.375000 -0.112500
v 0.187500 0.375000 -0.187500
v 0.262500 0.375000 -0.187500
v 0.262500 0.375000 -0.112500
v -0.037500 0.375000 -0.187500
v -0.037500 0.375000 -0.262500
v 0.037500 0.375000 -0.262500
v 0.037500 0.375000 -0.187500
vn -1.0000 -0.0000 -0.0000
vn -0.0000 -0.0000 1.0000
vn -0.0000 -1.0000 -0.0000
vn 1.0000 -0.0000 -0.0000
vn -0.0000 -0.0000 -1.0000
vn -0.0000 1.0000 -0.0000
s 0
usemtl playerGuardian.vox_Material_207
f 151//6 159//6 162//6 155//6
f 159//6 161//6 163//6 162//6
f 161//6 168//6 171//6 163//6
f 153//6 155//6 188//6 186//6
f 155//6 162//6 192//6 188//6
f 162//6 163//6 193//6 192//6
f 188//6 192//6 194//6 191//6
f 192//6 193//6 195//6 194//6
f 163//6 171//6 196//6 193//6
f 171//6 172//6 197//6 196//6
f 193//6 196//6 198//6 195//6
f 194//6 195//6 222//6 221//6
usemtl playerGuardian.vox_Material_223
f 152//6 151//6 155//6 153//6
f 168//6 170//6 172//6 171//6
f 154//6 153//6 186//6 187//6
f 187//6 186//6 189//6 190//6
f 186//6 188//6 191//6 189//6
f 196//6 197//6 199//6 198//6
f 172//6 178//6 203//6 197//6
f 197//6 203//6 206//6 199//6
f 189//6 191//6 214//6 213//6
f 191//6 194//6 221//6 214//6
f 195//6 198//6 229//6 222//6
f 198//6 199//6 230//6 229//6
usemtl playerGuardian.vox_Material_224
f 148//6 152//6 153//6 154//6
f 170//6 176//6 178//6 172//6
usemtl playerGuardian.vox_Material_232
f 31//1 33//1 34//1 35//1
f 36//4 32//4 37//4 38//4
f 33//2 36//2 38//2 34//2
f 31//3 32//3 36//3 33//3
f 39//1 77//1 78//1 79//1
f 77//2 34//2 80//2 78//2
f 39//3 35//3 34//3 77//3
f 34//2 38//2 81//2 80//2
f 80//2 81//2 84//2 82//2
f 85//4 42//4 86//4 87//4
f 38//2 85//2 87//2 81//2
f 37//3 42//3 85//3 38//3
f 91//4 89//4 92//4 93//4
f 87//2 91//2 93//2 90//2
f 86//3 89//3 91//3 87//3
f 94//1 96//1 97//1 98//1
f 96//2 78//2 83//2 97//2
f 94//3 79//3 78//3 96//3
f 98//1 97//1 141//1 142//1
f 97//2 83//2 143//2 141//2
f 141//2 143//2 150//2 149//2
f 149//6 150//6 151//6 152//6
f 82//2 84//2 157//2 156//2
f 143//2 156//2 158//2 150//2
f 150//6 158//6 159//6 151//6
f 156//2 157//2 160//2 158//2
f 158//6 160//6 161//6 159//6
f 93//4 92//4 165//4 166//4
f 90//2 93//2 166//2 164//2
f 157//2 164//2 167//2 160//2
f 160//6 167//6 168//6 161//6
f 164//2 166//2 169//2 167//2
f 167//6 169//6 170//6 168//6
usemtl playerGuardian.vox_Material_241
f 78//2 80//2 82//2 83//2
f 81//2 87//2 90//2 84//2
f 83//2 82//2 156//2 143//2
f 84//2 90//2 164//2 157//2
usemtl playerGuardian.vox_Material_248
f 1//1 2//1 3//1 4//1
f 2//2 5//2 6//2 3//2
f 1//3 7//3 5//3 2//3
f 5//2 8//2 9//2 6//2
f 7//3 10//3 8//3 5//3
f 11//4 12//4 13//4 14//4
f 8//2 11//2 14//2 9//2
f 10//3 12//3 11//3 8//3
f 19//1 15//1 16//1 20//1
f 21//5 19//5 20//5 22//5
f 19//3 21//3 17//3 15//3
f 23//5 21//5 22//5 24//5
f 21//3 23//3 18//3 17//3
f 25//4 27//4 28//4 26//4
f 27//5 23//5 24//5 28//5
f 23//3 27//3 25//3 18//3
f 4//1 3//1 29//1 30//1
f 3//2 6//2 31//2 29//2
f 6//2 9//2 32//2 31//2
f 29//2 31//2 35//2 39//2
f 14//4 13//4 40//4 41//4
f 9//2 14//2 41//2 32//2
f 32//2 41//2 42//2 37//2
f 43//4 44//4 45//4 46//4
f 41//2 43//2 46//2 42//2
f 40//3 44//3 43//3 41//3
f 50//1 49//1 52//1 53//1
f 20//1 16//1 51//1 56//1
f 22//5 20//5 56//5 58//5
f 24//5 22//5 58//5 59//5
f 58//5 56//5 57//5 60//5
f 26//4 28//4 65//4 64//4
f 28//5 24//5 59//5 65//5
f 44//4 63//4 66//4 45//4
f 65//5 59//5 67//5 68//5
f 49//1 71//1 72//1 52//1
f 71//2 29//2 39//2 72//2
f 49//3 30//3 29//3 71//3
f 46//4 45//4 88//4 89//4
f 42//2 46//2 89//2 86//2
f 52//1 72//1 94//1 95//1
f 72//2 39//2 79//2 94//2
f 99//1 100//1 101//1 102//1
f 100//2 94//2 98//2 101//2
f 99//3 95//3 94//3 100//3
f 55//1 53//1 106//1 107//1
f 57//5 55//5 107//5 108//5
f 110//1 105//1 109//1 111//1
f 107//5 110//5 111//5 112//5
f 110//3 107//3 106//3 105//3
f 66//4 70//4 113//4 114//4
f 70//5 68//5 115//5 113//5
f 118//4 122//4 123//4 120//4
f 122//5 113//5 124//5 123//5
f 113//3 122//3 118//3 114//3
f 137//4 119//4 121//4 138//4
f 89//2 137//2 138//2 92//2
f 88//3 119//3 137//3 89//3
f 102//1 101//1 144//1 145//1
f 101//2 98//2 142//2 144//2
f 144//1 146//1 147//1 148//1
f 146//2 141//2 149//2 147//2
f 144//3 142//3 141//3 146//3
f 138//4 121//4 173//4 174//4
f 92//2 138//2 174//2 165//2
f 175//4 174//4 176//4 177//4
f 166//2 175//2 177//2 169//2
f 165//3 174//3 175//3 166//3
f 179//4 180//4 181//4 182//4
f 174//2 179//2 182//2 176//2
f 173//3 180//3 179//3 174//3
f 176//6 182//6 181//6 178//6
f 111//1 109//1 183//1 184//1
f 112//5 111//5 184//5 185//5
f 120//4 123//4 201//4 200//4
f 123//5 124//5 202//5 201//5
f 204//4 207//4 208//4 205//4
f 207//5 201//5 206//5 208//5
f 201//3 207//3 204//3 200//3
f 203//6 205//6 208//6 206//6
f 211//1 184//1 190//1 212//1
f 209//5 211//5 212//5 213//5
f 211//3 209//3 185//3 184//3
f 215//1 209//1 213//1 216//1
f 217//5 215//5 216//5 218//5
f 215//3 217//3 210//3 209//3
f 213//6 214//6 218//6 216//6
f 223//5 217//5 218//5 224//5
f 217//3 223//3 219//3 210//3
f 214//6 221//6 224//6 218//6
f 231//5 225//5 226//5 232//5
f 225//3 231//3 227//3 220//3
f 222//6 229//6 232//6 226//6
f 228//4 233//4 234//4 230//4
f 233//5 231//5 232//5 234//5
f 231//3 233//3 228//3 227//3
f 229//6 230//6 234//6 232//6
f 235//1 236//1 237//1 238//1
f 236//2 144//2 148//2 237//2
f 235//3 145//3 144//3 236//3
f 237//6 148//6 154//6 238//6
f 241//1 239//1 240//1 242//1
f 184//5 241//5 242//5 190//5
f 241//3 184//3 183//3 239//3
f 240//6 187//6 190//6 242//6
f 201//4 243//4 244//4 206//4
f 243//5 228//5 230//5 244//5
f 228//3 243//3 201//3 202//3
f 148//1 147//1 245//1 246//1
f 149//4 152//4 247//4 248//4
f 147//2 149//2 248//2 245//2
f 152//5 148//5 246//5 247//5
f 245//6 248//6 247//6 246//6
f 170//1 169//1 249//1 250//1
f 177//4 176//4 251//4 252//4
f 169//2 177//2 252//2 249//2
f 176//5 170//5 250//5 251//5
f 249//6 252//6 251//6 250//6
f 212//1 190//1 261//1 262//1
f 189//4 213//4 263//4 264//4
f 190//2 189//2 264//2 261//2
f 213//5 212//5 262//5 263//5
f 261//6 264//6 263//6 262//6
f 230//1 199//1 265//1 266//1
f 206//4 244//4 267//4 268//4
f 199//2 206//2 268//2 265//2
f 244//5 230//5 266//5 267//5
f 265//6 268//6 267//6 266//6
usemtl playerGuardian.vox_Material_252
f 15//1 1//1 4//1 16//1
f 15//3 17//3 7//3 1//3
f 17//3 18//3 10//3 7//3
f 12//4 25//4 26//4 13//4
f 18//3 25//3 12//3 10//3
f 47//1 48//1 49//1 50//1
f 48//2 4//2 30//2 49//2
f 16//5 47//5 50//5 51//5
f 47//3 16//3 4//3 48//3
f 54//1 50//1 53//1 55//1
f 56//5 54//5 55//5 57//5
f 54//3 56//3 51//3 50//3
f 61//4 62//4 63//4 44//4
f 13//2 61//2 44//2 40//2
f 62//5 26//5 64//5 63//5
f 26//3 62//3 61//3 13//3
f 63//4 69//4 70//4 66//4
f 69//5 65//5 68//5 70//5
f 65//3 69//3 63//3 64//3
f 73//1 58//1 60//1 74//1
f 59//4 75//4 76//4 67//4
f 75//5 73//5 74//5 76//5
f 73//3 75//3 59//3 58//3
f 103//1 104//1 99//1 105//1
f 104//2 52//2 95//2 99//2
f 53//5 103//5 105//5 106//5
f 103//3 53//3 52//3 104//3
f 105//1 99//1 102//1 109//1
f 116//4 117//4 118//4 119//4
f 45//2 116//2 119//2 88//2
f 117//5 66//5 114//5 118//5
f 66//3 117//3 116//3 45//3
f 119//4 118//4 120//4 121//4
f 125//1 57//1 108//1 126//1
f 74//5 125//5 126//5 127//5
f 125//3 74//3 60//3 57//3
f 76//5 74//5 127//5 128//5
f 127//5 126//5 129//5 130//5
f 128//5 127//5 130//5 131//5
f 68//4 132//4 133//4 115//4
f 132//5 76//5 128//5 133//5
f 76//3 132//3 68//3 67//3
f 133//5 128//5 131//5 134//5
f 113//4 135//4 136//4 124//4
f 135//5 133//5 134//5 136//5
f 133//3 135//3 113//3 115//3
f 139//1 107//1 112//1 140//1
f 126//5 139//5 140//5 129//5
f 139//3 126//3 108//3 107//3
f 109//1 102//1 145//1 183//1
f 121//4 120//4 200//4 173//4
f 180//4 204//4 205//4 181//4
f 200//3 204//3 180//3 173//3
f 140//1 112//1 185//1 209//1
f 129//5 140//5 209//5 210//5
f 130//5 129//5 210//5 219//5
f 131//5 130//5 219//5 220//5
f 225//5 223//5 224//5 226//5
f 223//3 225//3 220//3 219//3
f 134//5 131//5 220//5 227//5
f 124//4 136//4 228//4 202//4
f 136//5 134//5 227//5 228//5
f 239//1 235//1 238//1 240//1
f 239//3 183//3 145//3 235//3
f 240//1 238//1 253//1 254//1
f 154//4 187//4 255//4 256//4
f 238//2 154//2 256//2 253//2
f 187//5 240//5 254//5 255//5
f 253//6 256//6 255//6 254//6
f 203//1 178//1 257//1 258//1
f 181//4 205//4 259//4 260//4
f 178//2 181//2 260//2 257//2
f 205//5 203//5 258//5 259//5
f 257//6 260//6 259//6 258//6
f 224//1 221//1 269//1 270//1
f 222//4 226//4 271//4 272//4
f 221//2 222//2 272//2 269//2
f 226//5 224//5 270//5 271//5
f 269//6 272//6 271//6 270//6
