# Blender 3.5.1
# www.blender.org
mtllib stainedGlass1.mtl
o model_0
v -2.250000 2.000000 3.250000
v -2.250000 2.000000 3.750000
v -2.250000 2.500000 3.750000
v -2.250000 2.500000 3.250000
v -2.250000 3.000000 3.750000
v -2.250000 3.000000 3.250000
v -1.750000 2.500000 3.750000
v -1.750000 2.500000 3.250000
v -1.750000 3.000000 3.250000
v -1.750000 3.000000 3.750000
v -2.250000 3.500000 3.250000
v -2.250000 3.500000 3.750000
v -2.250000 4.000000 3.750000
v -2.250000 4.000000 3.250000
v -1.750000 3.500000 3.750000
v -1.750000 3.500000 3.250000
v -1.750000 4.000000 3.250000
v -1.750000 4.000000 3.750000
v -2.250000 4.500000 3.750000
v -2.250000 4.500000 3.250000
v -1.250000 2.000000 3.750000
v -1.250000 2.000000 3.250000
v -1.250000 2.500000 3.250000
v -1.250000 2.500000 3.750000
v -1.250000 4.000000 3.750000
v -1.250000 4.000000 3.250000
v -1.250000 4.500000 3.250000
v -1.250000 4.500000 3.750000
v -1.250000 1.000000 3.250000
v -1.250000 1.000000 3.750000
v -1.250000 1.500000 3.750000
v -1.250000 1.500000 3.250000
v -0.750000 1.500000 3.750000
v -0.750000 1.500000 3.250000
v -0.750000 2.000000 3.250000
v -0.750000 2.000000 3.750000
v -1.250000 3.000000 3.750000
v -1.250000 3.000000 3.250000
v -0.750000 2.500000 3.750000
v -0.750000 2.500000 3.250000
v -0.750000 3.000000 3.250000
v -0.750000 3.000000 3.750000
v -1.250000 3.500000 3.250000
v -1.250000 3.500000 3.750000
v -0.750000 3.500000 3.750000
v -0.750000 3.500000 3.250000
v -0.750000 4.000000 3.250000
v -0.750000 4.000000 3.750000
v -1.250000 5.000000 3.750000
v -1.250000 5.000000 3.250000
v -0.750000 4.500000 3.750000
v -0.750000 4.500000 3.250000
v -0.750000 5.000000 3.250000
v -0.750000 5.000000 3.750000
v -1.250000 5.500000 3.750000
v -1.250000 5.500000 3.250000
v -0.250000 1.000000 3.750000
v -0.250000 1.000000 3.250000
v -0.250000 1.500000 3.250000
v -0.250000 1.500000 3.750000
v -0.250000 3.000000 3.750000
v -0.250000 3.000000 3.250000
v -0.250000 3.500000 3.250000
v -0.250000 3.500000 3.750000
v -0.250000 5.000000 3.750000
v -0.250000 5.000000 3.250000
v -0.250000 5.500000 3.250000
v -0.250000 5.500000 3.750000
v -0.250000 2.000000 3.750000
v -0.250000 2.000000 3.250000
v 0.250000 1.500000 3.750000
v 0.250000 1.500000 3.250000
v 0.250000 2.000000 3.250000
v 0.250000 2.000000 3.750000
v -0.250000 2.500000 3.250000
v -0.250000 2.500000 3.750000
v 0.250000 2.500000 3.750000
v 0.250000 2.500000 3.250000
v 0.250000 3.000000 3.250000
v 0.250000 3.000000 3.750000
v -0.250000 4.000000 3.750000
v -0.250000 4.000000 3.250000
v 0.250000 3.500000 3.750000
v 0.250000 3.500000 3.250000
v 0.250000 4.000000 3.250000
v 0.250000 4.000000 3.750000
v -0.250000 4.500000 3.250000
v -0.250000 4.500000 3.750000
v 0.250000 4.500000 3.750000
v 0.250000 4.500000 3.250000
v 0.250000 5.000000 3.250000
v 0.250000 5.000000 3.750000
v 0.250000 1.000000 3.250000
v 0.250000 1.000000 3.750000
v 0.750000 2.000000 3.750000
v 0.750000 2.000000 3.250000
v 0.750000 2.500000 3.250000
v 0.750000 2.500000 3.750000
v 0.750000 4.000000 3.750000
v 0.750000 4.000000 3.250000
v 0.750000 4.500000 3.250000
v 0.750000 4.500000 3.750000
v 0.250000 5.500000 3.750000
v 0.250000 5.500000 3.250000
v 1.250000 1.000000 3.750000
v 1.250000 1.000000 3.250000
v 1.250000 1.500000 3.250000
v 1.250000 1.500000 3.750000
v 0.750000 1.500000 3.250000
v 0.750000 1.500000 3.750000
v 1.250000 2.000000 3.250000
v 1.250000 2.000000 3.750000
v 0.750000 3.000000 3.750000
v 0.750000 3.000000 3.250000
v 1.250000 2.500000 3.750000
v 1.250000 2.500000 3.250000
v 1.250000 3.000000 3.250000
v 1.250000 3.000000 3.750000
v 0.750000 3.500000 3.250000
v 0.750000 3.500000 3.750000
v 1.250000 3.500000 3.750000
v 1.250000 3.500000 3.250000
v 1.250000 4.000000 3.250000
v 1.250000 4.000000 3.750000
v 0.750000 5.000000 3.750000
v 0.750000 5.000000 3.250000
v 1.250000 4.500000 3.750000
v 1.250000 4.500000 3.250000
v 1.250000 5.000000 3.250000
v 1.250000 5.000000 3.750000
v 1.250000 5.500000 3.250000
v 1.250000 5.500000 3.750000
v 1.750000 3.000000 3.750000
v 1.750000 3.000000 3.250000
v 1.750000 3.500000 3.250000
v 1.750000 3.500000 3.750000
v 2.250000 2.000000 3.750000
v 2.250000 2.000000 3.250000
v 2.250000 2.500000 3.250000
v 2.250000 2.500000 3.750000
v 1.750000 2.500000 3.250000
v 1.750000 2.500000 3.750000
v 2.250000 3.000000 3.250000
v 2.250000 3.000000 3.750000
v 1.750000 4.000000 3.750000
v 1.750000 4.000000 3.250000
v 2.250000 3.500000 3.750000
v 2.250000 3.500000 3.250000
v 2.250000 4.000000 3.250000
v 2.250000 4.000000 3.750000
v 2.250000 4.500000 3.250000
v 2.250000 4.500000 3.750000
v -1.750000 2.000000 3.750000
v -1.750000 2.000000 3.250000
v -1.750000 4.500000 3.750000
v -1.750000 4.500000 3.250000
v -0.750000 1.000000 3.750000
v -0.750000 1.000000 3.250000
v -0.750000 5.500000 3.750000
v -0.750000 5.500000 3.250000
v 0.750000 1.000000 3.750000
v 0.750000 1.000000 3.250000
v 0.750000 5.500000 3.750000
v 0.750000 5.500000 3.250000
v 1.750000 2.000000 3.750000
v 1.750000 2.000000 3.250000
v 1.750000 4.500000 3.750000
v 1.750000 4.500000 3.250000
vn -1.0000 -0.0000 -0.0000
vn 1.0000 -0.0000 -0.0000
vn -0.0000 -0.0000 1.0000
vn -0.0000 -0.0000 -1.0000
vn -0.0000 -1.0000 -0.0000
vn -0.0000 1.0000 -0.0000
s 0
usemtl hallwayStone1.vox_Material_250
f 9//1 10//1 15//1 16//1
f 23//1 24//1 37//1 38//1
f 39//2 40//2 41//2 42//2
f 43//1 44//1 25//1 26//1
f 45//2 46//2 47//2 48//2
f 59//1 60//1 69//1 70//1
f 71//2 72//2 73//2 74//2
f 87//1 88//1 65//1 66//1
f 89//2 90//2 91//2 92//2
f 97//1 98//1 113//1 114//1
f 115//2 116//2 117//2 118//2
f 119//1 120//1 99//1 100//1
f 121//2 122//2 123//2 124//2
f 133//2 134//2 135//2 136//2
f 10//3 42//3 45//3 15//3
f 41//4 9//4 16//4 46//4
f 24//3 39//3 42//3 37//3
f 40//4 23//4 38//4 41//4
f 44//3 45//3 48//3 25//3
f 46//4 43//4 26//4 47//4
f 60//3 71//3 77//3 76//3
f 72//4 59//4 75//4 78//4
f 81//3 86//3 92//3 65//3
f 85//4 82//4 66//4 91//4
f 98//3 115//3 124//3 99//3
f 116//4 97//4 100//4 123//4
f 118//3 133//3 136//3 121//3
f 134//4 117//4 122//4 135//4
f 59//5 72//5 71//5 60//5
f 23//5 40//5 39//5 24//5
f 97//5 116//5 115//5 98//5
f 9//5 38//5 37//5 10//5
f 15//6 44//6 43//6 16//6
f 117//5 134//5 133//5 118//5
f 121//6 136//6 135//6 122//6
f 25//6 48//6 47//6 26//6
f 99//6 124//6 123//6 100//6
f 65//6 92//6 91//6 66//6
usemtl hallwayStone1.vox_Material_251
f 4//1 3//1 5//1 6//1
f 7//2 8//2 9//2 10//2
f 11//1 12//1 13//1 14//1
f 15//2 16//2 17//2 18//2
f 61//2 62//2 63//2 64//2
f 75//1 76//1 61//1 62//1
f 77//2 78//2 79//2 80//2
f 63//1 64//1 81//1 82//1
f 83//2 84//2 85//2 86//2
f 79//1 80//1 83//1 84//1
f 141//1 142//1 133//1 134//1
f 140//2 139//2 143//2 144//2
f 135//1 136//1 145//1 146//1
f 147//2 148//2 149//2 150//2
f 3//3 7//3 10//3 5//3
f 8//4 4//4 6//4 9//4
f 12//3 15//3 18//3 13//3
f 16//4 11//4 14//4 17//4
f 42//3 61//3 64//3 45//3
f 62//4 41//4 46//4 63//4
f 76//3 77//3 80//3 61//3
f 78//4 75//4 62//4 79//4
f 64//3 83//3 86//3 81//3
f 84//4 63//4 82//4 85//4
f 80//3 113//3 120//3 83//3
f 114//4 79//4 84//4 119//4
f 142//3 140//3 144//3 133//3
f 139//4 141//4 134//4 143//4
f 136//3 147//3 150//3 145//3
f 148//4 135//4 146//4 149//4
f 5//6 10//6 9//6 6//6
f 61//6 80//6 79//6 62//6
f 133//6 144//6 143//6 134//6
f 41//5 62//5 61//5 42//5
f 45//6 64//6 63//6 46//6
f 79//5 114//5 113//5 80//5
f 83//6 120//6 119//6 84//6
f 11//5 16//5 15//5 12//5
f 63//5 84//5 83//5 64//5
f 135//5 148//5 147//5 136//5
usemtl hallwayStone1.vox_Material_253
f 21//2 22//2 23//2 24//2
f 25//2 26//2 27//2 28//2
f 32//1 31//1 21//1 22//1
f 33//2 34//2 35//2 36//2
f 27//1 28//1 49//1 50//1
f 51//2 52//2 53//2 54//2
f 57//2 58//2 59//2 60//2
f 35//1 36//1 39//1 40//1
f 47//1 48//1 51//1 52//1
f 65//2 66//2 67//2 68//2
f 93//1 94//1 71//1 72//1
f 95//2 96//2 97//2 98//2
f 99//2 100//2 101//2 102//2
f 91//1 92//1 103//1 104//1
f 109//1 110//1 95//1 96//1
f 108//2 107//2 111//2 112//2
f 101//1 102//1 125//1 126//1
f 127//2 128//2 129//2 130//2
f 111//1 112//1 115//1 116//1
f 123//1 124//1 127//1 128//1
f 153//3 21//3 24//3 7//3
f 22//4 154//4 8//4 23//4
f 18//3 25//3 28//3 155//3
f 26//4 17//4 156//4 27//4
f 31//3 33//3 36//3 21//3
f 34//4 32//4 22//4 35//4
f 28//3 51//3 54//3 49//3
f 52//4 27//4 50//4 53//4
f 157//3 57//3 60//3 33//3
f 58//4 158//4 34//4 59//4
f 36//3 69//3 76//3 39//3
f 70//4 35//4 40//4 75//4
f 48//3 81//3 88//3 51//3
f 82//4 47//4 52//4 87//4
f 54//3 65//3 68//3 159//3
f 66//4 53//4 160//4 67//4
f 94//3 161//3 110//3 71//3
f 162//4 93//4 72//4 109//4
f 74//3 95//3 98//3 77//3
f 96//4 73//4 78//4 97//4
f 86//3 99//3 102//3 89//3
f 100//4 85//4 90//4 101//4
f 92//3 125//3 163//3 103//3
f 126//4 91//4 104//4 164//4
f 110//3 108//3 112//3 95//3
f 107//4 109//4 96//4 111//4
f 102//3 127//3 130//3 125//3
f 128//4 101//4 126//4 129//4
f 112//3 165//3 142//3 115//3
f 166//4 111//4 116//4 141//4
f 124//3 145//3 167//3 127//3
f 146//4 123//4 128//4 168//4
f 158//5 58//5 57//5 157//5
f 33//6 60//6 59//6 34//6
f 93//5 162//5 161//5 94//5
f 71//6 110//6 109//6 72//6
f 21//6 36//6 35//6 22//6
f 95//6 112//6 111//6 96//6
f 154//5 22//5 21//5 153//5
f 7//6 24//6 23//6 8//6
f 35//5 70//5 69//5 36//5
f 39//6 76//6 75//6 40//6
f 73//5 96//5 95//5 74//5
f 77//6 98//6 97//6 78//6
f 111//5 166//5 165//5 112//5
f 115//6 142//6 141//6 116//6
f 17//5 26//5 25//5 18//5
f 155//6 28//6 27//6 156//6
f 47//5 82//5 81//5 48//5
f 51//6 88//6 87//6 52//6
f 85//5 100//5 99//5 86//5
f 89//6 102//6 101//6 90//6
f 123//5 146//5 145//5 124//5
f 127//6 167//6 168//6 128//6
f 27//5 52//5 51//5 28//5
f 101//5 128//5 127//5 102//5
f 53//5 66//5 65//5 54//5
f 159//6 68//6 67//6 160//6
f 91//5 126//5 125//5 92//5
f 103//6 163//6 164//6 104//6
usemtl hallwayStone1.vox_Material_254
f 1//1 2//1 3//1 4//1
f 14//1 13//1 19//1 20//1
f 29//1 30//1 31//1 32//1
f 50//1 49//1 55//1 56//1
f 105//2 106//2 107//2 108//2
f 130//2 129//2 131//2 132//2
f 137//2 138//2 139//2 140//2
f 150//2 149//2 151//2 152//2
f 2//3 153//3 7//3 3//3
f 154//4 1//4 4//4 8//4
f 13//3 18//3 155//3 19//3
f 17//4 14//4 20//4 156//4
f 30//3 157//3 33//3 31//3
f 158//4 29//4 32//4 34//4
f 49//3 54//3 159//3 55//3
f 53//4 50//4 56//4 160//4
f 161//3 105//3 108//3 110//3
f 106//4 162//4 109//4 107//4
f 125//3 130//3 132//3 163//3
f 129//4 126//4 164//4 131//4
f 165//3 137//3 140//3 142//3
f 138//4 166//4 141//4 139//4
f 145//3 150//3 152//3 167//3
f 149//4 146//4 168//4 151//4
f 29//5 158//5 157//5 30//5
f 162//5 106//5 105//5 161//5
f 1//5 154//5 153//5 2//5
f 166//5 138//5 137//5 165//5
f 19//6 155//6 156//6 20//6
f 167//6 152//6 151//6 168//6
f 55//6 159//6 160//6 56//6
f 163//6 132//6 131//6 164//6
