# Blender 3.6.7
# www.blender.org
mtllib chateau_5.mtl
o chateau_5
v -16.750000 3.000000 40.750000
v -16.750000 18.000000 40.750000
v -16.750000 18.000000 35.250000
v -16.750000 3.000000 35.250000
v -16.250000 17.500000 40.750000
v -16.250000 17.500000 35.250000
v -16.250000 18.000000 35.250000
v -16.250000 18.000000 40.750000
v -15.750000 17.000000 40.750000
v -15.750000 17.000000 35.250000
v -15.750000 17.500000 35.250000
v -15.750000 17.500000 40.750000
v -15.250000 16.500000 40.750000
v -15.250000 16.500000 35.250000
v -15.250000 17.000000 35.250000
v -15.250000 17.000000 40.750000
v -14.750000 16.000000 40.750000
v -14.750000 16.000000 35.250000
v -14.750000 16.500000 35.250000
v -14.750000 16.500000 40.750000
v -14.250000 15.500000 40.750000
v -14.250000 15.500000 35.250000
v -14.250000 16.000000 35.250000
v -14.250000 16.000000 40.750000
v -13.750000 15.000000 40.750000
v -13.750000 15.000000 35.250000
v -13.750000 15.500000 35.250000
v -13.750000 15.500000 40.750000
v -13.250000 14.500000 40.750000
v -13.250000 14.500000 35.250000
v -13.250000 15.000000 35.250000
v -13.250000 15.000000 40.750000
v -12.750000 14.000000 40.750000
v -12.750000 14.000000 35.250000
v -12.750000 14.500000 35.250000
v -12.750000 14.500000 40.750000
v -12.250000 13.500000 40.750000
v -12.250000 13.500000 35.250000
v -12.250000 14.000000 35.250000
v -12.250000 14.000000 40.750000
v -11.750000 13.000000 40.750000
v -11.750000 13.000000 35.250000
v -11.750000 13.500000 35.250000
v -11.750000 13.500000 40.750000
v -11.250000 12.500000 40.750000
v -11.250000 12.500000 35.250000
v -11.250000 13.000000 35.250000
v -11.250000 13.000000 40.750000
v -10.750000 12.000000 40.750000
v -10.750000 12.000000 35.250000
v -10.750000 12.500000 35.250000
v -10.750000 12.500000 40.750000
v -10.250000 11.500000 40.750000
v -10.250000 11.500000 35.250000
v -10.250000 12.000000 35.250000
v -10.250000 12.000000 40.750000
v -9.750000 11.000000 40.750000
v -9.750000 11.000000 35.250000
v -9.750000 11.500000 35.250000
v -9.750000 11.500000 40.750000
v -9.250000 10.500000 40.750000
v -9.250000 10.500000 35.250000
v -9.250000 11.000000 35.250000
v -9.250000 11.000000 40.750000
v -8.750000 10.000000 40.750000
v -8.750000 10.000000 35.250000
v -8.750000 10.500000 35.250000
v -8.750000 10.500000 40.750000
v -8.250000 9.500000 40.750000
v -8.250000 9.500000 35.250000
v -8.250000 10.000000 35.250000
v -8.250000 10.000000 40.750000
v -7.750000 9.000000 40.750000
v -7.750000 9.000000 35.250000
v -7.750000 9.500000 35.250000
v -7.750000 9.500000 40.750000
v -7.250000 8.500000 40.750000
v -7.250000 8.500000 35.250000
v -7.250000 9.000000 35.250000
v -7.250000 9.000000 40.750000
v -6.750000 8.000000 40.750000
v -6.750000 8.000000 35.250000
v -6.750000 8.500000 35.250000
v -6.750000 8.500000 40.750000
v -6.250000 7.500000 40.750000
v -6.250000 7.500000 35.250000
v -6.250000 8.000000 35.250000
v -6.250000 8.000000 40.750000
v -5.750000 7.000000 40.750000
v -5.750000 7.000000 35.250000
v -5.750000 7.500000 35.250000
v -5.750000 7.500000 40.750000
v -5.250000 6.500000 40.750000
v -5.250000 6.500000 35.250000
v -5.250000 7.000000 35.250000
v -5.250000 7.000000 40.750000
v -4.750000 6.000000 40.750000
v -4.750000 6.000000 35.250000
v -4.750000 6.500000 35.250000
v -4.750000 6.500000 40.750000
v -4.250000 5.500000 40.750000
v -4.250000 5.500000 35.250000
v -4.250000 6.000000 35.250000
v -4.250000 6.000000 40.750000
v -3.750000 5.000000 40.750000
v -3.750000 5.000000 35.250000
v -3.750000 5.500000 35.250000
v -3.750000 5.500000 40.750000
v -3.250000 4.500000 40.750000
v -3.250000 4.500000 35.250000
v -3.250000 5.000000 35.250000
v -3.250000 5.000000 40.750000
v -2.750000 4.000000 40.750000
v -2.750000 4.000000 35.250000
v -2.750000 4.500000 35.250000
v -2.750000 4.500000 40.750000
v -2.250000 3.500000 40.750000
v -2.250000 3.500000 34.750000
v -2.250000 4.000000 34.750000
v -2.250000 4.000000 40.750000
v -2.750000 3.000000 35.250000
v -2.750000 4.000000 34.750000
v -2.750000 3.000000 34.750000
v 2.250000 3.500000 40.750000
v 2.250000 4.000000 40.750000
v 2.250000 4.000000 34.750000
v 2.250000 3.500000 34.750000
v 2.750000 3.000000 35.250000
v 2.750000 3.000000 34.750000
v 2.750000 4.000000 34.750000
v 2.750000 4.000000 35.250000
v 2.750000 4.000000 40.750000
v 2.750000 4.500000 40.750000
v 2.750000 4.500000 35.250000
v 3.250000 4.500000 40.750000
v 3.250000 5.000000 40.750000
v 3.250000 5.000000 35.250000
v 3.250000 4.500000 35.250000
v 3.750000 5.000000 40.750000
v 3.750000 5.500000 40.750000
v 3.750000 5.500000 35.250000
v 3.750000 5.000000 35.250000
v 4.250000 5.500000 40.750000
v 4.250000 6.000000 40.750000
v 4.250000 6.000000 35.250000
v 4.250000 5.500000 35.250000
v 4.750000 6.000000 40.750000
v 4.750000 6.500000 40.750000
v 4.750000 6.500000 35.250000
v 4.750000 6.000000 35.250000
v 5.250000 6.500000 40.750000
v 5.250000 7.000000 40.750000
v 5.250000 7.000000 35.250000
v 5.250000 6.500000 35.250000
v 5.750000 7.000000 40.750000
v 5.750000 7.500000 40.750000
v 5.750000 7.500000 35.250000
v 5.750000 7.000000 35.250000
v 6.250000 7.500000 40.750000
v 6.250000 8.000000 40.750000
v 6.250000 8.000000 35.250000
v 6.250000 7.500000 35.250000
v 6.750000 8.000000 40.750000
v 6.750000 8.500000 40.750000
v 6.750000 8.500000 35.250000
v 6.750000 8.000000 35.250000
v 7.250000 8.500000 40.750000
v 7.250000 9.000000 40.750000
v 7.250000 9.000000 35.250000
v 7.250000 8.500000 35.250000
v 7.750000 9.000000 40.750000
v 7.750000 9.500000 40.750000
v 7.750000 9.500000 35.250000
v 7.750000 9.000000 35.250000
v 8.250000 9.500000 40.750000
v 8.250000 10.000000 40.750000
v 8.250000 10.000000 35.250000
v 8.250000 9.500000 35.250000
v 8.750000 10.000000 40.750000
v 8.750000 10.500000 40.750000
v 8.750000 10.500000 35.250000
v 8.750000 10.000000 35.250000
v 9.250000 10.500000 40.750000
v 9.250000 11.000000 40.750000
v 9.250000 11.000000 35.250000
v 9.250000 10.500000 35.250000
v 9.750000 11.000000 40.750000
v 9.750000 11.500000 40.750000
v 9.750000 11.500000 35.250000
v 9.750000 11.000000 35.250000
v 10.250000 11.500000 40.750000
v 10.250000 12.000000 40.750000
v 10.250000 12.000000 35.250000
v 10.250000 11.500000 35.250000
v 10.750000 12.000000 40.750000
v 10.750000 12.500000 40.750000
v 10.750000 12.500000 35.250000
v 10.750000 12.000000 35.250000
v 11.250000 12.500000 40.750000
v 11.250000 13.000000 40.750000
v 11.250000 13.000000 35.250000
v 11.250000 12.500000 35.250000
v 11.750000 13.000000 40.750000
v 11.750000 13.500000 40.750000
v 11.750000 13.500000 35.250000
v 11.750000 13.000000 35.250000
v 12.250000 13.500000 40.750000
v 12.250000 14.000000 40.750000
v 12.250000 14.000000 35.250000
v 12.250000 13.500000 35.250000
v 12.750000 14.000000 40.750000
v 12.750000 14.500000 40.750000
v 12.750000 14.500000 35.250000
v 12.750000 14.000000 35.250000
v 13.250000 14.500000 40.750000
v 13.250000 15.000000 40.750000
v 13.250000 15.000000 35.250000
v 13.250000 14.500000 35.250000
v 13.750000 15.000000 40.750000
v 13.750000 15.500000 40.750000
v 13.750000 15.500000 35.250000
v 13.750000 15.000000 35.250000
v 14.250000 15.500000 40.750000
v 14.250000 16.000000 40.750000
v 14.250000 16.000000 35.250000
v 14.250000 15.500000 35.250000
v 14.750000 16.000000 40.750000
v 14.750000 16.500000 40.750000
v 14.750000 16.500000 35.250000
v 14.750000 16.000000 35.250000
v 15.250000 16.500000 40.750000
v 15.250000 17.000000 40.750000
v 15.250000 17.000000 35.250000
v 15.250000 16.500000 35.250000
v 15.750000 17.000000 40.750000
v 15.750000 17.500000 40.750000
v 15.750000 17.500000 35.250000
v 15.750000 17.000000 35.250000
v 16.750000 3.000000 40.750000
v 16.750000 3.000000 35.250000
v 16.750000 18.000000 35.250000
v 16.750000 18.000000 40.750000
v 16.250000 17.500000 40.750000
v 16.250000 18.000000 40.750000
v 16.250000 18.000000 35.250000
v 16.250000 17.500000 35.250000
v -16.250000 3.000000 40.750000
v -15.750000 3.000000 40.750000
v -15.250000 3.000000 40.750000
v -14.750000 3.000000 40.750000
v -14.250000 3.000000 40.750000
v -13.750000 3.000000 40.750000
v -13.250000 3.000000 40.750000
v -12.750000 3.000000 40.750000
v -12.250000 3.000000 40.750000
v -11.750000 3.000000 40.750000
v -11.250000 3.000000 40.750000
v -10.750000 3.000000 40.750000
v -10.250000 3.000000 40.750000
v -9.750000 3.000000 40.750000
v -9.250000 3.000000 40.750000
v -8.750000 3.000000 40.750000
v -8.250000 3.000000 40.750000
v -7.750000 3.000000 40.750000
v -7.250000 3.000000 40.750000
v -6.750000 3.000000 40.750000
v -6.250000 3.000000 40.750000
v -5.750000 3.000000 40.750000
v -5.250000 3.000000 40.750000
v -4.750000 3.000000 40.750000
v -4.250000 3.000000 40.750000
v -3.750000 3.000000 40.750000
v -3.250000 3.000000 40.750000
v -2.750000 3.000000 40.750000
v -2.250000 3.000000 40.750000
v 16.750000 3.500000 40.750000
v 16.750000 4.000000 40.750000
v 16.750000 4.500000 40.750000
v 16.750000 5.000000 40.750000
v 16.750000 5.500000 40.750000
v 16.750000 6.000000 40.750000
v 16.750000 6.500000 40.750000
v 16.750000 7.000000 40.750000
v 16.750000 7.500000 40.750000
v 16.750000 8.000000 40.750000
v 16.750000 8.500000 40.750000
v 16.750000 9.000000 40.750000
v 16.750000 9.500000 40.750000
v 16.750000 10.000000 40.750000
v 16.750000 10.500000 40.750000
v 16.750000 11.000000 40.750000
v 16.750000 11.500000 40.750000
v 16.750000 12.000000 40.750000
v 16.750000 12.500000 40.750000
v 16.750000 13.000000 40.750000
v 16.750000 13.500000 40.750000
v 16.750000 14.000000 40.750000
v 16.750000 14.500000 40.750000
v 16.750000 15.000000 40.750000
v 16.750000 15.500000 40.750000
v 16.750000 16.000000 40.750000
v 16.750000 16.500000 40.750000
v 16.750000 17.000000 40.750000
v 16.750000 17.500000 40.750000
v -16.250000 3.000000 35.250000
v -15.750000 3.000000 35.250000
v -15.250000 3.000000 35.250000
v -14.750000 3.000000 35.250000
v -14.250000 3.000000 35.250000
v -13.750000 3.000000 35.250000
v -13.250000 3.000000 35.250000
v -12.750000 3.000000 35.250000
v -12.250000 3.000000 35.250000
v -11.750000 3.000000 35.250000
v -11.250000 3.000000 35.250000
v -10.750000 3.000000 35.250000
v -10.250000 3.000000 35.250000
v -9.750000 3.000000 35.250000
v -9.250000 3.000000 35.250000
v -8.750000 3.000000 35.250000
v -8.250000 3.000000 35.250000
v -7.750000 3.000000 35.250000
v -7.250000 3.000000 35.250000
v -6.750000 3.000000 35.250000
v -6.250000 3.000000 35.250000
v -5.750000 3.000000 35.250000
v -5.250000 3.000000 35.250000
v -4.750000 3.000000 35.250000
v -4.250000 3.000000 35.250000
v -3.750000 3.000000 35.250000
v -3.250000 3.000000 35.250000
v 16.750000 4.500000 35.250000
v 16.750000 5.000000 35.250000
v 16.750000 5.500000 35.250000
v 16.750000 6.000000 35.250000
v 16.750000 6.500000 35.250000
v 16.750000 7.000000 35.250000
v 16.750000 7.500000 35.250000
v 16.750000 8.000000 35.250000
v 16.750000 8.500000 35.250000
v 16.750000 9.000000 35.250000
v 16.750000 9.500000 35.250000
v 16.750000 10.000000 35.250000
v 16.750000 10.500000 35.250000
v 16.750000 11.000000 35.250000
v 16.750000 11.500000 35.250000
v 16.750000 12.000000 35.250000
v 16.750000 12.500000 35.250000
v 16.750000 13.000000 35.250000
v 16.750000 13.500000 35.250000
v 16.750000 14.000000 35.250000
v 16.750000 14.500000 35.250000
v 16.750000 15.000000 35.250000
v 16.750000 15.500000 35.250000
v 16.750000 16.000000 35.250000
v 16.750000 16.500000 35.250000
v 16.750000 17.000000 35.250000
v 16.750000 17.500000 35.250000
v -2.250000 3.000000 34.750000
v 2.250000 3.000000 34.750000
v -16.750000 3.000000 36.250000
v 16.750000 3.000000 36.250000
v -16.750000 3.000000 35.750000
v -1.250000 3.000000 35.750000
v -1.250000 3.000000 36.250000
v -1.750000 3.000000 35.250000
v -1.750000 3.000000 35.750000
v -2.250000 3.000000 35.250000
v 2.250000 3.500000 36.250000
v -2.250000 3.500000 36.250000
v -1.250000 3.500000 36.250000
v -1.250000 3.500000 35.750000
v -2.250000 3.500000 35.750000
v -1.750000 3.500000 35.750000
v -1.750000 3.500000 35.250000
v -2.250000 3.500000 35.250000
v 2.250000 3.000000 35.250000
v 2.250000 3.500000 35.250000
v 1.750000 3.000000 35.250000
v 1.750000 3.000000 35.750000
v 1.750000 3.500000 35.750000
v 1.750000 3.500000 35.250000
v 1.250000 3.000000 35.750000
v 1.250000 3.000000 36.250000
v 1.250000 3.500000 36.250000
v 1.250000 3.500000 35.750000
v 16.750000 3.000000 35.750000
v 2.250000 3.500000 35.750000
vn -1.0000 -0.0000 -0.0000
vn 1.0000 -0.0000 -0.0000
vn -0.0000 -0.0000 1.0000
vn -0.0000 -0.0000 -1.0000
vn -0.0000 -1.0000 -0.0000
vn -0.0000 1.0000 -0.0000
s 0
usemtl Chateau.vox_Material_222
f 1//1 2//1 3//1 4//1
f 5//2 6//2 7//2 8//2
f 9//2 10//2 11//2 12//2
f 13//2 14//2 15//2 16//2
f 17//2 18//2 19//2 20//2
f 21//2 22//2 23//2 24//2
f 25//2 26//2 27//2 28//2
f 29//2 30//2 31//2 32//2
f 33//2 34//2 35//2 36//2
f 37//2 38//2 39//2 40//2
f 41//2 42//2 43//2 44//2
f 45//2 46//2 47//2 48//2
f 49//2 50//2 51//2 52//2
f 53//2 54//2 55//2 56//2
f 57//2 58//2 59//2 60//2
f 61//2 62//2 63//2 64//2
f 65//2 66//2 67//2 68//2
f 69//2 70//2 71//2 72//2
f 73//2 74//2 75//2 76//2
f 77//2 78//2 79//2 80//2
f 81//2 82//2 83//2 84//2
f 85//2 86//2 87//2 88//2
f 89//2 90//2 91//2 92//2
f 93//2 94//2 95//2 96//2
f 97//2 98//2 99//2 100//2
f 101//2 102//2 103//2 104//2
f 105//2 106//2 107//2 108//2
f 109//2 110//2 111//2 112//2
f 113//2 114//2 115//2 116//2
f 117//2 118//2 119//2 120//2
f 121//1 114//1 122//1 123//1
f 124//1 125//1 126//1 127//1
f 128//2 129//2 130//2 131//2
f 132//1 133//1 134//1 131//1
f 135//1 136//1 137//1 138//1
f 139//1 140//1 141//1 142//1
f 143//1 144//1 145//1 146//1
f 147//1 148//1 149//1 150//1
f 151//1 152//1 153//1 154//1
f 155//1 156//1 157//1 158//1
f 159//1 160//1 161//1 162//1
f 163//1 164//1 165//1 166//1
f 167//1 168//1 169//1 170//1
f 171//1 172//1 173//1 174//1
f 175//1 176//1 177//1 178//1
f 179//1 180//1 181//1 182//1
f 183//1 184//1 185//1 186//1
f 187//1 188//1 189//1 190//1
f 191//1 192//1 193//1 194//1
f 195//1 196//1 197//1 198//1
f 199//1 200//1 201//1 202//1
f 203//1 204//1 205//1 206//1
f 207//1 208//1 209//1 210//1
f 211//1 212//1 213//1 214//1
f 215//1 216//1 217//1 218//1
f 219//1 220//1 221//1 222//1
f 223//1 224//1 225//1 226//1
f 227//1 228//1 229//1 230//1
f 231//1 232//1 233//1 234//1
f 235//1 236//1 237//1 238//1
f 239//2 240//2 241//2 242//2
f 243//1 244//1 245//1 246//1
f 1//3 247//3 8//3 2//3
f 247//3 248//3 12//3 5//3
f 248//3 249//3 16//3 9//3
f 249//3 250//3 20//3 13//3
f 250//3 251//3 24//3 17//3
f 251//3 252//3 28//3 21//3
f 252//3 253//3 32//3 25//3
f 253//3 254//3 36//3 29//3
f 254//3 255//3 40//3 33//3
f 255//3 256//3 44//3 37//3
f 256//3 257//3 48//3 41//3
f 257//3 258//3 52//3 45//3
f 258//3 259//3 56//3 49//3
f 259//3 260//3 60//3 53//3
f 260//3 261//3 64//3 57//3
f 261//3 262//3 68//3 61//3
f 262//3 263//3 72//3 65//3
f 263//3 264//3 76//3 69//3
f 264//3 265//3 80//3 73//3
f 265//3 266//3 84//3 77//3
f 266//3 267//3 88//3 81//3
f 267//3 268//3 92//3 85//3
f 268//3 269//3 96//3 89//3
f 269//3 270//3 100//3 93//3
f 270//3 271//3 104//3 97//3
f 271//3 272//3 108//3 101//3
f 272//3 273//3 112//3 105//3
f 273//3 274//3 116//3 109//3
f 274//3 275//3 120//3 113//3
f 275//3 239//3 276//3 117//3
f 124//3 276//3 277//3 125//3
f 132//3 277//3 278//3 133//3
f 135//3 278//3 279//3 136//3
f 139//3 279//3 280//3 140//3
f 143//3 280//3 281//3 144//3
f 147//3 281//3 282//3 148//3
f 151//3 282//3 283//3 152//3
f 155//3 283//3 284//3 156//3
f 159//3 284//3 285//3 160//3
f 163//3 285//3 286//3 164//3
f 167//3 286//3 287//3 168//3
f 171//3 287//3 288//3 172//3
f 175//3 288//3 289//3 176//3
f 179//3 289//3 290//3 180//3
f 183//3 290//3 291//3 184//3
f 187//3 291//3 292//3 188//3
f 191//3 292//3 293//3 192//3
f 195//3 293//3 294//3 196//3
f 199//3 294//3 295//3 200//3
f 203//3 295//3 296//3 204//3
f 207//3 296//3 297//3 208//3
f 211//3 297//3 298//3 212//3
f 215//3 298//3 299//3 216//3
f 219//3 299//3 300//3 220//3
f 223//3 300//3 301//3 224//3
f 227//3 301//3 302//3 228//3
f 231//3 302//3 303//3 232//3
f 235//3 303//3 304//3 236//3
f 243//3 304//3 242//3 244//3
f 4//4 3//4 7//4 305//4
f 305//4 6//4 11//4 306//4
f 306//4 10//4 15//4 307//4
f 307//4 14//4 19//4 308//4
f 308//4 18//4 23//4 309//4
f 309//4 22//4 27//4 310//4
f 310//4 26//4 31//4 311//4
f 311//4 30//4 35//4 312//4
f 312//4 34//4 39//4 313//4
f 313//4 38//4 43//4 314//4
f 314//4 42//4 47//4 315//4
f 315//4 46//4 51//4 316//4
f 316//4 50//4 55//4 317//4
f 317//4 54//4 59//4 318//4
f 318//4 58//4 63//4 319//4
f 319//4 62//4 67//4 320//4
f 320//4 66//4 71//4 321//4
f 321//4 70//4 75//4 322//4
f 322//4 74//4 79//4 323//4
f 323//4 78//4 83//4 324//4
f 324//4 82//4 87//4 325//4
f 325//4 86//4 91//4 326//4
f 326//4 90//4 95//4 327//4
f 327//4 94//4 99//4 328//4
f 328//4 98//4 103//4 329//4
f 329//4 102//4 107//4 330//4
f 330//4 106//4 111//4 331//4
f 331//4 110//4 115//4 121//4
f 128//4 134//4 332//4 240//4
f 138//4 137//4 333//4 332//4
f 142//4 141//4 334//4 333//4
f 146//4 145//4 335//4 334//4
f 150//4 149//4 336//4 335//4
f 154//4 153//4 337//4 336//4
f 158//4 157//4 338//4 337//4
f 162//4 161//4 339//4 338//4
f 166//4 165//4 340//4 339//4
f 170//4 169//4 341//4 340//4
f 174//4 173//4 342//4 341//4
f 178//4 177//4 343//4 342//4
f 182//4 181//4 344//4 343//4
f 186//4 185//4 345//4 344//4
f 190//4 189//4 346//4 345//4
f 194//4 193//4 347//4 346//4
f 198//4 197//4 348//4 347//4
f 202//4 201//4 349//4 348//4
f 206//4 205//4 350//4 349//4
f 210//4 209//4 351//4 350//4
f 214//4 213//4 352//4 351//4
f 218//4 217//4 353//4 352//4
f 222//4 221//4 354//4 353//4
f 226//4 225//4 355//4 354//4
f 230//4 229//4 356//4 355//4
f 234//4 233//4 357//4 356//4
f 238//4 237//4 358//4 357//4
f 246//4 245//4 241//4 358//4
f 123//4 122//4 119//4 359//4
f 360//4 126//4 130//4 129//4
f 1//5 361//5 362//5 239//5
f 361//5 363//5 364//5 365//5
f 363//5 4//5 366//5 367//5
f 121//5 123//5 359//5 368//5
f 117//6 124//6 369//6 370//6
f 370//6 371//6 372//6 373//6
f 373//6 374//6 375//6 376//6
f 384//5 383//5 387//5 362//5
f 385//6 369//6 388//6 386//6
f 380//5 379//5 240//5 387//5
f 381//6 388//6 378//6 382//6
f 377//5 360//5 129//5 128//5
f 113//6 120//6 119//6 122//6
f 125//6 132//6 130//6 126//6
f 109//6 116//6 115//6 110//6
f 133//6 135//6 138//6 134//6
f 105//6 112//6 111//6 106//6
f 136//6 139//6 142//6 137//6
f 101//6 108//6 107//6 102//6
f 140//6 143//6 146//6 141//6
f 97//6 104//6 103//6 98//6
f 144//6 147//6 150//6 145//6
f 93//6 100//6 99//6 94//6
f 148//6 151//6 154//6 149//6
f 89//6 96//6 95//6 90//6
f 152//6 155//6 158//6 153//6
f 85//6 92//6 91//6 86//6
f 156//6 159//6 162//6 157//6
f 81//6 88//6 87//6 82//6
f 160//6 163//6 166//6 161//6
f 77//6 84//6 83//6 78//6
f 164//6 167//6 170//6 165//6
f 73//6 80//6 79//6 74//6
f 168//6 171//6 174//6 169//6
f 69//6 76//6 75//6 70//6
f 172//6 175//6 178//6 173//6
f 65//6 72//6 71//6 66//6
f 176//6 179//6 182//6 177//6
f 61//6 68//6 67//6 62//6
f 180//6 183//6 186//6 181//6
f 57//6 64//6 63//6 58//6
f 184//6 187//6 190//6 185//6
f 53//6 60//6 59//6 54//6
f 188//6 191//6 194//6 189//6
f 49//6 56//6 55//6 50//6
f 192//6 195//6 198//6 193//6
f 45//6 52//6 51//6 46//6
f 196//6 199//6 202//6 197//6
f 41//6 48//6 47//6 42//6
f 200//6 203//6 206//6 201//6
f 37//6 44//6 43//6 38//6
f 204//6 207//6 210//6 205//6
f 33//6 40//6 39//6 34//6
f 208//6 211//6 214//6 209//6
f 29//6 36//6 35//6 30//6
f 212//6 215//6 218//6 213//6
f 25//6 32//6 31//6 26//6
f 216//6 219//6 222//6 217//6
f 21//6 28//6 27//6 22//6
f 220//6 223//6 226//6 221//6
f 17//6 24//6 23//6 18//6
f 224//6 227//6 230//6 225//6
f 13//6 20//6 19//6 14//6
f 228//6 231//6 234//6 229//6
f 9//6 16//6 15//6 10//6
f 232//6 235//6 238//6 233//6
f 5//6 12//6 11//6 6//6
f 236//6 243//6 246//6 237//6
f 2//6 8//6 7//6 3//6
f 244//6 242//6 241//6 245//6
usemtl Chateau.vox_Material_224
f 359//4 118//4 127//4 360//4
f 368//5 359//5 360//5 377//5
f 376//6 378//6 127//6 118//6
f 367//5 366//5 379//5 380//5
f 374//6 381//6 382//6 375//6
f 365//5 364//5 383//5 384//5
f 371//6 385//6 386//6 372//6
