# Blender 3.6.7
# www.blender.org
mtllib chateau_4.mtl
o chateau_4
v -34.250000 3.500000 41.250000
v -34.250000 28.000000 41.250000
v -34.250000 28.000000 40.750000
v -34.250000 3.500000 40.750000
v 34.250000 3.500000 41.250000
v 34.250000 3.500000 40.750000
v 34.250000 28.000000 40.750000
v 34.250000 28.000000 41.250000
vn -1.0000 -0.0000 -0.0000
vn 1.0000 -0.0000 -0.0000
vn -0.0000 -0.0000 1.0000
vn -0.0000 -0.0000 -1.0000
vn -0.0000 -1.0000 -0.0000
vn -0.0000 1.0000 -0.0000
s 0
usemtl Chateau.vox_Material_246
f 1//1 2//1 3//1 4//1
f 5//2 6//2 7//2 8//2
f 1//3 5//3 8//3 2//3
f 4//4 3//4 7//4 6//4
f 1//5 4//5 6//5 5//5
f 2//6 8//6 7//6 3//6
