# Blender 3.6.7
# www.blender.org
mtllib chateau_1.mtl
o chateau_1
v -23.250000 23.000000 25.750000
v -23.250000 25.000000 25.750000
v -23.250000 25.000000 25.250000
v -23.250000 23.000000 25.250000
v -23.250000 25.500000 25.750000
v -23.250000 27.500000 25.750000
v -23.250000 27.500000 25.250000
v -23.250000 25.500000 25.250000
v -22.250000 23.000000 25.750000
v -22.250000 23.000000 25.250000
v -22.250000 25.000000 25.250000
v -22.250000 25.000000 25.750000
v -22.250000 25.500000 25.750000
v -22.250000 25.500000 25.250000
v -22.250000 27.500000 25.250000
v -22.250000 27.500000 25.750000
v -21.750000 23.000000 25.750000
v -21.750000 25.000000 25.750000
v -21.750000 25.000000 25.250000
v -21.750000 23.000000 25.250000
v -21.750000 25.500000 25.750000
v -21.750000 27.500000 25.750000
v -21.750000 27.500000 25.250000
v -21.750000 25.500000 25.250000
v -20.750000 23.000000 25.750000
v -20.750000 23.000000 25.250000
v -20.750000 25.000000 25.250000
v -20.750000 25.000000 25.750000
v -20.750000 25.500000 25.750000
v -20.750000 25.500000 25.250000
v -20.750000 27.500000 25.250000
v -20.750000 27.500000 25.750000
v -19.250000 23.000000 25.750000
v -19.250000 25.000000 25.750000
v -19.250000 25.000000 25.250000
v -19.250000 23.000000 25.250000
v -19.250000 25.500000 25.750000
v -19.250000 27.500000 25.750000
v -19.250000 27.500000 25.250000
v -19.250000 25.500000 25.250000
v -18.250000 23.000000 25.750000
v -18.250000 23.000000 25.250000
v -18.250000 25.000000 25.250000
v -18.250000 25.000000 25.750000
v -18.250000 25.500000 25.750000
v -18.250000 25.500000 25.250000
v -18.250000 27.500000 25.250000
v -18.250000 27.500000 25.750000
v -17.750000 23.000000 25.750000
v -17.750000 25.000000 25.750000
v -17.750000 25.000000 25.250000
v -17.750000 23.000000 25.250000
v -17.750000 25.500000 25.750000
v -17.750000 27.500000 25.750000
v -17.750000 27.500000 25.250000
v -17.750000 25.500000 25.250000
v -16.750000 23.000000 25.750000
v -16.750000 23.000000 25.250000
v -16.750000 25.000000 25.250000
v -16.750000 25.000000 25.750000
v -16.750000 25.500000 25.750000
v -16.750000 25.500000 25.250000
v -16.750000 27.500000 25.250000
v -16.750000 27.500000 25.750000
v -11.750000 23.000000 25.750000
v -11.750000 25.000000 25.750000
v -11.750000 25.000000 25.250000
v -11.750000 23.000000 25.250000
v -11.750000 25.500000 25.750000
v -11.750000 27.500000 25.750000
v -11.750000 27.500000 25.250000
v -11.750000 25.500000 25.250000
v -10.750000 23.000000 25.750000
v -10.750000 23.000000 25.250000
v -10.750000 25.000000 25.250000
v -10.750000 25.000000 25.750000
v -10.750000 25.500000 25.750000
v -10.750000 25.500000 25.250000
v -10.750000 27.500000 25.250000
v -10.750000 27.500000 25.750000
v -10.250000 23.000000 25.750000
v -10.250000 25.000000 25.750000
v -10.250000 25.000000 25.250000
v -10.250000 23.000000 25.250000
v -10.250000 25.500000 25.750000
v -10.250000 27.500000 25.750000
v -10.250000 27.500000 25.250000
v -10.250000 25.500000 25.250000
v -9.250000 23.000000 25.750000
v -9.250000 23.000000 25.250000
v -9.250000 25.000000 25.250000
v -9.250000 25.000000 25.750000
v -9.250000 25.500000 25.750000
v -9.250000 25.500000 25.250000
v -9.250000 27.500000 25.250000
v -9.250000 27.500000 25.750000
v -7.750000 23.000000 25.750000
v -7.750000 25.000000 25.750000
v -7.750000 25.000000 25.250000
v -7.750000 23.000000 25.250000
v -7.750000 25.500000 25.750000
v -7.750000 27.500000 25.750000
v -7.750000 27.500000 25.250000
v -7.750000 25.500000 25.250000
v -6.750000 23.000000 25.750000
v -6.750000 23.000000 25.250000
v -6.750000 25.000000 25.250000
v -6.750000 25.000000 25.750000
v -6.750000 25.500000 25.750000
v -6.750000 25.500000 25.250000
v -6.750000 27.500000 25.250000
v -6.750000 27.500000 25.750000
v -6.250000 23.000000 25.750000
v -6.250000 25.000000 25.750000
v -6.250000 25.000000 25.250000
v -6.250000 23.000000 25.250000
v -6.250000 25.500000 25.750000
v -6.250000 27.500000 25.750000
v -6.250000 27.500000 25.250000
v -6.250000 25.500000 25.250000
v -5.250000 23.000000 25.750000
v -5.250000 23.000000 25.250000
v -5.250000 25.000000 25.250000
v -5.250000 25.000000 25.750000
v -5.250000 25.500000 25.750000
v -5.250000 25.500000 25.250000
v -5.250000 27.500000 25.250000
v -5.250000 27.500000 25.750000
v -0.250000 23.000000 24.250000
v -0.250000 24.500000 24.250000
v -0.250000 24.500000 23.750000
v -0.250000 23.000000 23.750000
v 0.250000 23.000000 24.250000
v 0.250000 23.000000 23.750000
v 0.250000 24.500000 23.750000
v 0.250000 24.500000 24.250000
v -0.250000 25.000000 24.250000
v -0.250000 26.000000 24.250000
v -0.250000 26.000000 23.750000
v -0.250000 25.000000 23.750000
v 0.250000 25.000000 24.250000
v 0.250000 25.000000 23.750000
v 0.250000 26.000000 23.750000
v 0.250000 26.000000 24.250000
v 0.750000 23.000000 25.250000
v 0.750000 24.500000 25.250000
v 0.750000 24.500000 24.750000
v 0.750000 23.000000 24.750000
v 1.250000 23.000000 25.250000
v 1.250000 23.000000 24.750000
v 1.250000 24.500000 24.750000
v 1.250000 24.500000 25.250000
v 0.750000 25.000000 25.250000
v 0.750000 26.000000 25.250000
v 0.750000 26.000000 24.750000
v 0.750000 25.000000 24.750000
v 1.250000 25.000000 25.250000
v 1.250000 25.000000 24.750000
v 1.250000 26.000000 24.750000
v 1.250000 26.000000 25.250000
v 5.250000 23.000000 25.750000
v 5.250000 25.000000 25.750000
v 5.250000 25.000000 25.250000
v 5.250000 23.000000 25.250000
v 5.250000 25.500000 25.750000
v 5.250000 27.500000 25.750000
v 5.250000 27.500000 25.250000
v 5.250000 25.500000 25.250000
v 6.250000 23.000000 25.750000
v 6.250000 23.000000 25.250000
v 6.250000 25.000000 25.250000
v 6.250000 25.000000 25.750000
v 6.250000 25.500000 25.750000
v 6.250000 25.500000 25.250000
v 6.250000 27.500000 25.250000
v 6.250000 27.500000 25.750000
v 6.750000 23.000000 25.750000
v 6.750000 25.000000 25.750000
v 6.750000 25.000000 25.250000
v 6.750000 23.000000 25.250000
v 6.750000 25.500000 25.750000
v 6.750000 27.500000 25.750000
v 6.750000 27.500000 25.250000
v 6.750000 25.500000 25.250000
v 7.750000 23.000000 25.750000
v 7.750000 23.000000 25.250000
v 7.750000 25.000000 25.250000
v 7.750000 25.000000 25.750000
v 7.750000 25.500000 25.750000
v 7.750000 25.500000 25.250000
v 7.750000 27.500000 25.250000
v 7.750000 27.500000 25.750000
v 9.250000 23.000000 25.750000
v 9.250000 25.000000 25.750000
v 9.250000 25.000000 25.250000
v 9.250000 23.000000 25.250000
v 9.250000 25.500000 25.750000
v 9.250000 27.500000 25.750000
v 9.250000 27.500000 25.250000
v 9.250000 25.500000 25.250000
v 10.250000 23.000000 25.750000
v 10.250000 23.000000 25.250000
v 10.250000 25.000000 25.250000
v 10.250000 25.000000 25.750000
v 10.250000 25.500000 25.750000
v 10.250000 25.500000 25.250000
v 10.250000 27.500000 25.250000
v 10.250000 27.500000 25.750000
v 10.750000 23.000000 25.750000
v 10.750000 25.000000 25.750000
v 10.750000 25.000000 25.250000
v 10.750000 23.000000 25.250000
v 10.750000 25.500000 25.750000
v 10.750000 27.500000 25.750000
v 10.750000 27.500000 25.250000
v 10.750000 25.500000 25.250000
v 11.750000 23.000000 25.750000
v 11.750000 23.000000 25.250000
v 11.750000 25.000000 25.250000
v 11.750000 25.000000 25.750000
v 11.750000 25.500000 25.750000
v 11.750000 25.500000 25.250000
v 11.750000 27.500000 25.250000
v 11.750000 27.500000 25.750000
v 16.750000 23.000000 25.750000
v 16.750000 25.000000 25.750000
v 16.750000 25.000000 25.250000
v 16.750000 23.000000 25.250000
v 16.750000 25.500000 25.750000
v 16.750000 27.500000 25.750000
v 16.750000 27.500000 25.250000
v 16.750000 25.500000 25.250000
v 17.750000 23.000000 25.750000
v 17.750000 23.000000 25.250000
v 17.750000 25.000000 25.250000
v 17.750000 25.000000 25.750000
v 17.750000 25.500000 25.750000
v 17.750000 25.500000 25.250000
v 17.750000 27.500000 25.250000
v 17.750000 27.500000 25.750000
v 18.250000 23.000000 25.750000
v 18.250000 25.000000 25.750000
v 18.250000 25.000000 25.250000
v 18.250000 23.000000 25.250000
v 18.250000 25.500000 25.750000
v 18.250000 27.500000 25.750000
v 18.250000 27.500000 25.250000
v 18.250000 25.500000 25.250000
v 19.250000 23.000000 25.750000
v 19.250000 23.000000 25.250000
v 19.250000 25.000000 25.250000
v 19.250000 25.000000 25.750000
v 19.250000 25.500000 25.750000
v 19.250000 25.500000 25.250000
v 19.250000 27.500000 25.250000
v 19.250000 27.500000 25.750000
v 20.750000 23.000000 25.750000
v 20.750000 25.000000 25.750000
v 20.750000 25.000000 25.250000
v 20.750000 23.000000 25.250000
v 20.750000 25.500000 25.750000
v 20.750000 27.500000 25.750000
v 20.750000 27.500000 25.250000
v 20.750000 25.500000 25.250000
v 21.750000 23.000000 25.750000
v 21.750000 23.000000 25.250000
v 21.750000 25.000000 25.250000
v 21.750000 25.000000 25.750000
v 21.750000 25.500000 25.750000
v 21.750000 25.500000 25.250000
v 21.750000 27.500000 25.250000
v 21.750000 27.500000 25.750000
v 22.250000 23.000000 25.750000
v 22.250000 25.000000 25.750000
v 22.250000 25.000000 25.250000
v 22.250000 23.000000 25.250000
v 22.250000 25.500000 25.750000
v 22.250000 27.500000 25.750000
v 22.250000 27.500000 25.250000
v 22.250000 25.500000 25.250000
v 23.250000 23.000000 25.750000
v 23.250000 23.000000 25.250000
v 23.250000 25.000000 25.250000
v 23.250000 25.000000 25.750000
v 23.250000 25.500000 25.750000
v 23.250000 25.500000 25.250000
v 23.250000 27.500000 25.250000
v 23.250000 27.500000 25.750000
vn -1.0000 -0.0000 -0.0000
vn 1.0000 -0.0000 -0.0000
vn -0.0000 -0.0000 1.0000
vn -0.0000 -0.0000 -1.0000
vn -0.0000 -1.0000 -0.0000
vn -0.0000 1.0000 -0.0000
s 0
usemtl Chateau.vox_Material_15
f 1//1 2//1 3//1 4//1
f 5//1 6//1 7//1 8//1
f 9//2 10//2 11//2 12//2
f 13//2 14//2 15//2 16//2
f 17//1 18//1 19//1 20//1
f 21//1 22//1 23//1 24//1
f 25//2 26//2 27//2 28//2
f 29//2 30//2 31//2 32//2
f 33//1 34//1 35//1 36//1
f 37//1 38//1 39//1 40//1
f 41//2 42//2 43//2 44//2
f 45//2 46//2 47//2 48//2
f 49//1 50//1 51//1 52//1
f 53//1 54//1 55//1 56//1
f 57//2 58//2 59//2 60//2
f 61//2 62//2 63//2 64//2
f 65//1 66//1 67//1 68//1
f 69//1 70//1 71//1 72//1
f 73//2 74//2 75//2 76//2
f 77//2 78//2 79//2 80//2
f 81//1 82//1 83//1 84//1
f 85//1 86//1 87//1 88//1
f 89//2 90//2 91//2 92//2
f 93//2 94//2 95//2 96//2
f 97//1 98//1 99//1 100//1
f 101//1 102//1 103//1 104//1
f 105//2 106//2 107//2 108//2
f 109//2 110//2 111//2 112//2
f 113//1 114//1 115//1 116//1
f 117//1 118//1 119//1 120//1
f 121//2 122//2 123//2 124//2
f 125//2 126//2 127//2 128//2
f 129//1 130//1 131//1 132//1
f 133//2 134//2 135//2 136//2
f 137//1 138//1 139//1 140//1
f 141//2 142//2 143//2 144//2
f 145//1 146//1 147//1 148//1
f 149//2 150//2 151//2 152//2
f 153//1 154//1 155//1 156//1
f 157//2 158//2 159//2 160//2
f 161//1 162//1 163//1 164//1
f 165//1 166//1 167//1 168//1
f 169//2 170//2 171//2 172//2
f 173//2 174//2 175//2 176//2
f 177//1 178//1 179//1 180//1
f 181//1 182//1 183//1 184//1
f 185//2 186//2 187//2 188//2
f 189//2 190//2 191//2 192//2
f 193//1 194//1 195//1 196//1
f 197//1 198//1 199//1 200//1
f 201//2 202//2 203//2 204//2
f 205//2 206//2 207//2 208//2
f 209//1 210//1 211//1 212//1
f 213//1 214//1 215//1 216//1
f 217//2 218//2 219//2 220//2
f 221//2 222//2 223//2 224//2
f 225//1 226//1 227//1 228//1
f 229//1 230//1 231//1 232//1
f 233//2 234//2 235//2 236//2
f 237//2 238//2 239//2 240//2
f 241//1 242//1 243//1 244//1
f 245//1 246//1 247//1 248//1
f 249//2 250//2 251//2 252//2
f 253//2 254//2 255//2 256//2
f 257//1 258//1 259//1 260//1
f 261//1 262//1 263//1 264//1
f 265//2 266//2 267//2 268//2
f 269//2 270//2 271//2 272//2
f 273//1 274//1 275//1 276//1
f 277//1 278//1 279//1 280//1
f 281//2 282//2 283//2 284//2
f 285//2 286//2 287//2 288//2
f 1//3 9//3 12//3 2//3
f 4//4 3//4 11//4 10//4
f 17//3 25//3 28//3 18//3
f 20//4 19//4 27//4 26//4
f 33//3 41//3 44//3 34//3
f 36//4 35//4 43//4 42//4
f 49//3 57//3 60//3 50//3
f 52//4 51//4 59//4 58//4
f 65//3 73//3 76//3 66//3
f 68//4 67//4 75//4 74//4
f 81//3 89//3 92//3 82//3
f 84//4 83//4 91//4 90//4
f 97//3 105//3 108//3 98//3
f 100//4 99//4 107//4 106//4
f 113//3 121//3 124//3 114//3
f 116//4 115//4 123//4 122//4
f 161//3 169//3 172//3 162//3
f 164//4 163//4 171//4 170//4
f 177//3 185//3 188//3 178//3
f 180//4 179//4 187//4 186//4
f 193//3 201//3 204//3 194//3
f 196//4 195//4 203//4 202//4
f 209//3 217//3 220//3 210//3
f 212//4 211//4 219//4 218//4
f 225//3 233//3 236//3 226//3
f 228//4 227//4 235//4 234//4
f 241//3 249//3 252//3 242//3
f 244//4 243//4 251//4 250//4
f 257//3 265//3 268//3 258//3
f 260//4 259//4 267//4 266//4
f 273//3 281//3 284//3 274//3
f 276//4 275//4 283//4 282//4
f 5//3 13//3 16//3 6//3
f 8//4 7//4 15//4 14//4
f 21//3 29//3 32//3 22//3
f 24//4 23//4 31//4 30//4
f 37//3 45//3 48//3 38//3
f 40//4 39//4 47//4 46//4
f 53//3 61//3 64//3 54//3
f 56//4 55//4 63//4 62//4
f 69//3 77//3 80//3 70//3
f 72//4 71//4 79//4 78//4
f 85//3 93//3 96//3 86//3
f 88//4 87//4 95//4 94//4
f 101//3 109//3 112//3 102//3
f 104//4 103//4 111//4 110//4
f 117//3 125//3 128//3 118//3
f 120//4 119//4 127//4 126//4
f 165//3 173//3 176//3 166//3
f 168//4 167//4 175//4 174//4
f 181//3 189//3 192//3 182//3
f 184//4 183//4 191//4 190//4
f 197//3 205//3 208//3 198//3
f 200//4 199//4 207//4 206//4
f 213//3 221//3 224//3 214//3
f 216//4 215//4 223//4 222//4
f 229//3 237//3 240//3 230//3
f 232//4 231//4 239//4 238//4
f 245//3 253//3 256//3 246//3
f 248//4 247//4 255//4 254//4
f 261//3 269//3 272//3 262//3
f 264//4 263//4 271//4 270//4
f 277//3 285//3 288//3 278//3
f 280//4 279//4 287//4 286//4
f 145//3 149//3 152//3 146//3
f 148//4 147//4 151//4 150//4
f 153//3 157//3 160//3 154//3
f 156//4 155//4 159//4 158//4
f 129//3 133//3 136//3 130//3
f 132//4 131//4 135//4 134//4
f 137//3 141//3 144//3 138//3
f 140//4 139//4 143//4 142//4
f 1//5 4//5 10//5 9//5
f 17//5 20//5 26//5 25//5
f 33//5 36//5 42//5 41//5
f 49//5 52//5 58//5 57//5
f 65//5 68//5 74//5 73//5
f 81//5 84//5 90//5 89//5
f 97//5 100//5 106//5 105//5
f 113//5 116//5 122//5 121//5
f 129//5 132//5 134//5 133//5
f 145//5 148//5 150//5 149//5
f 161//5 164//5 170//5 169//5
f 177//5 180//5 186//5 185//5
f 193//5 196//5 202//5 201//5
f 209//5 212//5 218//5 217//5
f 225//5 228//5 234//5 233//5
f 241//5 244//5 250//5 249//5
f 257//5 260//5 266//5 265//5
f 273//5 276//5 282//5 281//5
f 130//6 136//6 135//6 131//6
f 146//6 152//6 151//6 147//6
f 2//6 12//6 11//6 3//6
f 18//6 28//6 27//6 19//6
f 34//6 44//6 43//6 35//6
f 50//6 60//6 59//6 51//6
f 66//6 76//6 75//6 67//6
f 82//6 92//6 91//6 83//6
f 98//6 108//6 107//6 99//6
f 114//6 124//6 123//6 115//6
f 162//6 172//6 171//6 163//6
f 178//6 188//6 187//6 179//6
f 194//6 204//6 203//6 195//6
f 210//6 220//6 219//6 211//6
f 226//6 236//6 235//6 227//6
f 242//6 252//6 251//6 243//6
f 258//6 268//6 267//6 259//6
f 274//6 284//6 283//6 275//6
f 137//5 140//5 142//5 141//5
f 153//5 156//5 158//5 157//5
f 5//5 8//5 14//5 13//5
f 21//5 24//5 30//5 29//5
f 37//5 40//5 46//5 45//5
f 53//5 56//5 62//5 61//5
f 69//5 72//5 78//5 77//5
f 85//5 88//5 94//5 93//5
f 101//5 104//5 110//5 109//5
f 117//5 120//5 126//5 125//5
f 138//6 144//6 143//6 139//6
f 154//6 160//6 159//6 155//6
f 165//5 168//5 174//5 173//5
f 181//5 184//5 190//5 189//5
f 197//5 200//5 206//5 205//5
f 213//5 216//5 222//5 221//5
f 229//5 232//5 238//5 237//5
f 245//5 248//5 254//5 253//5
f 261//5 264//5 270//5 269//5
f 277//5 280//5 286//5 285//5
f 6//6 16//6 15//6 7//6
f 22//6 32//6 31//6 23//6
f 38//6 48//6 47//6 39//6
f 54//6 64//6 63//6 55//6
f 70//6 80//6 79//6 71//6
f 86//6 96//6 95//6 87//6
f 102//6 112//6 111//6 103//6
f 118//6 128//6 127//6 119//6
f 166//6 176//6 175//6 167//6
f 182//6 192//6 191//6 183//6
f 198//6 208//6 207//6 199//6
f 214//6 224//6 223//6 215//6
f 230//6 240//6 239//6 231//6
f 246//6 256//6 255//6 247//6
f 262//6 272//6 271//6 263//6
f 278//6 288//6 287//6 279//6
