# Blender 3.6.7
# www.blender.org
mtllib rightShoulder.mtl
o rightShoulder
v -0.150000 -0.112500 0.037500
v -0.150000 -0.112500 0.112500
v -0.150000 -0.037500 0.112500
v -0.150000 -0.037500 0.037500
v -0.075000 -0.112500 0.112500
v -0.075000 -0.037500 0.112500
v -0.075000 -0.112500 0.037500
v -0.150000 0.037500 0.112500
v -0.150000 0.037500 0.037500
v -0.075000 0.037500 0.112500
v -0.075000 0.037500 0.037500
v -0.150000 -0.112500 -0.037500
v -0.150000 -0.037500 -0.037500
v -0.075000 -0.112500 -0.037500
v -0.150000 0.037500 -0.037500
v -0.075000 0.037500 -0.037500
v -0.150000 -0.112500 -0.112500
v -0.150000 -0.037500 -0.112500
v -0.075000 -0.112500 -0.112500
v -0.075000 -0.037500 -0.112500
v -0.150000 0.037500 -0.112500
v -0.075000 0.037500 -0.112500
v 0.000000 -0.112500 0.112500
v 0.000000 -0.112500 0.037500
v 0.000000 -0.037500 0.037500
v 0.000000 -0.037500 0.112500
v 0.000000 0.037500 0.037500
v 0.000000 0.037500 0.112500
v -0.075000 0.112500 0.112500
v -0.075000 0.112500 0.037500
v 0.000000 0.112500 0.037500
v 0.000000 0.112500 0.112500
v 0.000000 -0.112500 -0.037500
v 0.000000 -0.037500 -0.037500
v 0.000000 0.037500 -0.037500
v -0.075000 0.112500 -0.037500
v 0.000000 0.112500 -0.037500
v 0.000000 -0.112500 -0.112500
v 0.000000 -0.037500 -0.112500
v 0.000000 0.037500 -0.112500
v -0.075000 0.112500 -0.112500
v 0.000000 0.112500 -0.112500
vn -1.0000 -0.0000 -0.0000
vn -0.0000 -0.0000 1.0000
vn -0.0000 -1.0000 -0.0000
vn -0.0000 1.0000 -0.0000
vn -0.0000 -0.0000 -1.0000
vn 1.0000 -0.0000 -0.0000
s 0
usemtl playerChar.vox_Material_234
f 1//1 2//1 3//1 4//1
f 2//2 5//2 6//2 3//2
f 1//3 7//3 5//3 2//3
f 4//1 3//1 8//1 9//1
f 3//2 6//2 10//2 8//2
f 8//4 10//4 11//4 9//4
f 12//1 1//1 4//1 13//1
f 12//3 14//3 7//3 1//3
f 17//1 12//1 13//1 18//1
f 19//5 17//5 18//5 20//5
f 17//3 19//3 14//3 12//3
f 18//1 13//1 15//1 21//1
f 20//5 18//5 21//5 22//5
f 15//4 16//4 22//4 21//4
f 23//6 24//6 25//6 26//6
f 5//2 23//2 26//2 6//2
f 7//3 24//3 23//3 5//3
f 26//6 25//6 27//6 28//6
f 6//2 26//2 28//2 10//2
f 24//6 33//6 34//6 25//6
f 14//3 33//3 24//3 7//3
f 25//6 34//6 35//6 27//6
f 16//1 11//1 30//1 36//1
f 27//6 35//6 37//6 31//6
f 30//4 31//4 37//4 36//4
f 33//6 38//6 39//6 34//6
f 38//5 19//5 20//5 39//5
f 19//3 38//3 33//3 14//3
f 34//6 39//6 40//6 35//6
f 39//5 20//5 22//5 40//5
usemtl playerChar.vox_Material_237
f 13//1 4//1 9//1 15//1
f 9//4 11//4 16//4 15//4
f 11//1 10//1 29//1 30//1
f 28//6 27//6 31//6 32//6
f 10//2 28//2 32//2 29//2
f 29//4 32//4 31//4 30//4
f 22//1 16//1 36//1 41//1
f 35//6 40//6 42//6 37//6
f 40//5 22//5 41//5 42//5
f 36//4 37//4 42//4 41//4
