# Blender 3.6.7
# www.blender.org
mtllib rightLeg.mtl
o rightLeg
v -0.112500 0.225000 0.037500
v -0.112500 0.225000 0.112500
v -0.112500 0.300000 0.112500
v -0.112500 0.300000 0.037500
v -0.037500 0.225000 0.112500
v -0.037500 0.300000 0.112500
v -0.037500 0.225000 0.037500
v -0.037500 0.300000 0.037500
v -0.112500 0.000000 -0.037500
v -0.112500 0.000000 0.037500
v -0.112500 0.075000 0.037500
v -0.112500 0.075000 -0.037500
v -0.037500 0.000000 0.037500
v -0.037500 0.075000 0.037500
v -0.037500 0.000000 -0.037500
v -0.112500 0.150000 0.037500
v -0.112500 0.150000 -0.037500
v -0.037500 0.150000 0.037500
v -0.112500 0.225000 -0.037500
v -0.112500 0.300000 -0.037500
v -0.037500 0.225000 -0.037500
v -0.037500 0.300000 -0.037500
v -0.112500 0.000000 -0.112500
v -0.112500 0.075000 -0.112500
v -0.037500 0.000000 -0.112500
v -0.037500 0.075000 -0.112500
v -0.112500 0.150000 -0.112500
v -0.037500 0.150000 -0.112500
v -0.112500 0.225000 -0.112500
v -0.037500 0.225000 -0.112500
v 0.037500 0.225000 0.112500
v 0.037500 0.300000 0.112500
v 0.037500 0.225000 0.037500
v 0.037500 0.300000 0.037500
v 0.037500 0.000000 0.037500
v 0.037500 0.075000 0.037500
v 0.037500 0.000000 -0.037500
v 0.037500 0.150000 0.037500
v 0.037500 0.225000 -0.037500
v 0.037500 0.000000 -0.112500
v 0.037500 0.075000 -0.112500
v 0.037500 0.150000 -0.112500
v 0.037500 0.225000 -0.112500
v 0.112500 0.225000 0.112500
v 0.112500 0.225000 0.037500
v 0.112500 0.300000 0.037500
v 0.112500 0.300000 0.112500
v 0.112500 0.000000 0.037500
v 0.112500 0.000000 -0.037500
v 0.112500 0.075000 -0.037500
v 0.112500 0.075000 0.037500
v 0.112500 0.150000 -0.037500
v 0.112500 0.150000 0.037500
v 0.112500 0.225000 -0.037500
v 0.037500 0.300000 -0.037500
v 0.112500 0.300000 -0.037500
v 0.112500 0.000000 -0.112500
v 0.112500 0.075000 -0.112500
v 0.112500 0.150000 -0.112500
v 0.112500 0.225000 -0.112500
vn -1.0000 -0.0000 -0.0000
vn -0.0000 -0.0000 1.0000
vn -0.0000 -1.0000 -0.0000
vn -0.0000 1.0000 -0.0000
vn 1.0000 -0.0000 -0.0000
vn -0.0000 -0.0000 -1.0000
s 0
usemtl playerChar.vox_Material_236
f 12//1 11//1 16//1 17//1
f 11//2 14//2 18//2 16//2
f 17//1 16//1 1//1 19//1
f 16//2 18//2 7//2 1//2
f 19//1 1//1 4//1 20//1
f 7//5 21//5 22//5 8//5
f 21//6 19//6 20//6 22//6
f 4//4 8//4 22//4 20//4
f 23//1 9//1 12//1 24//1
f 25//6 23//6 24//6 26//6
f 23//3 25//3 15//3 9//3
f 41//6 26//6 28//6 42//6
f 42//6 28//6 30//6 43//6
f 21//4 39//4 43//4 30//4
usemtl playerChar.vox_Material_237
f 1//1 2//1 3//1 4//1
f 2//2 5//2 6//2 3//2
f 1//3 7//3 5//3 2//3
f 3//4 6//4 8//4 4//4
f 9//1 10//1 11//1 12//1
f 10//2 13//2 14//2 11//2
f 9//3 15//3 13//3 10//3
f 24//1 12//1 17//1 27//1
f 26//6 24//6 27//6 28//6
f 5//2 31//2 32//2 6//2
f 33//6 7//6 8//6 34//6
f 7//3 33//3 31//3 5//3
f 6//4 32//4 34//4 8//4
f 13//2 35//2 36//2 14//2
f 15//3 37//3 35//3 13//3
f 14//2 36//2 38//2 18//2
f 18//2 38//2 33//2 7//2
f 7//4 33//4 39//4 21//4
f 40//6 25//6 26//6 41//6
f 25//3 40//3 37//3 15//3
f 44//5 45//5 46//5 47//5
f 31//2 44//2 47//2 32//2
f 33//3 45//3 44//3 31//3
f 32//4 47//4 46//4 34//4
f 48//5 49//5 50//5 51//5
f 35//2 48//2 51//2 36//2
f 37//3 49//3 48//3 35//3
f 51//5 50//5 52//5 53//5
f 36//2 51//2 53//2 38//2
f 53//5 52//5 54//5 45//5
f 38//2 53//2 45//2 33//2
f 39//1 33//1 34//1 55//1
f 45//5 54//5 56//5 46//5
f 54//6 39//6 55//6 56//6
f 34//4 46//4 56//4 55//4
f 49//5 57//5 58//5 50//5
f 57//6 40//6 41//6 58//6
f 40//3 57//3 49//3 37//3
f 50//5 58//5 59//5 52//5
f 58//6 41//6 42//6 59//6
f 52//5 59//5 60//5 54//5
f 59//6 42//6 43//6 60//6
f 39//4 54//4 60//4 43//4
usemtl playerChar.vox_Material_254
f 27//1 17//1 19//1 29//1
f 28//6 27//6 29//6 30//6
f 19//4 21//4 30//4 29//4
