# Blender 3.6.7
# www.blender.org
mtllib rightTorso.mtl
o torso
v -0.262500 0.075000 0.037500
v -0.262500 0.075000 0.112500
v -0.262500 0.150000 0.112500
v -0.262500 0.150000 0.037500
v -0.187500 0.075000 0.112500
v -0.187500 0.150000 0.112500
v -0.187500 0.075000 0.037500
v -0.262500 0.225000 0.112500
v -0.262500 0.225000 0.037500
v -0.187500 0.225000 0.112500
v -0.262500 0.300000 0.112500
v -0.262500 0.300000 0.037500
v -0.187500 0.300000 0.112500
v -0.187500 0.300000 0.037500
v -0.262500 -0.000000 -0.037500
v -0.262500 -0.000000 0.037500
v -0.262500 0.075000 -0.037500
v -0.187500 -0.000000 0.037500
v -0.187500 -0.000000 -0.037500
v -0.187500 0.075000 -0.037500
v -0.262500 0.150000 -0.037500
v -0.262500 0.225000 -0.037500
v -0.262500 0.300000 -0.037500
v -0.262500 0.375000 0.037500
v -0.262500 0.375000 -0.037500
v -0.187500 0.375000 0.037500
v -0.187500 0.375000 -0.037500
v -0.262500 0.075000 -0.112500
v -0.262500 0.150000 -0.112500
v -0.187500 0.075000 -0.112500
v -0.187500 0.150000 -0.112500
v -0.262500 0.225000 -0.112500
v -0.187500 0.225000 -0.112500
v -0.262500 0.300000 -0.112500
v -0.187500 0.300000 -0.112500
v -0.262500 0.375000 -0.112500
v -0.187500 0.375000 -0.112500
v -0.187500 0.075000 0.187500
v -0.187500 0.150000 0.187500
v -0.112500 0.075000 0.187500
v -0.112500 0.150000 0.187500
v -0.112500 0.075000 0.112500
v -0.187500 0.225000 0.187500
v -0.112500 0.225000 0.187500
v -0.187500 0.300000 0.187500
v -0.112500 0.225000 0.112500
v -0.112500 0.300000 0.112500
v -0.112500 0.300000 0.187500
v -0.187500 -0.075000 0.037500
v -0.187500 -0.075000 0.112500
v -0.187500 -0.000000 0.112500
v -0.112500 -0.075000 0.112500
v -0.112500 -0.000000 0.112500
v -0.112500 -0.075000 0.037500
v -0.112500 0.300000 0.037500
v -0.187500 -0.300000 -0.037500
v -0.187500 -0.300000 0.037500
v -0.187500 -0.225000 0.037500
v -0.187500 -0.225000 -0.037500
v -0.112500 -0.300000 0.037500
v -0.112500 -0.225000 0.037500
v -0.112500 -0.300000 -0.037500
v -0.112500 -0.225000 -0.037500
v -0.187500 -0.150000 0.037500
v -0.187500 -0.150000 -0.037500
v -0.112500 -0.150000 0.037500
v -0.112500 -0.150000 -0.037500
v -0.187500 -0.075000 -0.037500
v -0.112500 -0.075000 -0.037500
v -0.112500 0.300000 -0.037500
v -0.112500 0.375000 -0.037500
v -0.112500 0.375000 0.037500
v -0.187500 -0.075000 -0.112500
v -0.187500 -0.000000 -0.112500
v -0.112500 -0.075000 -0.112500
v -0.112500 -0.000000 -0.112500
v -0.112500 0.075000 -0.112500
v -0.112500 0.225000 -0.112500
v -0.112500 0.300000 -0.112500
v -0.112500 0.375000 -0.112500
v -0.187500 0.075000 -0.187500
v -0.187500 0.150000 -0.187500
v -0.112500 0.075000 -0.187500
v -0.112500 0.150000 -0.187500
v -0.187500 0.225000 -0.187500
v -0.112500 0.225000 -0.187500
v -0.187500 0.300000 -0.187500
v -0.187500 0.375000 -0.187500
v -0.112500 0.300000 -0.187500
v -0.112500 0.375000 -0.187500
v -0.112500 -0.075000 0.187500
v -0.112500 -0.000000 0.187500
v -0.037500 -0.075000 0.187500
v -0.037500 -0.075000 0.112500
v -0.037500 -0.000000 0.112500
v -0.037500 -0.000000 0.187500
v -0.037500 0.075000 0.112500
v -0.037500 0.075000 0.187500
v -0.037500 0.150000 0.112500
v -0.037500 0.150000 0.187500
v -0.037500 0.225000 0.112500
v -0.037500 0.225000 0.187500
v -0.112500 -0.300000 0.112500
v -0.112500 -0.225000 0.112500
v -0.037500 -0.300000 0.112500
v -0.037500 -0.225000 0.112500
v -0.037500 -0.300000 0.037500
v -0.112500 -0.150000 0.112500
v -0.037500 -0.150000 0.112500
v -0.037500 0.225000 0.037500
v -0.037500 0.300000 0.037500
v -0.037500 0.300000 0.112500
v -0.037500 -0.300000 -0.037500
v -0.037500 0.300000 -0.037500
v -0.112500 -0.300000 -0.112500
v -0.112500 -0.225000 -0.112500
v -0.037500 -0.300000 -0.112500
v -0.037500 -0.225000 -0.112500
v -0.112500 -0.150000 -0.112500
v -0.037500 -0.150000 -0.112500
v -0.037500 -0.075000 -0.112500
v -0.037500 0.300000 -0.112500
v -0.037500 0.375000 -0.112500
v -0.037500 0.375000 -0.037500
v -0.112500 -0.075000 -0.187500
v -0.112500 -0.000000 -0.187500
v -0.037500 -0.075000 -0.187500
v -0.037500 -0.000000 -0.187500
v -0.037500 0.075000 -0.187500
v -0.037500 0.150000 -0.187500
v -0.037500 0.225000 -0.187500
v -0.037500 0.300000 -0.187500
v -0.037500 0.375000 -0.187500
v -0.112500 0.300000 -0.262500
v -0.112500 0.375000 -0.262500
v -0.037500 0.300000 -0.262500
v -0.037500 0.375000 -0.262500
v 0.037500 -0.300000 0.112500
v 0.037500 -0.225000 0.112500
v 0.037500 -0.300000 0.037500
v 0.037500 -0.150000 0.112500
v 0.037500 -0.075000 0.112500
v 0.037500 -0.000000 0.112500
v 0.037500 0.075000 0.112500
v 0.037500 0.150000 0.112500
v 0.037500 0.225000 0.112500
v 0.037500 0.225000 0.037500
v 0.037500 -0.300000 -0.037500
v 0.037500 0.300000 0.037500
v 0.037500 0.300000 -0.037500
v 0.037500 -0.300000 -0.112500
v 0.037500 -0.225000 -0.112500
v 0.037500 -0.150000 -0.112500
v 0.037500 -0.075000 -0.112500
v 0.037500 0.300000 -0.112500
v 0.037500 -0.075000 -0.187500
v 0.037500 -0.000000 -0.187500
v 0.037500 0.075000 -0.187500
v 0.037500 0.150000 -0.187500
v 0.037500 0.225000 -0.187500
v 0.037500 0.300000 -0.187500
v 0.037500 0.375000 -0.112500
v 0.037500 0.375000 -0.187500
v 0.037500 0.300000 -0.262500
v 0.037500 0.375000 -0.262500
v 0.037500 -0.075000 0.187500
v 0.037500 -0.000000 0.187500
v 0.112500 -0.075000 0.187500
v 0.112500 -0.075000 0.112500
v 0.112500 -0.000000 0.112500
v 0.112500 -0.000000 0.187500
v 0.037500 0.075000 0.187500
v 0.112500 0.075000 0.112500
v 0.112500 0.075000 0.187500
v 0.037500 0.150000 0.187500
v 0.112500 0.150000 0.187500
v 0.037500 0.225000 0.187500
v 0.112500 0.225000 0.187500
v 0.112500 0.225000 0.112500
v 0.112500 -0.300000 0.112500
v 0.112500 -0.300000 0.037500
v 0.112500 -0.225000 0.037500
v 0.112500 -0.225000 0.112500
v 0.112500 -0.150000 0.037500
v 0.112500 -0.150000 0.112500
v 0.112500 -0.075000 0.037500
v 0.037500 0.300000 0.112500
v 0.112500 0.300000 0.112500
v 0.112500 0.300000 0.037500
v 0.112500 -0.300000 -0.037500
v 0.112500 0.300000 -0.037500
v 0.112500 -0.300000 -0.112500
v 0.112500 -0.225000 -0.112500
v 0.112500 -0.225000 -0.037500
v 0.112500 -0.150000 -0.112500
v 0.112500 -0.150000 -0.037500
v 0.112500 -0.075000 -0.112500
v 0.112500 -0.075000 -0.037500
v 0.037500 0.375000 -0.037500
v 0.112500 0.375000 -0.037500
v 0.112500 0.375000 -0.112500
v 0.112500 -0.075000 -0.187500
v 0.112500 -0.000000 -0.187500
v 0.112500 -0.000000 -0.112500
v 0.112500 0.075000 -0.187500
v 0.112500 0.075000 -0.112500
v 0.112500 0.150000 -0.187500
v 0.112500 0.225000 -0.187500
v 0.112500 0.225000 -0.112500
v 0.112500 0.300000 -0.187500
v 0.112500 0.300000 -0.112500
v 0.112500 0.375000 -0.187500
v 0.112500 0.300000 -0.262500
v 0.112500 0.375000 -0.262500
v 0.187500 0.075000 0.187500
v 0.187500 0.075000 0.112500
v 0.187500 0.150000 0.112500
v 0.187500 0.150000 0.187500
v 0.187500 0.225000 0.112500
v 0.187500 0.225000 0.187500
v 0.112500 0.300000 0.187500
v 0.187500 0.300000 0.112500
v 0.187500 0.300000 0.187500
v 0.187500 -0.075000 0.112500
v 0.187500 -0.075000 0.037500
v 0.187500 -0.000000 0.037500
v 0.187500 -0.000000 0.112500
v 0.187500 0.075000 0.037500
v 0.187500 0.300000 0.037500
v 0.187500 -0.300000 0.037500
v 0.187500 -0.300000 -0.037500
v 0.187500 -0.225000 -0.037500
v 0.187500 -0.225000 0.037500
v 0.187500 -0.150000 -0.037500
v 0.187500 -0.150000 0.037500
v 0.187500 -0.075000 -0.037500
v 0.187500 -0.000000 -0.037500
v 0.112500 0.375000 0.037500
v 0.187500 0.375000 0.037500
v 0.187500 0.375000 -0.037500
v 0.187500 -0.075000 -0.112500
v 0.187500 -0.000000 -0.112500
v 0.187500 0.075000 -0.112500
v 0.187500 0.075000 -0.037500
v 0.187500 0.225000 -0.112500
v 0.187500 0.300000 -0.112500
v 0.187500 0.375000 -0.112500
v 0.187500 0.075000 -0.187500
v 0.187500 0.150000 -0.187500
v 0.187500 0.150000 -0.112500
v 0.187500 0.225000 -0.187500
v 0.187500 0.300000 -0.187500
v 0.187500 0.375000 -0.187500
v 0.262500 0.075000 0.112500
v 0.262500 0.075000 0.037500
v 0.262500 0.150000 0.037500
v 0.262500 0.150000 0.112500
v 0.262500 0.225000 0.037500
v 0.262500 0.225000 0.112500
v 0.262500 0.300000 0.037500
v 0.262500 0.300000 0.112500
v 0.262500 -0.000000 0.037500
v 0.262500 -0.000000 -0.037500
v 0.262500 0.075000 -0.037500
v 0.262500 0.150000 -0.037500
v 0.262500 0.225000 -0.037500
v 0.262500 0.300000 -0.037500
v 0.262500 0.375000 -0.037500
v 0.262500 0.375000 0.037500
v 0.262500 0.075000 -0.112500
v 0.262500 0.150000 -0.112500
v 0.262500 0.225000 -0.112500
v 0.262500 0.300000 -0.112500
v 0.262500 0.375000 -0.112500
vn -1.0000 -0.0000 -0.0000
vn -0.0000 -0.0000 1.0000
vn -0.0000 -1.0000 -0.0000
vn -0.0000 1.0000 -0.0000
vn -0.0000 -0.0000 -1.0000
vn 1.0000 -0.0000 -0.0000
s 0
usemtl playerChar.vox_Material_234
f 1//1 2//1 3//1 4//1
f 2//2 5//2 6//2 3//2
f 1//3 7//3 5//3 2//3
f 4//1 3//1 8//1 9//1
f 3//2 6//2 10//2 8//2
f 9//1 8//1 11//1 12//1
f 8//2 10//2 13//2 11//2
f 11//4 13//4 14//4 12//4
f 15//1 16//1 1//1 17//1
f 16//2 18//2 7//2 1//2
f 19//5 15//5 17//5 20//5
f 15//3 19//3 18//3 16//3
f 17//1 1//1 4//1 21//1
f 21//1 4//1 9//1 22//1
f 22//1 9//1 12//1 23//1
f 28//1 17//1 21//1 29//1
f 30//5 28//5 29//5 31//5
f 28//3 30//3 20//3 17//3
f 29//1 21//1 22//1 32//1
f 31//5 29//5 32//5 33//5
f 32//1 22//1 23//1 34//1
f 33//5 32//5 34//5 35//5
f 49//1 50//1 51//1 18//1
f 50//2 52//2 53//2 51//2
f 49//3 54//3 52//3 50//3
f 56//1 57//1 58//1 59//1
f 57//2 60//2 61//2 58//2
f 62//5 56//5 59//5 63//5
f 56//3 62//3 60//3 57//3
f 65//1 64//1 49//1 68//1
f 64//2 66//2 54//2 49//2
f 67//5 65//5 68//5 69//5
f 73//1 68//1 19//1 74//1
f 75//5 73//5 74//5 76//5
f 73//3 75//3 69//3 68//3
f 60//1 103//1 104//1 61//1
f 103//2 105//2 106//2 104//2
f 60//3 107//3 105//3 103//3
f 66//1 108//1 52//1 54//1
f 108//2 109//2 94//2 52//2
f 62//3 113//3 107//3 60//3
f 115//1 62//1 63//1 116//1
f 117//5 115//5 116//5 118//5
f 115//3 117//3 113//3 62//3
f 119//1 67//1 69//1 75//1
f 120//5 119//5 75//5 121//5
f 113//3 148//3 140//3 107//3
f 151//5 117//5 118//5 152//5
f 117//3 151//3 148//3 113//3
f 153//5 120//5 121//5 154//5
f 180//6 181//6 182//6 183//6
f 138//2 180//2 183//2 139//2
f 140//3 181//3 180//3 138//3
f 185//6 184//6 186//6 169//6
f 141//2 185//2 169//2 142//2
f 148//3 190//3 181//3 140//3
f 190//6 192//6 193//6 194//6
f 192//5 151//5 152//5 193//5
f 151//3 192//3 190//3 148//3
f 196//6 195//6 197//6 198//6
f 195//5 153//5 154//5 197//5
f 224//6 225//6 226//6 227//6
f 169//2 224//2 227//2 170//2
f 186//3 225//3 224//3 169//3
f 230//6 231//6 232//6 233//6
f 181//2 230//2 233//2 182//2
f 231//5 190//5 194//5 232//5
f 190//3 231//3 230//3 181//3
f 235//6 234//6 236//6 225//6
f 184//2 235//2 225//2 186//2
f 234//5 196//5 198//5 236//5
f 236//6 241//6 242//6 237//6
f 241//5 197//5 204//5 242//5
f 197//3 241//3 236//3 198//3
f 254//6 255//6 256//6 257//6
f 216//2 254//2 257//2 217//2
f 228//3 255//3 254//3 216//3
f 257//6 256//6 258//6 259//6
f 217//2 257//2 259//2 219//2
f 259//6 258//6 260//6 261//6
f 219//2 259//2 261//2 222//2
f 222//4 261//4 260//4 229//4
f 262//6 263//6 264//6 255//6
f 226//2 262//2 255//2 228//2
f 263//5 237//5 244//5 264//5
f 237//3 263//3 262//3 226//3
f 255//6 264//6 265//6 256//6
f 256//6 265//6 266//6 258//6
f 258//6 266//6 267//6 260//6
f 264//6 270//6 271//6 265//6
f 270//5 243//5 250//5 271//5
f 243//3 270//3 264//3 244//3
f 265//6 271//6 272//6 266//6
f 271//5 250//5 245//5 272//5
f 266//6 272//6 273//6 267//6
f 272//5 245//5 246//5 273//5
usemtl playerChar.vox_Material_237
f 130//5 84//5 86//5 131//5
f 105//2 138//2 139//2 106//2
f 107//3 140//3 138//3 105//3
f 109//2 141//2 142//2 94//2
f 94//2 142//2 143//2 95//2
f 95//2 143//2 144//2 97//2
f 97//2 144//2 145//2 99//2
f 99//2 145//2 146//2 101//2
f 101//4 146//4 147//4 110//4
f 110//2 147//2 149//2 111//2
f 111//4 149//4 150//4 114//4
f 114//4 150//4 155//4 122//4
f 158//5 129//5 130//5 159//5
f 207//5 159//5 160//5 208//5
usemtl playerChar.vox_Material_240
f 18//1 51//1 5//1 7//1
f 51//2 53//2 42//2 5//2
f 13//4 47//4 55//4 14//4
f 68//1 49//1 18//1 19//1
f 74//1 19//1 20//1 30//1
f 76//5 74//5 30//5 77//5
f 78//5 33//5 35//5 79//5
f 81//1 30//1 31//1 82//1
f 83//5 81//5 82//5 84//5
f 81//3 83//3 77//3 30//3
f 82//1 31//1 33//1 85//1
f 84//5 82//5 85//5 86//5
f 33//4 78//4 86//4 85//4
f 125//1 75//1 76//1 126//1
f 127//5 125//5 126//5 128//5
f 125//3 127//3 121//3 75//3
f 126//1 76//1 77//1 83//1
f 128//5 126//5 83//5 129//5
f 129//5 83//5 84//5 130//5
f 86//1 78//1 79//1 89//1
f 131//5 86//5 89//5 132//5
f 156//5 127//5 128//5 157//5
f 127//3 156//3 154//3 121//3
f 157//5 128//5 129//5 158//5
f 159//5 130//5 131//5 160//5
f 197//6 202//6 203//6 204//6
f 202//5 156//5 157//5 203//5
f 156//3 202//3 197//3 154//3
f 204//6 203//6 205//6 206//6
f 203//5 157//5 158//5 205//5
f 205//5 158//5 159//5 207//5
f 209//6 208//6 210//6 211//6
f 208//5 160//5 161//5 210//5
f 227//6 226//6 228//6 216//6
f 170//2 227//2 216//2 173//2
f 188//4 222//4 229//4 189//4
f 225//6 236//6 237//6 226//6
f 237//6 242//6 243//6 244//6
f 242//5 204//5 206//5 243//5
f 245//5 209//5 211//5 246//5
f 243//6 248//6 249//6 250//6
f 248//5 205//5 207//5 249//5
f 205//3 248//3 243//3 206//3
f 250//6 249//6 251//6 245//6
f 249//5 207//5 208//5 251//5
f 209//4 245//4 251//4 208//4
usemtl playerChar.vox_Material_245
f 23//1 12//1 24//1 25//1
f 12//2 14//2 26//2 24//2
f 24//4 26//4 27//4 25//4
f 5//1 38//1 39//1 6//1
f 38//2 40//2 41//2 39//2
f 5//3 42//3 40//3 38//3
f 10//1 43//1 45//1 13//1
f 44//6 46//6 47//6 48//6
f 43//2 44//2 48//2 45//2
f 45//4 48//4 47//4 13//4
f 27//4 71//4 80//4 37//4
f 53//1 92//1 40//1 42//1
f 96//6 95//6 97//6 98//6
f 92//2 96//2 98//2 40//2
f 100//6 99//6 101//6 102//6
f 41//2 100//2 102//2 44//2
f 44//4 102//4 101//4 46//4
f 55//4 111//4 114//4 70//4
f 114//6 122//6 123//6 124//6
f 70//2 114//2 124//2 71//2
f 71//4 124//4 123//4 80//4
f 80//4 123//4 133//4 90//4
f 164//5 136//5 137//5 165//5
f 136//3 164//3 161//3 132//3
f 133//4 163//4 165//4 137//4
f 143//1 167//1 172//1 144//1
f 171//6 170//6 173//6 174//6
f 167//2 171//2 174//2 172//2
f 145//1 175//1 177//1 146//1
f 175//2 176//2 178//2 177//2
f 177//4 178//4 179//4 146//4
f 149//4 189//4 191//4 150//4
f 155//1 150//1 199//1 162//1
f 150//2 191//2 200//2 199//2
f 199//4 200//4 201//4 162//4
f 162//4 201//4 212//4 163//4
f 215//6 216//6 217//6 218//6
f 174//2 215//2 218//2 176//2
f 173//3 216//3 215//3 174//3
f 179//1 178//1 221//1 188//1
f 220//6 219//6 222//6 223//6
f 178//2 220//2 223//2 221//2
f 221//4 223//4 222//4 188//4
f 200//4 240//4 247//4 201//4
f 260//6 267//6 268//6 269//6
f 229//2 260//2 269//2 239//2
f 239//4 269//4 268//4 240//4
usemtl playerChar.vox_Material_246
f 34//1 23//1 25//1 36//1
f 35//5 34//5 36//5 37//5
f 25//4 27//4 37//4 36//4
f 6//1 39//1 43//1 10//1
f 39//2 41//2 44//2 43//2
f 55//6 70//6 71//6 72//6
f 14//2 55//2 72//2 26//2
f 26//4 72//4 71//4 27//4
f 87//1 35//1 37//1 88//1
f 89//5 87//5 88//5 90//5
f 87//3 89//3 79//3 35//3
f 37//4 80//4 90//4 88//4
f 52//1 91//1 92//1 53//1
f 93//6 94//6 95//6 96//6
f 91//2 93//2 96//2 92//2
f 52//3 94//3 93//3 91//3
f 98//6 97//6 99//6 100//6
f 40//2 98//2 100//2 41//2
f 101//6 110//6 111//6 112//6
f 46//2 101//2 112//2 47//2
f 47//4 112//4 111//4 55//4
f 134//1 89//1 90//1 135//1
f 136//5 134//5 135//5 137//5
f 134//3 136//3 132//3 89//3
f 90//4 133//4 137//4 135//4
f 160//5 131//5 132//5 161//5
f 122//2 155//2 162//2 123//2
f 123//4 162//4 163//4 133//4
f 142//1 166//1 167//1 143//1
f 168//6 169//6 170//6 171//6
f 166//2 168//2 171//2 167//2
f 142//3 169//3 168//3 166//3
f 144//1 172//1 175//1 145//1
f 172//2 174//2 176//2 175//2
f 147//1 146//1 187//1 149//1
f 146//2 179//2 188//2 187//2
f 187//4 188//4 189//4 149//4
f 210//6 213//6 214//6 212//6
f 213//5 164//5 165//5 214//5
f 164//3 213//3 210//3 161//3
f 163//4 212//4 214//4 165//4
f 218//6 217//6 219//6 220//6
f 176//2 218//2 220//2 178//2
f 191//1 189//1 238//1 200//1
f 189//2 229//2 239//2 238//2
f 238//4 239//4 240//4 200//4
f 246//6 252//6 253//6 247//6
f 252//5 210//5 212//5 253//5
f 210//3 252//3 246//3 211//3
f 201//4 247//4 253//4 212//4
f 267//6 273//6 274//6 268//6
f 273//5 246//5 247//5 274//5
f 240//4 268//4 274//4 247//4
usemtl playerChar.vox_Material_247
f 59//1 58//1 64//1 65//1
f 58//2 61//2 66//2 64//2
f 63//5 59//5 65//5 67//5
f 61//1 104//1 108//1 66//1
f 104//2 106//2 109//2 108//2
f 116//1 63//1 67//1 119//1
f 118//5 116//5 119//5 120//5
f 152//5 118//5 120//5 153//5
f 183//6 182//6 184//6 185//6
f 139//2 183//2 185//2 141//2
f 194//6 193//6 195//6 196//6
f 193//5 152//5 153//5 195//5
f 233//6 232//6 234//6 235//6
f 182//2 233//2 235//2 184//2
f 232//5 194//5 196//5 234//5
usemtl playerChar.vox_Material_254
f 106//2 139//2 141//2 109//2
