# Blender 3.6.7
# www.blender.org
mtllib pillar_3.mtl
o pillar_3
v -34.250000 2.500000 38.250000
v -34.250000 16.500000 38.250000
v -34.250000 16.500000 -37.750000
v -34.250000 2.500000 -37.750000
v -34.250000 17.500000 38.250000
v -34.250000 17.500000 -31.250000
v -34.250000 16.500000 -31.250000
v -33.750000 2.500000 37.250000
v -33.750000 2.500000 -37.250000
v -33.750000 16.500000 -37.250000
v -33.750000 16.500000 37.250000
v -33.750000 16.500000 -31.250000
v -33.750000 17.500000 -31.250000
v -33.750000 17.500000 37.250000
v -18.250000 16.500000 -37.250000
v -18.250000 27.500000 -37.250000
v -18.250000 27.500000 -37.750000
v -18.250000 16.500000 -37.750000
v -3.750000 2.500000 39.250000
v -3.750000 9.500000 39.250000
v -3.750000 9.500000 38.250000
v -3.750000 2.500000 38.250000
v -3.250000 2.500000 39.250000
v -3.250000 2.500000 38.750000
v -3.250000 8.000000 38.750000
v -3.250000 8.000000 39.250000
v -2.750000 8.000000 39.250000
v -2.750000 8.000000 38.750000
v -2.750000 8.500000 38.750000
v -2.750000 8.500000 39.250000
v -2.750000 2.500000 38.750000
v -2.750000 2.500000 38.250000
v -2.750000 8.000000 38.250000
v -2.750000 12.000000 37.750000
v -2.750000 12.000000 37.250000
v -2.750000 12.500000 37.250000
v -2.750000 12.500000 37.750000
v -2.750000 13.000000 37.750000
v -2.750000 13.000000 37.250000
v -2.750000 13.500000 37.250000
v -2.750000 13.500000 37.750000
v -2.750000 14.000000 37.750000
v -2.750000 14.000000 37.250000
v -2.750000 14.500000 37.250000
v -2.750000 14.500000 37.750000
v -3.250000 2.500000 37.250000
v -3.250000 8.000000 37.250000
v -3.250000 8.000000 36.750000
v -3.250000 2.500000 36.750000
v -2.750000 2.500000 37.250000
v -2.750000 2.500000 36.750000
v -2.750000 8.000000 36.750000
v -2.750000 8.000000 37.250000
v -2.250000 8.500000 39.250000
v -2.250000 8.500000 38.750000
v -2.250000 9.000000 38.750000
v -2.250000 9.000000 39.250000
v -2.250000 8.000000 38.750000
v -2.250000 8.000000 38.250000
v -2.250000 8.500000 38.250000
v -2.250000 2.500000 38.250000
v -2.250000 2.500000 37.250000
v -2.250000 8.000000 37.250000
v -2.250000 11.000000 37.750000
v -2.250000 11.000000 37.250000
v -2.250000 12.000000 37.250000
v -2.250000 12.000000 37.750000
v -2.250000 12.500000 37.750000
v -2.250000 12.500000 37.250000
v -2.250000 13.000000 37.250000
v -2.250000 13.000000 37.750000
v -2.250000 13.500000 37.750000
v -2.250000 13.500000 37.250000
v -2.250000 14.000000 37.250000
v -2.250000 14.000000 37.750000
v -2.250000 14.500000 37.750000
v -2.250000 14.500000 37.250000
v -2.250000 15.500000 37.250000
v -2.250000 15.500000 37.750000
v -2.750000 8.500000 37.250000
v -2.750000 8.500000 36.750000
v -2.250000 8.000000 36.750000
v -2.250000 8.500000 36.750000
v -2.250000 8.500000 37.250000
v -1.750000 13.000000 37.750000
v -1.750000 13.000000 37.250000
v -1.750000 13.500000 37.250000
v -1.750000 13.500000 37.750000
v -2.250000 9.000000 37.250000
v -2.250000 9.000000 36.750000
v -1.250000 10.500000 37.750000
v -1.250000 10.500000 37.250000
v -1.250000 11.000000 37.250000
v -1.250000 11.000000 37.750000
v -1.750000 12.500000 37.750000
v -1.750000 12.500000 37.250000
v -1.750000 14.000000 37.750000
v -1.750000 14.000000 37.250000
v -1.250000 15.500000 37.750000
v -1.250000 15.500000 37.250000
v -1.250000 16.000000 37.250000
v -1.250000 16.000000 37.750000
v -0.750000 10.500000 37.750000
v -0.750000 11.000000 37.750000
v -0.750000 11.000000 37.250000
v -0.750000 10.500000 37.250000
v -0.250000 10.500000 37.750000
v -0.250000 10.500000 37.250000
v -0.250000 11.000000 37.250000
v -0.250000 11.000000 37.750000
v -0.750000 11.500000 37.750000
v -0.750000 12.500000 37.750000
v -0.750000 12.500000 37.250000
v -0.750000 11.500000 37.250000
v -0.250000 11.500000 37.750000
v -0.250000 11.500000 37.250000
v -0.250000 13.000000 37.250000
v -0.250000 13.000000 37.750000
v -0.250000 13.500000 37.750000
v -0.250000 13.500000 37.250000
v -0.250000 15.000000 37.250000
v -0.250000 15.000000 37.750000
v -0.750000 14.000000 37.750000
v -0.750000 15.000000 37.750000
v -0.750000 15.000000 37.250000
v -0.750000 14.000000 37.250000
v -0.750000 15.500000 37.750000
v -0.750000 16.000000 37.750000
v -0.750000 16.000000 37.250000
v -0.750000 15.500000 37.250000
v -0.250000 15.500000 37.750000
v -0.250000 15.500000 37.250000
v -0.250000 16.000000 37.250000
v -0.250000 16.000000 37.750000
v 0.250000 11.000000 37.750000
v 0.250000 11.000000 37.250000
v 0.250000 11.500000 37.250000
v 0.250000 11.500000 37.750000
v 0.250000 13.000000 37.750000
v 0.250000 13.000000 37.250000
v 0.250000 13.500000 37.250000
v 0.250000 13.500000 37.750000
v 0.250000 15.000000 37.750000
v 0.250000 15.000000 37.250000
v 0.250000 15.500000 37.250000
v 0.250000 15.500000 37.750000
v 0.250000 10.500000 37.750000
v 0.250000 10.500000 37.250000
v 0.750000 10.500000 37.750000
v 0.750000 10.500000 37.250000
v 0.750000 11.000000 37.250000
v 0.750000 11.000000 37.750000
v 0.750000 11.500000 37.750000
v 0.750000 11.500000 37.250000
v 0.750000 12.500000 37.250000
v 0.750000 12.500000 37.750000
v 0.750000 14.000000 37.750000
v 0.750000 14.000000 37.250000
v 0.750000 15.000000 37.250000
v 0.750000 15.000000 37.750000
v 0.250000 16.000000 37.750000
v 0.250000 16.000000 37.250000
v 0.750000 15.500000 37.750000
v 0.750000 15.500000 37.250000
v 0.750000 16.000000 37.250000
v 0.750000 16.000000 37.750000
v 1.250000 10.500000 37.750000
v 1.250000 11.000000 37.750000
v 1.250000 11.000000 37.250000
v 1.250000 10.500000 37.250000
v 1.750000 12.500000 37.750000
v 1.750000 12.500000 37.250000
v 1.750000 13.000000 37.250000
v 1.750000 13.000000 37.750000
v 1.750000 13.500000 37.750000
v 1.750000 13.500000 37.250000
v 1.750000 14.000000 37.250000
v 1.750000 14.000000 37.750000
v 1.250000 15.500000 37.750000
v 1.250000 16.000000 37.750000
v 1.250000 16.000000 37.250000
v 1.250000 15.500000 37.250000
v 2.250000 13.000000 37.750000
v 2.250000 13.000000 37.250000
v 2.250000 13.500000 37.250000
v 2.250000 13.500000 37.750000
v 2.250000 8.500000 37.250000
v 2.250000 8.500000 36.750000
v 2.250000 9.000000 36.750000
v 2.250000 9.000000 37.250000
v 2.250000 8.500000 39.250000
v 2.250000 9.000000 39.250000
v 2.250000 9.000000 38.750000
v 2.250000 8.500000 38.750000
v 2.250000 8.000000 38.750000
v 2.250000 8.500000 38.250000
v 2.250000 8.000000 38.250000
v 2.250000 2.500000 38.250000
v 2.250000 8.000000 37.250000
v 2.250000 2.500000 37.250000
v 2.250000 11.000000 37.750000
v 2.250000 12.000000 37.750000
v 2.250000 12.000000 37.250000
v 2.250000 11.000000 37.250000
v 2.250000 12.500000 37.750000
v 2.250000 12.500000 37.250000
v 2.250000 14.000000 37.750000
v 2.250000 14.000000 37.250000
v 2.250000 14.500000 37.750000
v 2.250000 15.500000 37.750000
v 2.250000 15.500000 37.250000
v 2.250000 14.500000 37.250000
v 2.250000 8.000000 36.750000
v 2.750000 8.000000 37.250000
v 2.750000 8.000000 36.750000
v 2.750000 8.500000 36.750000
v 2.750000 8.500000 37.250000
v 2.750000 8.000000 39.250000
v 2.750000 8.500000 39.250000
v 2.750000 8.500000 38.750000
v 2.750000 8.000000 38.750000
v 2.750000 2.500000 38.750000
v 2.750000 8.000000 38.250000
v 2.750000 2.500000 38.250000
v 2.750000 12.000000 37.750000
v 2.750000 12.500000 37.750000
v 2.750000 12.500000 37.250000
v 2.750000 12.000000 37.250000
v 2.750000 13.000000 37.750000
v 2.750000 13.500000 37.750000
v 2.750000 13.500000 37.250000
v 2.750000 13.000000 37.250000
v 2.750000 14.000000 37.750000
v 2.750000 14.500000 37.750000
v 2.750000 14.500000 37.250000
v 2.750000 14.000000 37.250000
v 2.750000 2.500000 37.250000
v 2.750000 2.500000 36.750000
v 3.250000 2.500000 37.250000
v 3.250000 2.500000 36.750000
v 3.250000 8.000000 36.750000
v 3.250000 8.000000 37.250000
v 3.250000 2.500000 39.250000
v 3.250000 8.000000 39.250000
v 3.250000 8.000000 38.750000
v 3.250000 2.500000 38.750000
v 3.750000 2.500000 39.250000
v 3.750000 2.500000 38.250000
v 3.750000 9.500000 38.250000
v 3.750000 9.500000 39.250000
v 18.250000 16.500000 -37.250000
v 18.250000 16.500000 -37.750000
v 18.250000 27.500000 -37.750000
v 18.250000 27.500000 -37.250000
v 34.250000 2.500000 38.250000
v 34.250000 2.500000 -37.750000
v 34.250000 16.500000 -37.750000
v 34.250000 16.500000 38.250000
v 34.250000 16.500000 -31.250000
v 34.250000 17.500000 -31.250000
v 34.250000 17.500000 38.250000
v 33.750000 2.500000 37.250000
v 33.750000 16.500000 37.250000
v 33.750000 16.500000 -37.250000
v 33.750000 2.500000 -37.250000
v 33.750000 17.500000 37.250000
v 33.750000 17.500000 -31.250000
v 33.750000 16.500000 -31.250000
v -3.250000 9.500000 39.250000
v 3.250000 9.500000 39.250000
v -2.750000 9.500000 39.250000
v 2.750000 9.500000 39.250000
v -2.250000 9.500000 39.250000
v 2.250000 9.500000 39.250000
v -3.750000 17.500000 38.250000
v 3.750000 17.500000 38.250000
v -1.250000 12.500000 37.750000
v 1.250000 12.500000 37.750000
v -1.750000 11.000000 37.750000
v -1.750000 15.500000 37.750000
v 1.750000 15.500000 37.750000
v 1.250000 14.000000 37.750000
v -3.250000 17.500000 37.250000
v 3.250000 17.500000 37.250000
v -3.250000 12.000000 37.250000
v 3.250000 12.000000 37.250000
v -2.750000 11.000000 37.250000
v 2.750000 11.000000 37.250000
v -2.250000 10.500000 37.250000
v -1.250000 9.000000 37.250000
v -1.250000 10.000000 37.250000
v 2.250000 10.000000 37.250000
v 1.250000 10.000000 37.250000
v 2.250000 10.500000 37.250000
v -0.750000 13.000000 37.250000
v 0.750000 13.000000 37.250000
v -3.250000 14.500000 37.250000
v 3.250000 14.500000 37.250000
v -0.250000 14.000000 37.250000
v 0.750000 13.500000 37.250000
v -2.750000 17.500000 37.250000
v -2.750000 15.500000 37.250000
v 2.750000 15.500000 37.250000
v 2.750000 17.500000 37.250000
v -2.250000 17.500000 37.250000
v -2.250000 16.000000 37.250000
v -0.750000 16.500000 37.250000
v -0.250000 16.500000 37.250000
v 0.250000 16.500000 37.250000
v 0.750000 16.500000 37.250000
v 2.250000 16.000000 37.250000
v 2.250000 17.500000 37.250000
v -1.250000 17.500000 37.250000
v -1.250000 16.500000 37.250000
v 1.250000 16.500000 37.250000
v 1.250000 17.500000 37.250000
v -34.250000 2.500000 37.250000
v -3.250000 2.500000 38.250000
v -33.750000 2.500000 -37.750000
v 34.250000 2.500000 -37.250000
v 3.250000 2.500000 38.250000
v 3.750000 2.500000 37.250000
v 34.250000 2.500000 37.250000
v -33.750000 16.500000 -37.750000
v 34.250000 16.500000 -37.250000
v 34.250000 17.500000 37.250000
v -34.250000 17.500000 37.250000
vn -1.0000 -0.0000 -0.0000
vn 1.0000 -0.0000 -0.0000
vn -0.0000 -0.0000 1.0000
vn -0.0000 -0.0000 -1.0000
vn -0.0000 -1.0000 -0.0000
vn -0.0000 1.0000 -0.0000
s 0
usemtl Chateau.vox_Material_246
f 1//1 2//1 3//1 4//1
f 2//1 5//1 6//1 7//1
f 8//2 9//2 10//2 11//2
f 11//2 12//2 13//2 14//2
f 15//1 16//1 17//1 18//1
f 19//1 20//1 21//1 22//1
f 23//2 24//2 25//2 26//2
f 27//2 28//2 29//2 30//2
f 54//2 55//2 56//2 57//2
f 191//1 192//1 193//1 194//1
f 218//1 219//1 220//1 221//1
f 243//1 244//1 245//1 246//1
f 247//2 248//2 249//2 250//2
f 251//2 252//2 253//2 254//2
f 255//2 256//2 257//2 258//2
f 258//2 259//2 260//2 261//2
f 262//1 263//1 264//1 265//1
f 263//1 266//1 267//1 268//1
f 19//3 23//3 269//3 20//3
f 243//3 247//3 250//3 270//3
f 26//3 27//3 271//3 269//3
f 218//3 244//3 270//3 272//3
f 30//3 54//3 273//3 271//3
f 191//3 219//3 272//3 274//3
f 57//3 192//3 274//3 273//3
f 1//3 22//3 275//3 5//3
f 248//3 255//3 261//3 276//3
f 21//3 249//3 276//3 275//3
f 91//4 277//4 112//4 103//4
f 107//4 110//4 135//4 147//4
f 149//4 156//4 278//4 167//4
f 64//4 71//4 85//4 279//4
f 279//4 95//4 277//4 94//4
f 104//4 111//4 115//4 110//4
f 135//4 138//4 153//4 152//4
f 168//4 278//4 205//4 201//4
f 115//4 118//4 139//4 138//4
f 34//4 37//4 68//4 67//4
f 202//4 205//4 226//4 225//4
f 171//4 174//4 183//4 205//4
f 38//4 41//4 72//4 71//4
f 85//4 88//4 119//4 118//4
f 139//4 142//4 175//4 174//4
f 183//4 186//4 230//4 229//4
f 72//4 79//4 280//4 88//4
f 119//4 122//4 143//4 142//4
f 175//4 281//4 210//4 186//4
f 42//4 45//4 76//4 75//4
f 97//4 280//4 127//4 123//4
f 157//4 166//4 180//4 282//4
f 282//4 179//4 281//4 178//4
f 207//4 209//4 234//4 233//4
f 124//4 127//4 131//4 122//4
f 143//4 146//4 163//4 160//4
f 99//4 102//4 128//4 127//4
f 131//4 134//4 161//4 146//4
f 8//4 14//4 283//4 46//4
f 239//4 284//4 266//4 262//4
f 47//4 285//4 35//4 53//4
f 214//4 228//4 286//4 242//4
f 80//4 287//4 65//4 84//4
f 187//4 204//4 288//4 217//4
f 89//4 289//4 92//4 290//4
f 290//4 291//4 292//4 190//4
f 293//4 170//4 294//4 292//4
f 297//4 283//4 301//4 44//4
f 235//4 304//4 284//4 298//4
f 302//4 301//4 305//4 78//4
f 211//4 312//4 304//4 303//4
f 306//4 305//4 313//4 101//4
f 181//4 316//4 312//4 311//4
f 314//4 313//4 316//4 315//4
f 7//4 6//4 13//4 12//4
f 268//4 267//4 260//4 259//4
f 4//4 3//4 257//4 256//4
f 9//3 265//3 264//3 10//3
f 15//3 251//3 254//3 16//3
f 18//4 17//4 253//4 252//4
f 1//5 317//5 46//5 318//5
f 317//5 4//5 319//5 8//5
f 9//5 319//5 256//5 320//5
f 19//5 22//5 318//5 23//5
f 243//5 239//5 322//5 247//5
f 248//5 322//5 323//5 255//5
f 262//5 265//5 320//5 323//5
f 26//5 25//5 28//5 27//5
f 218//5 221//5 245//5 244//5
f 30//5 29//5 55//5 54//5
f 191//5 194//5 220//5 219//5
f 20//6 250//6 249//6 21//6
f 57//5 56//5 193//5 192//5
f 7//6 12//6 324//6 3//6
f 10//6 15//6 18//6 324//6
f 251//6 325//6 257//6 252//6
f 268//6 259//6 325//6 264//6
f 5//6 261//6 326//6 327//6
f 327//6 14//6 13//6 6//6
f 266//6 326//6 260//6 267//6
f 16//6 254//6 253//6 17//6
usemtl Chateau.vox_Material_248
f 31//2 32//2 33//2 28//2
f 46//1 47//1 48//1 49//1
f 50//2 51//2 52//2 53//2
f 58//2 59//2 60//2 55//2
f 61//2 62//2 63//2 59//2
f 53//1 80//1 81//1 52//1
f 63//2 82//2 83//2 84//2
f 84//1 89//1 90//1 83//1
f 187//2 188//2 189//2 190//2
f 195//1 194//1 196//1 197//1
f 198//1 197//1 199//1 200//1
f 199//1 187//1 188//1 213//1
f 214//2 215//2 216//2 217//2
f 222//1 221//1 223//1 224//1
f 237//1 214//1 215//1 238//1
f 239//2 240//2 241//2 242//2
f 24//3 31//3 28//3 25//3
f 222//3 246//3 245//3 221//3
f 28//3 58//3 55//3 29//3
f 195//3 221//3 220//3 194//3
f 55//3 194//3 193//3 56//3
f 32//3 61//3 59//3 33//3
f 198//3 224//3 223//3 197//3
f 59//3 197//3 196//3 60//3
f 50//4 53//4 63//4 62//4
f 200//4 199//4 214//4 237//4
f 63//4 84//4 187//4 199//4
f 49//4 48//4 52//4 51//4
f 238//4 215//4 241//4 240//4
f 52//4 81//4 83//4 82//4
f 213//4 188//4 216//4 215//4
f 83//4 90//4 189//4 188//4
f 24//5 49//5 51//5 31//5
f 32//5 50//5 62//5 61//5
f 198//5 200//5 239//5 321//5
f 222//5 224//5 321//5 246//5
f 237//5 238//5 240//5 239//5
f 47//6 53//6 52//6 48//6
f 214//6 242//6 241//6 215//6
f 28//5 33//5 59//5 58//5
f 53//5 52//5 82//5 63//5
f 80//6 84//6 83//6 81//6
f 59//5 63//5 199//5 197//5
f 195//5 197//5 223//5 221//5
f 199//5 213//5 215//5 214//5
f 187//6 217//6 216//6 188//6
f 55//5 60//5 196//5 194//5
f 84//5 83//5 188//5 187//5
f 89//6 190//6 189//6 90//6
usemtl Chateau.vox_Material_252
f 34//2 35//2 36//2 37//2
f 38//2 39//2 40//2 41//2
f 42//2 43//2 44//2 45//2
f 64//2 65//2 66//2 67//2
f 68//2 69//2 70//2 71//2
f 72//2 73//2 74//2 75//2
f 76//2 77//2 78//2 79//2
f 71//1 72//1 73//1 70//1
f 85//2 86//2 87//2 88//2
f 91//2 92//2 93//2 94//2
f 95//1 85//1 86//1 96//1
f 88//1 97//1 98//1 87//1
f 99//2 100//2 101//2 102//2
f 103//1 104//1 105//1 106//1
f 107//2 108//2 109//2 110//2
f 111//1 112//1 113//1 114//1
f 115//2 116//2 117//2 118//2
f 119//2 120//2 121//2 122//2
f 123//1 124//1 125//1 126//1
f 127//1 128//1 129//1 130//1
f 131//2 132//2 133//2 134//2
f 110//1 115//1 116//1 109//1
f 135//2 136//2 137//2 138//2
f 118//1 119//1 120//1 117//1
f 139//2 140//2 141//2 142//2
f 122//1 131//1 132//1 121//1
f 143//2 144//2 145//2 146//2
f 147//1 135//1 136//1 148//1
f 149//2 150//2 151//2 152//2
f 138//1 139//1 140//1 137//1
f 153//2 154//2 155//2 156//2
f 142//1 143//1 144//1 141//1
f 157//2 158//2 159//2 160//2
f 146//1 161//1 162//1 145//1
f 163//2 164//2 165//2 166//2
f 167//1 168//1 169//1 170//1
f 171//2 172//2 173//2 174//2
f 175//2 176//2 177//2 178//2
f 179//1 180//1 181//1 182//1
f 174//1 175//1 176//1 173//1
f 183//2 184//2 185//2 186//2
f 201//1 202//1 203//1 204//1
f 205//1 183//1 184//1 206//1
f 186//1 207//1 208//1 185//1
f 209//1 210//1 211//1 212//1
f 225//1 226//1 227//1 228//1
f 229//1 230//1 231//1 232//1
f 233//1 234//1 235//1 236//1
f 291//4 92//4 170//4 293//4
f 289//4 65//4 93//4 92//4
f 106//4 105//4 109//4 108//4
f 148//4 136//4 151//4 150//4
f 170//4 169//4 204//4 294//4
f 287//4 35//4 66//4 65//4
f 109//4 116//4 137//4 136//4
f 204//4 203//4 228//4 288//4
f 114//4 295//4 117//4 116//4
f 137//4 140//4 296//4 154//4
f 285//4 297//4 44//4 35//4
f 228//4 235//4 298//4 286//4
f 36//4 39//4 70//4 69//4
f 96//4 86//4 295//4 113//4
f 155//4 296//4 173//4 172//4
f 206//4 184//4 232//4 227//4
f 70//4 73//4 87//4 86//4
f 117//4 120//4 141//4 140//4
f 173//4 176//4 185//4 184//4
f 40//4 43//4 74//4 73//4
f 87//4 98//4 299//4 120//4
f 141//4 144//4 159//4 300//4
f 300//4 158//4 177//4 176//4
f 185//4 208//4 236//4 231//4
f 126//4 125//4 121//4 299//4
f 44//4 302//4 78//4 77//4
f 212//4 211//4 303//4 235//4
f 121//4 132//4 145//4 144//4
f 78//4 306//4 101//4 100//4
f 130//4 307//4 308//4 132//4
f 145//4 309//4 310//4 164//4
f 182//4 181//4 311//4 211//4
f 101//4 314//4 307//4 129//4
f 133//4 308//4 309//4 162//4
f 165//4 310//4 315//4 181//4
f 91//6 103//6 106//6 92//6
f 107//6 147//6 148//6 108//6
f 149//6 167//6 170//6 150//6
f 64//6 94//6 93//6 65//6
f 104//6 110//6 109//6 105//6
f 135//6 152//6 151//6 136//6
f 168//6 201//6 204//6 169//6
f 110//5 109//5 136//5 135//5
f 115//6 138//6 137//6 116//6
f 34//6 67//6 66//6 35//6
f 111//5 114//5 116//5 115//5
f 138//5 137//5 154//5 153//5
f 202//6 225//6 228//6 203//6
f 37//5 36//5 69//5 68//5
f 38//6 71//6 70//6 39//6
f 95//5 96//5 113//5 112//5
f 85//6 118//6 117//6 86//6
f 139//6 174//6 173//6 140//6
f 156//5 155//5 172//5 171//5
f 205//5 206//5 227//5 226//5
f 183//6 229//6 232//6 184//6
f 71//5 70//5 86//5 85//5
f 72//6 88//6 87//6 73//6
f 118//5 117//5 140//5 139//5
f 119//6 142//6 141//6 120//6
f 174//5 173//5 184//5 183//5
f 175//6 186//6 185//6 176//6
f 41//5 40//5 73//5 72//5
f 42//6 75//6 74//6 43//6
f 88//5 87//5 120//5 119//5
f 97//6 123//6 126//6 98//6
f 142//5 141//5 176//5 175//5
f 157//6 178//6 177//6 158//6
f 186//5 185//5 231//5 230//5
f 207//6 233//6 236//6 208//6
f 45//5 44//5 77//5 76//5
f 124//6 122//6 121//6 125//6
f 143//6 160//6 159//6 144//6
f 209//5 212//5 235//5 234//5
f 122//5 121//5 144//5 143//5
f 131//6 146//6 145//6 132//6
f 79//5 78//5 100//5 99//5
f 127//5 130//5 132//5 131//5
f 146//5 145//5 164//5 163//5
f 179//5 182//5 211//5 210//5
f 102//5 101//5 129//5 128//5
f 134//5 133//5 162//5 161//5
f 166//5 165//5 181//5 180//5
